<?xml version="1.0" encoding="utf-8" standalone="no"?>
<!DOCTYPE svg PUBLIC "-//W3C//DTD SVG 1.1//EN"
  "http://www.w3.org/Graphics/SVG/1.1/DTD/svg11.dtd">
<svg xmlns:xlink="http://www.w3.org/1999/xlink" width="460.8pt" height="345.6pt" viewBox="0 0 460.8 345.6" xmlns="http://www.w3.org/2000/svg" version="1.1">
 <metadata>
  <rdf:RDF xmlns:dc="http://purl.org/dc/elements/1.1/" xmlns:cc="http://creativecommons.org/ns#" xmlns:rdf="http://www.w3.org/1999/02/22-rdf-syntax-ns#">
   <cc:Work>
    <dc:type rdf:resource="http://purl.org/dc/dcmitype/StillImage"/>
    <dc:date>2023-03-25T17:08:11.445503</dc:date>
    <dc:format>image/svg+xml</dc:format>
    <dc:creator>
     <cc:Agent>
      <dc:title>Matplotlib v3.5.1, https://matplotlib.org/</dc:title>
     </cc:Agent>
    </dc:creator>
   </cc:Work>
  </rdf:RDF>
 </metadata>
 <defs>
  <style type="text/css">*{stroke-linejoin: round; stroke-linecap: butt}</style>
 </defs>
 <g id="figure_1">
  <g id="patch_1">
   <path d="M 0 345.6 
L 460.8 345.6 
L 460.8 0 
L 0 0 
z
" style="fill: #ffffff"/>
  </g>
  <g id="axes_1">
   <g id="patch_2">
    <path d="M 57.6 307.584 
L 414.72 307.584 
L 414.72 41.472 
L 57.6 41.472 
z
" style="fill: #ffffff"/>
   </g>
   <g id="matplotlib.axis_1">
    <g id="xtick_1">
     <g id="line2d_1">
      <defs>
       <path id="m065183dc18" d="M 0 0 
L 0 3.5 
" style="stroke: #000000; stroke-width: 0.8"/>
      </defs>
      <g>
       <use xlink:href="#m065183dc18" x="72.201297" y="307.584" style="stroke: #000000; stroke-width: 0.8"/>
      </g>
     </g>
     <g id="text_1">
      <!-- 0 -->
      <g transform="translate(69.020047 322.182437)scale(0.1 -0.1)">
       <defs>
        <path id="DejaVuSans-30" d="M 2034 4250 
Q 1547 4250 1301 3770 
Q 1056 3291 1056 2328 
Q 1056 1369 1301 889 
Q 1547 409 2034 409 
Q 2525 409 2770 889 
Q 3016 1369 3016 2328 
Q 3016 3291 2770 3770 
Q 2525 4250 2034 4250 
z
M 2034 4750 
Q 2819 4750 3233 4129 
Q 3647 3509 3647 2328 
Q 3647 1150 3233 529 
Q 2819 -91 2034 -91 
Q 1250 -91 836 529 
Q 422 1150 422 2328 
Q 422 3509 836 4129 
Q 1250 4750 2034 4750 
z
" transform="scale(0.015625)"/>
       </defs>
       <use xlink:href="#DejaVuSans-30"/>
      </g>
     </g>
    </g>
    <g id="xtick_2">
     <g id="line2d_2">
      <g>
       <use xlink:href="#m065183dc18" x="137.458492" y="307.584" style="stroke: #000000; stroke-width: 0.8"/>
      </g>
     </g>
     <g id="text_2">
      <!-- 200 -->
      <g transform="translate(127.914742 322.182437)scale(0.1 -0.1)">
       <defs>
        <path id="DejaVuSans-32" d="M 1228 531 
L 3431 531 
L 3431 0 
L 469 0 
L 469 531 
Q 828 903 1448 1529 
Q 2069 2156 2228 2338 
Q 2531 2678 2651 2914 
Q 2772 3150 2772 3378 
Q 2772 3750 2511 3984 
Q 2250 4219 1831 4219 
Q 1534 4219 1204 4116 
Q 875 4013 500 3803 
L 500 4441 
Q 881 4594 1212 4672 
Q 1544 4750 1819 4750 
Q 2544 4750 2975 4387 
Q 3406 4025 3406 3419 
Q 3406 3131 3298 2873 
Q 3191 2616 2906 2266 
Q 2828 2175 2409 1742 
Q 1991 1309 1228 531 
z
" transform="scale(0.015625)"/>
       </defs>
       <use xlink:href="#DejaVuSans-32"/>
       <use xlink:href="#DejaVuSans-30" x="63.623047"/>
       <use xlink:href="#DejaVuSans-30" x="127.246094"/>
      </g>
     </g>
    </g>
    <g id="xtick_3">
     <g id="line2d_3">
      <g>
       <use xlink:href="#m065183dc18" x="202.715688" y="307.584" style="stroke: #000000; stroke-width: 0.8"/>
      </g>
     </g>
     <g id="text_3">
      <!-- 400 -->
      <g transform="translate(193.171938 322.182437)scale(0.1 -0.1)">
       <defs>
        <path id="DejaVuSans-34" d="M 2419 4116 
L 825 1625 
L 2419 1625 
L 2419 4116 
z
M 2253 4666 
L 3047 4666 
L 3047 1625 
L 3713 1625 
L 3713 1100 
L 3047 1100 
L 3047 0 
L 2419 0 
L 2419 1100 
L 313 1100 
L 313 1709 
L 2253 4666 
z
" transform="scale(0.015625)"/>
       </defs>
       <use xlink:href="#DejaVuSans-34"/>
       <use xlink:href="#DejaVuSans-30" x="63.623047"/>
       <use xlink:href="#DejaVuSans-30" x="127.246094"/>
      </g>
     </g>
    </g>
    <g id="xtick_4">
     <g id="line2d_4">
      <g>
       <use xlink:href="#m065183dc18" x="267.972883" y="307.584" style="stroke: #000000; stroke-width: 0.8"/>
      </g>
     </g>
     <g id="text_4">
      <!-- 600 -->
      <g transform="translate(258.429133 322.182437)scale(0.1 -0.1)">
       <defs>
        <path id="DejaVuSans-36" d="M 2113 2584 
Q 1688 2584 1439 2293 
Q 1191 2003 1191 1497 
Q 1191 994 1439 701 
Q 1688 409 2113 409 
Q 2538 409 2786 701 
Q 3034 994 3034 1497 
Q 3034 2003 2786 2293 
Q 2538 2584 2113 2584 
z
M 3366 4563 
L 3366 3988 
Q 3128 4100 2886 4159 
Q 2644 4219 2406 4219 
Q 1781 4219 1451 3797 
Q 1122 3375 1075 2522 
Q 1259 2794 1537 2939 
Q 1816 3084 2150 3084 
Q 2853 3084 3261 2657 
Q 3669 2231 3669 1497 
Q 3669 778 3244 343 
Q 2819 -91 2113 -91 
Q 1303 -91 875 529 
Q 447 1150 447 2328 
Q 447 3434 972 4092 
Q 1497 4750 2381 4750 
Q 2619 4750 2861 4703 
Q 3103 4656 3366 4563 
z
" transform="scale(0.015625)"/>
       </defs>
       <use xlink:href="#DejaVuSans-36"/>
       <use xlink:href="#DejaVuSans-30" x="63.623047"/>
       <use xlink:href="#DejaVuSans-30" x="127.246094"/>
      </g>
     </g>
    </g>
    <g id="xtick_5">
     <g id="line2d_5">
      <g>
       <use xlink:href="#m065183dc18" x="333.230078" y="307.584" style="stroke: #000000; stroke-width: 0.8"/>
      </g>
     </g>
     <g id="text_5">
      <!-- 800 -->
      <g transform="translate(323.686328 322.182437)scale(0.1 -0.1)">
       <defs>
        <path id="DejaVuSans-38" d="M 2034 2216 
Q 1584 2216 1326 1975 
Q 1069 1734 1069 1313 
Q 1069 891 1326 650 
Q 1584 409 2034 409 
Q 2484 409 2743 651 
Q 3003 894 3003 1313 
Q 3003 1734 2745 1975 
Q 2488 2216 2034 2216 
z
M 1403 2484 
Q 997 2584 770 2862 
Q 544 3141 544 3541 
Q 544 4100 942 4425 
Q 1341 4750 2034 4750 
Q 2731 4750 3128 4425 
Q 3525 4100 3525 3541 
Q 3525 3141 3298 2862 
Q 3072 2584 2669 2484 
Q 3125 2378 3379 2068 
Q 3634 1759 3634 1313 
Q 3634 634 3220 271 
Q 2806 -91 2034 -91 
Q 1263 -91 848 271 
Q 434 634 434 1313 
Q 434 1759 690 2068 
Q 947 2378 1403 2484 
z
M 1172 3481 
Q 1172 3119 1398 2916 
Q 1625 2713 2034 2713 
Q 2441 2713 2670 2916 
Q 2900 3119 2900 3481 
Q 2900 3844 2670 4047 
Q 2441 4250 2034 4250 
Q 1625 4250 1398 4047 
Q 1172 3844 1172 3481 
z
" transform="scale(0.015625)"/>
       </defs>
       <use xlink:href="#DejaVuSans-38"/>
       <use xlink:href="#DejaVuSans-30" x="63.623047"/>
       <use xlink:href="#DejaVuSans-30" x="127.246094"/>
      </g>
     </g>
    </g>
    <g id="xtick_6">
     <g id="line2d_6">
      <g>
       <use xlink:href="#m065183dc18" x="398.487273" y="307.584" style="stroke: #000000; stroke-width: 0.8"/>
      </g>
     </g>
     <g id="text_6">
      <!-- 1000 -->
      <g transform="translate(385.762273 322.182437)scale(0.1 -0.1)">
       <defs>
        <path id="DejaVuSans-31" d="M 794 531 
L 1825 531 
L 1825 4091 
L 703 3866 
L 703 4441 
L 1819 4666 
L 2450 4666 
L 2450 531 
L 3481 531 
L 3481 0 
L 794 0 
L 794 531 
z
" transform="scale(0.015625)"/>
       </defs>
       <use xlink:href="#DejaVuSans-31"/>
       <use xlink:href="#DejaVuSans-30" x="63.623047"/>
       <use xlink:href="#DejaVuSans-30" x="127.246094"/>
       <use xlink:href="#DejaVuSans-30" x="190.869141"/>
      </g>
     </g>
    </g>
   </g>
   <g id="matplotlib.axis_2">
    <g id="ytick_1">
     <g id="line2d_7">
      <defs>
       <path id="m7458170e72" d="M 0 0 
L -3.5 0 
" style="stroke: #000000; stroke-width: 0.8"/>
      </defs>
      <g>
       <use xlink:href="#m7458170e72" x="57.6" y="286.413251" style="stroke: #000000; stroke-width: 0.8"/>
      </g>
     </g>
     <g id="text_7">
      <!-- −1.0 -->
      <g transform="translate(26.317187 290.212469)scale(0.1 -0.1)">
       <defs>
        <path id="DejaVuSans-2212" d="M 678 2272 
L 4684 2272 
L 4684 1741 
L 678 1741 
L 678 2272 
z
" transform="scale(0.015625)"/>
        <path id="DejaVuSans-2e" d="M 684 794 
L 1344 794 
L 1344 0 
L 684 0 
L 684 794 
z
" transform="scale(0.015625)"/>
       </defs>
       <use xlink:href="#DejaVuSans-2212"/>
       <use xlink:href="#DejaVuSans-31" x="83.789062"/>
       <use xlink:href="#DejaVuSans-2e" x="147.412109"/>
       <use xlink:href="#DejaVuSans-30" x="179.199219"/>
      </g>
     </g>
    </g>
    <g id="ytick_2">
     <g id="line2d_8">
      <g>
       <use xlink:href="#m7458170e72" x="57.6" y="228.478242" style="stroke: #000000; stroke-width: 0.8"/>
      </g>
     </g>
     <g id="text_8">
      <!-- −0.5 -->
      <g transform="translate(26.317187 232.277461)scale(0.1 -0.1)">
       <defs>
        <path id="DejaVuSans-35" d="M 691 4666 
L 3169 4666 
L 3169 4134 
L 1269 4134 
L 1269 2991 
Q 1406 3038 1543 3061 
Q 1681 3084 1819 3084 
Q 2600 3084 3056 2656 
Q 3513 2228 3513 1497 
Q 3513 744 3044 326 
Q 2575 -91 1722 -91 
Q 1428 -91 1123 -41 
Q 819 9 494 109 
L 494 744 
Q 775 591 1075 516 
Q 1375 441 1709 441 
Q 2250 441 2565 725 
Q 2881 1009 2881 1497 
Q 2881 1984 2565 2268 
Q 2250 2553 1709 2553 
Q 1456 2553 1204 2497 
Q 953 2441 691 2322 
L 691 4666 
z
" transform="scale(0.015625)"/>
       </defs>
       <use xlink:href="#DejaVuSans-2212"/>
       <use xlink:href="#DejaVuSans-30" x="83.789062"/>
       <use xlink:href="#DejaVuSans-2e" x="147.412109"/>
       <use xlink:href="#DejaVuSans-35" x="179.199219"/>
      </g>
     </g>
    </g>
    <g id="ytick_3">
     <g id="line2d_9">
      <g>
       <use xlink:href="#m7458170e72" x="57.6" y="170.543233" style="stroke: #000000; stroke-width: 0.8"/>
      </g>
     </g>
     <g id="text_9">
      <!-- 0.0 -->
      <g transform="translate(34.696875 174.342452)scale(0.1 -0.1)">
       <use xlink:href="#DejaVuSans-30"/>
       <use xlink:href="#DejaVuSans-2e" x="63.623047"/>
       <use xlink:href="#DejaVuSans-30" x="95.410156"/>
      </g>
     </g>
    </g>
    <g id="ytick_4">
     <g id="line2d_10">
      <g>
       <use xlink:href="#m7458170e72" x="57.6" y="112.608225" style="stroke: #000000; stroke-width: 0.8"/>
      </g>
     </g>
     <g id="text_10">
      <!-- 0.5 -->
      <g transform="translate(34.696875 116.407443)scale(0.1 -0.1)">
       <use xlink:href="#DejaVuSans-30"/>
       <use xlink:href="#DejaVuSans-2e" x="63.623047"/>
       <use xlink:href="#DejaVuSans-35" x="95.410156"/>
      </g>
     </g>
    </g>
    <g id="ytick_5">
     <g id="line2d_11">
      <g>
       <use xlink:href="#m7458170e72" x="57.6" y="54.673216" style="stroke: #000000; stroke-width: 0.8"/>
      </g>
     </g>
     <g id="text_11">
      <!-- 1.0 -->
      <g transform="translate(34.696875 58.472435)scale(0.1 -0.1)">
       <use xlink:href="#DejaVuSans-31"/>
       <use xlink:href="#DejaVuSans-2e" x="63.623047"/>
       <use xlink:href="#DejaVuSans-30" x="95.410156"/>
      </g>
     </g>
    </g>
   </g>
   <g id="line2d_12">
    <path d="M 73.832727 162.063414 
L 74.159013 174.653641 
L 74.485299 173.593876 
L 74.811585 187.540359 
L 75.137871 182.220335 
L 75.464157 181.656791 
L 75.790443 164.728458 
L 76.116729 160.886527 
L 76.443015 174.139443 
L 76.769301 179.184475 
L 77.095587 173.168636 
L 77.421873 155.574877 
L 77.748159 159.091484 
L 78.074445 145.808155 
L 78.400731 143.274176 
L 78.727017 145.596074 
L 79.053303 161.186223 
L 79.379589 145.582636 
L 79.705875 156.052785 
L 80.032161 158.283741 
L 80.358447 166.19322 
L 80.684733 166.890771 
L 81.011019 148.160536 
L 81.337305 141.979451 
L 81.663591 138.637843 
L 81.989877 127.26081 
L 82.316163 125.457427 
L 82.642449 142.067381 
L 82.968735 149.415522 
L 83.295021 134.952344 
L 83.621307 135.893834 
L 83.947593 144.725223 
L 84.273878 119.826249 
L 84.600164 126.007176 
L 84.92645 144.238473 
L 85.579022 134.775655 
L 85.905308 143.11636 
L 86.55788 118.725264 
L 86.884166 124.951766 
L 87.210452 111.524736 
L 87.536738 124.402207 
L 87.863024 115.885794 
L 88.18931 104.370274 
L 88.515596 110.992074 
L 88.841882 99.806455 
L 89.168168 110.487852 
L 90.147026 127.130659 
L 90.473312 124.758549 
L 90.799598 131.342049 
L 91.125884 118.493813 
L 91.778456 136.268955 
L 92.104742 122.207017 
L 92.431028 140.961267 
L 93.409886 117.016353 
L 93.736172 105.263568 
L 94.062458 107.75165 
L 94.388744 117.946223 
L 94.71503 106.925674 
L 95.041316 103.931504 
L 95.367602 123.375161 
L 95.693888 92.063886 
L 96.34646 127.318182 
L 96.672746 106.815682 
L 96.999032 121.034053 
L 97.325317 114.441775 
L 97.651603 96.663729 
L 97.977889 92.494134 
L 98.630461 77.120279 
L 98.956747 82.968121 
L 99.283033 77.02745 
L 99.609319 63.856582 
L 99.935605 69.111483 
L 100.261891 68.453835 
L 100.588177 81.764717 
L 100.914463 82.377935 
L 101.240749 85.068934 
L 101.567035 85.266354 
L 102.219607 70.809702 
L 102.545893 71.649215 
L 102.872179 66.855399 
L 103.198465 75.649473 
L 103.524751 79.643522 
L 103.851037 73.491247 
L 104.177323 78.308855 
L 104.503609 71.752362 
L 104.829895 69.66244 
L 105.156181 71.316686 
L 105.482467 71.100516 
L 105.808753 69.908625 
L 106.135039 70.27099 
L 106.461325 74.562214 
L 106.787611 89.907082 
L 107.113897 87.847769 
L 107.440183 82.961912 
L 107.766469 69.899681 
L 108.092755 69.528788 
L 108.419041 60.926325 
L 108.745327 67.665561 
L 109.071613 70.67663 
L 109.397899 59.68843 
L 109.724185 76.904848 
L 110.050471 75.806076 
L 110.376757 90.010001 
L 110.703042 88.362468 
L 111.029328 76.713161 
L 111.355614 77.836216 
L 111.6819 70.42514 
L 112.008186 69.274342 
L 112.660758 58.164846 
L 112.987044 59.441803 
L 113.31333 59.786356 
L 113.639616 67.828406 
L 113.965902 80.122004 
L 114.292188 79.556716 
L 114.618474 80.558757 
L 114.94476 78.580297 
L 115.271046 73.616045 
L 115.597332 72.952403 
L 116.249904 64.549107 
L 116.57619 63.24335 
L 117.228762 67.166595 
L 117.555048 67.463659 
L 118.20762 73.218714 
L 118.533906 70.988122 
L 118.860192 71.934898 
L 119.83905 79.8388 
L 120.165336 77.435604 
L 120.491622 64.247898 
L 120.817908 59.572948 
L 121.144194 60.965028 
L 121.47048 71.146333 
L 121.796766 72.176007 
L 122.123052 68.77251 
L 122.449338 67.940594 
L 122.775624 73.690482 
L 123.10191 73.781688 
L 123.428196 70.373619 
L 123.754481 71.503801 
L 124.080767 62.171892 
L 124.407053 70.834316 
L 124.733339 71.469663 
L 125.059625 63.55306 
L 125.385911 60.131427 
L 125.712197 65.931967 
L 126.038483 65.850941 
L 126.364769 71.126816 
L 126.691055 82.095567 
L 127.017341 72.861522 
L 127.343627 83.791901 
L 127.669913 85.441368 
L 127.996199 75.874255 
L 128.322485 72.59432 
L 128.648771 62.836197 
L 128.975057 69.817419 
L 129.301343 66.056461 
L 129.953915 73.427784 
L 130.280201 65.996528 
L 130.606487 66.864944 
L 130.932773 66.430574 
L 131.259059 68.098985 
L 131.585345 66.169194 
L 132.564203 56.691263 
L 132.890489 57.079983 
L 133.216775 60.837315 
L 133.543061 62.172997 
L 133.869347 71.272223 
L 134.195633 68.149443 
L 134.521919 62.281531 
L 134.848205 66.013724 
L 135.500777 82.171137 
L 135.827063 87.658707 
L 136.153349 84.467768 
L 136.805921 58.406894 
L 137.458492 64.383927 
L 137.784778 75.138808 
L 138.111064 75.656835 
L 138.43735 75.704289 
L 138.763636 76.272892 
L 139.089922 79.698062 
L 139.416208 79.09349 
L 140.06878 83.295442 
L 140.395066 81.650961 
L 140.721352 76.47556 
L 141.047638 86.284549 
L 141.373924 87.627842 
L 141.70021 84.988268 
L 142.026496 92.181012 
L 142.352782 80.369018 
L 142.679068 85.41817 
L 143.005354 84.465295 
L 143.33164 76.207986 
L 143.657926 71.183877 
L 143.984212 63.293269 
L 144.310498 64.308129 
L 144.636784 70.613961 
L 144.96307 74.547717 
L 145.289356 87.038036 
L 145.615642 80.145789 
L 145.941928 79.221811 
L 146.268214 87.083819 
L 146.5945 84.241694 
L 146.920786 88.925926 
L 147.247072 98.200933 
L 147.573358 90.55475 
L 147.899644 92.951143 
L 148.22593 96.910363 
L 148.552216 86.025014 
L 149.204788 77.064441 
L 149.531074 89.152559 
L 149.85736 91.509061 
L 150.183646 98.171767 
L 150.509931 102.461942 
L 151.162503 92.526856 
L 151.488789 110.274272 
L 151.815075 99.069308 
L 152.141361 95.237953 
L 152.467647 102.380605 
L 152.793933 84.390699 
L 153.446505 96.613589 
L 153.772791 96.161497 
L 154.099077 116.313973 
L 154.425363 106.455348 
L 154.751649 112.865681 
L 155.077935 115.561515 
L 155.404221 101.124747 
L 155.730507 111.683245 
L 156.056793 102.922349 
L 156.383079 107.074997 
L 156.709365 120.609949 
L 157.035651 109.540392 
L 157.361937 110.91149 
L 157.688223 119.388315 
L 158.014509 101.82069 
L 158.340795 109.410503 
L 158.667081 111.6518 
L 158.993367 111.938498 
L 159.319653 116.957573 
L 159.645939 113.780419 
L 159.972225 113.985318 
L 160.298511 126.08864 
L 160.624797 122.52813 
L 160.951083 126.809623 
L 161.277369 141.36891 
L 161.603655 124.893969 
L 161.929941 133.008889 
L 162.256227 132.086824 
L 162.582513 131.79956 
L 162.908799 147.175476 
L 163.235085 130.905071 
L 163.887656 140.329975 
L 164.213942 150.127813 
L 164.540228 148.990027 
L 164.866514 160.133869 
L 165.1928 160.208713 
L 165.519086 141.593822 
L 165.845372 154.166709 
L 166.171658 144.759007 
L 166.497944 131.2232 
L 166.82423 144.060243 
L 167.150516 132.532928 
L 167.476802 135.516451 
L 167.803088 152.532567 
L 168.129374 141.993257 
L 168.45566 152.58883 
L 168.781946 152.942489 
L 169.108232 147.155575 
L 169.434518 136.955657 
L 169.760804 145.545818 
L 170.08709 145.229987 
L 170.413376 140.736671 
L 170.739662 142.292949 
L 171.065948 140.889054 
L 171.392234 134.444383 
L 171.71852 146.218585 
L 172.044806 147.08676 
L 172.371092 180.57525 
L 173.023664 184.916421 
L 173.34995 195.357552 
L 173.676236 195.483742 
L 174.002522 195.998624 
L 174.328808 194.668045 
L 174.98138 165.388826 
L 175.307666 179.078777 
L 175.633952 156.916027 
L 175.960238 164.90048 
L 176.286524 170.020426 
L 176.61281 154.844205 
L 176.939095 172.389253 
L 177.265381 171.440263 
L 177.591667 180.757762 
L 177.917953 160.749235 
L 178.244239 169.616181 
L 178.570525 161.007902 
L 178.896811 171.398759 
L 179.223097 174.77595 
L 179.549383 171.43989 
L 179.875669 160.718793 
L 180.201955 189.446993 
L 180.854527 217.65121 
L 181.180813 225.452932 
L 181.507099 216.58438 
L 181.833385 211.221056 
L 182.159671 190.608116 
L 182.485957 183.841818 
L 182.812243 194.416652 
L 183.138529 212.107802 
L 183.464815 219.629021 
L 183.791101 216.483394 
L 184.117387 214.430808 
L 184.443673 207.074928 
L 185.096245 210.712158 
L 185.422531 210.561854 
L 186.075103 224.847518 
L 186.727675 222.52389 
L 187.053961 217.422843 
L 187.380247 218.236243 
L 187.706533 226.135974 
L 188.359105 231.91297 
L 188.685391 228.097962 
L 189.011677 228.667346 
L 189.337963 228.980392 
L 189.664249 225.108627 
L 189.990534 222.675899 
L 190.31682 216.428254 
L 190.643106 216.424787 
L 191.295678 218.647581 
L 191.621964 225.887917 
L 191.94825 225.057914 
L 192.600822 236.517882 
L 192.927108 235.388473 
L 193.253394 237.825828 
L 193.57968 229.401288 
L 193.905966 225.012014 
L 194.558538 228.492075 
L 194.884824 227.348881 
L 195.21111 224.691682 
L 195.537396 220.813605 
L 195.863682 227.092433 
L 196.84254 257.781528 
L 197.168826 254.8233 
L 197.495112 240.103038 
L 197.821398 230.471689 
L 198.147684 232.910653 
L 198.47397 245.946708 
L 198.800256 251.091804 
L 199.126542 238.24765 
L 199.452828 235.786143 
L 199.779114 238.530432 
L 200.1054 242.651282 
L 200.757972 245.155588 
L 201.410544 244.312712 
L 201.73683 240.805529 
L 202.063116 242.417398 
L 202.389402 245.958436 
L 202.715688 247.261547 
L 203.041974 249.468636 
L 203.368259 250.595932 
L 203.694545 259.757267 
L 204.020831 262.782902 
L 205.325975 251.593553 
L 205.652261 251.343459 
L 205.978547 248.814284 
L 206.304833 252.395689 
L 206.631119 261.364923 
L 206.957405 265.938321 
L 207.283691 282.33245 
L 207.609977 285.759595 
L 207.936263 284.325815 
L 208.262549 267.923439 
L 208.588835 257.588329 
L 208.915121 256.073923 
L 209.241407 266.166274 
L 209.567693 267.594433 
L 209.893979 260.648827 
L 210.220265 258.525761 
L 210.872837 273.603435 
L 211.199123 276.100192 
L 211.525409 270.35442 
L 211.851695 271.417631 
L 212.177981 274.767452 
L 212.504267 284.463915 
L 212.830553 287.116763 
L 213.156839 271.803077 
L 213.483125 269.814934 
L 213.809411 269.687124 
L 214.135697 270.760612 
L 214.461983 267.599958 
L 214.788269 255.583017 
L 215.114555 254.694537 
L 215.440841 257.01217 
L 215.767127 263.172256 
L 216.093413 263.37978 
L 216.419698 258.664455 
L 216.745984 260.753555 
L 217.07227 266.321336 
L 217.398556 261.225207 
L 218.051128 254.907986 
L 218.377414 263.884112 
L 219.029986 272.561647 
L 219.356272 270.448775 
L 220.008844 295.488 
L 220.661416 284.213157 
L 220.987702 271.720836 
L 221.313988 285.295997 
L 221.640274 292.207906 
L 221.96656 291.858056 
L 222.292846 293.956135 
L 222.619132 287.603581 
L 222.945418 285.410449 
L 223.271704 282.061761 
L 223.59799 282.11443 
L 224.576848 266.947069 
L 224.903134 269.584316 
L 225.555706 282.235153 
L 225.881992 287.237045 
L 226.208278 289.578312 
L 226.534564 285.784693 
L 226.86085 273.879912 
L 227.187136 276.241276 
L 227.513422 277.598271 
L 227.839708 275.239559 
L 228.165994 270.001531 
L 228.49228 282.486532 
L 228.818566 271.87855 
L 229.471138 277.60591 
L 229.797423 273.226885 
L 230.123709 274.543229 
L 230.449995 269.989887 
L 230.776281 270.56407 
L 231.428853 279.463536 
L 231.755139 273.860532 
L 232.081425 261.169141 
L 232.407711 256.998481 
L 232.733997 260.534858 
L 233.060283 260.874334 
L 233.386569 262.744033 
L 233.712855 266.532699 
L 234.039141 268.215124 
L 234.365427 276.76228 
L 234.691713 272.013211 
L 235.017999 263.818474 
L 235.344285 258.534919 
L 235.670571 267.577622 
L 236.323143 276.728121 
L 236.649429 275.540622 
L 236.975715 266.331571 
L 237.302001 273.7843 
L 237.628287 278.556671 
L 237.954573 276.868652 
L 238.607145 255.455566 
L 238.933431 252.081007 
L 239.259717 257.604158 
L 239.586003 266.360302 
L 239.912289 270.112972 
L 240.238575 272.300972 
L 240.564861 270.089491 
L 240.891147 260.889929 
L 241.217433 255.201715 
L 241.543719 245.403659 
L 241.870005 249.68855 
L 242.522577 263.611489 
L 242.848862 264.657904 
L 243.175148 255.461105 
L 243.501434 253.336734 
L 243.82772 253.113982 
L 244.480292 280.010784 
L 244.806578 276.697415 
L 245.45915 268.868178 
L 245.785436 270.192424 
L 246.111722 270.863904 
L 246.438008 264.239183 
L 246.764294 248.496603 
L 247.09058 239.414188 
L 247.416866 240.880864 
L 247.743152 244.384041 
L 248.069438 251.910053 
L 248.72201 272.554782 
L 249.048296 275.207223 
L 249.374582 267.338634 
L 249.700868 252.068071 
L 250.027154 248.734197 
L 250.679726 236.785311 
L 251.006012 236.767742 
L 251.332298 240.164464 
L 251.658584 249.868385 
L 251.98487 249.675794 
L 252.311156 251.934094 
L 252.637442 247.989094 
L 252.963728 242.006488 
L 253.290014 239.769957 
L 253.6163 239.976168 
L 253.942586 236.27707 
L 254.268872 228.541746 
L 254.595158 226.658346 
L 254.921444 230.157918 
L 255.24773 235.259344 
L 255.574016 245.940797 
L 255.900302 247.789389 
L 256.226587 256.560506 
L 256.552873 260.855356 
L 256.879159 252.536973 
L 257.205445 249.617345 
L 257.858017 246.398345 
L 258.184303 245.840647 
L 258.510589 240.29248 
L 259.163161 225.325633 
L 259.489447 219.679465 
L 259.815733 210.878319 
L 260.142019 218.403772 
L 260.468305 220.746917 
L 260.794591 232.178555 
L 261.120877 232.543054 
L 261.447163 224.355672 
L 261.773449 224.124508 
L 262.099735 217.964442 
L 262.426021 220.66288 
L 262.752307 218.434671 
L 263.078593 212.198103 
L 263.731165 221.95566 
L 264.057451 218.486193 
L 264.710023 201.299369 
L 265.036309 210.421358 
L 265.362595 214.335776 
L 265.688881 214.547657 
L 266.015167 215.409865 
L 266.341453 211.499114 
L 266.667739 225.548585 
L 266.994025 224.452403 
L 267.320311 230.077355 
L 267.646597 226.205604 
L 267.972883 215.590488 
L 268.625455 206.893097 
L 268.951741 209.734932 
L 269.278026 196.760771 
L 269.604312 199.65437 
L 269.930598 201.540782 
L 270.256884 205.247863 
L 270.58317 207.486314 
L 270.909456 202.506578 
L 271.235742 191.472883 
L 271.562028 189.756244 
L 272.2146 202.717092 
L 272.540886 207.118728 
L 272.867172 189.947661 
L 273.519744 188.303194 
L 273.84603 192.561313 
L 274.172316 187.85787 
L 274.498602 189.559809 
L 274.824888 190.089491 
L 275.151174 192.657532 
L 275.47746 190.916252 
L 275.803746 171.434386 
L 276.130032 162.655953 
L 276.456318 172.908969 
L 276.782604 150.841975 
L 277.10889 168.451381 
L 277.435176 169.792367 
L 277.761462 161.373214 
L 278.087748 176.046456 
L 278.414034 162.170432 
L 278.74032 165.422274 
L 279.066606 183.917232 
L 279.392892 176.846165 
L 279.719178 191.824104 
L 280.045464 174.738507 
L 280.698036 167.202182 
L 281.024322 157.694441 
L 281.350608 158.467225 
L 281.676894 151.224113 
L 282.00318 153.185751 
L 282.329466 162.474918 
L 282.655751 151.619794 
L 282.982037 170.717896 
L 283.308323 155.484118 
L 283.634609 132.586349 
L 283.960895 140.341512 
L 284.287181 141.989518 
L 284.613467 129.109057 
L 284.939753 131.038717 
L 285.266039 150.913346 
L 285.592325 128.21162 
L 285.918611 140.775827 
L 286.244897 147.162399 
L 286.571183 159.939043 
L 286.897469 149.662861 
L 287.223755 154.652893 
L 287.876327 145.727418 
L 288.202613 142.457798 
L 288.528899 142.521202 
L 288.855185 161.593382 
L 289.181471 132.961218 
L 289.507757 134.202134 
L 289.834043 135.905098 
L 290.160329 106.549634 
L 290.486615 120.671215 
L 290.812901 114.187599 
L 291.139187 111.991954 
L 291.465473 108.667258 
L 291.791759 100.095225 
L 292.444331 114.987159 
L 292.770617 108.877952 
L 293.096903 111.875512 
L 293.423189 123.04959 
L 293.749475 102.18369 
L 294.075761 112.558416 
L 294.402047 110.883022 
L 294.728333 100.285151 
L 295.054619 108.795938 
L 295.380905 97.05374 
L 296.033476 109.111318 
L 296.359762 101.153602 
L 296.686048 98.762167 
L 297.012334 116.945172 
L 297.33862 106.05071 
L 297.664906 105.928183 
L 297.991192 115.948439 
L 298.317478 94.8133 
L 298.643764 96.173624 
L 298.97005 93.587277 
L 299.296336 96.142663 
L 299.622622 126.179919 
L 299.948908 112.440095 
L 300.275194 117.106713 
L 300.60148 123.838918 
L 300.927766 100.374734 
L 301.580338 94.49015 
L 301.906624 91.92196 
L 302.23291 90.263459 
L 302.559196 91.004211 
L 302.885482 96.894126 
L 303.211768 93.936865 
L 303.538054 95.590897 
L 303.86434 94.360966 
L 304.190626 92.642386 
L 304.516912 107.763046 
L 304.843198 97.684335 
L 305.169484 98.031595 
L 305.49577 96.091224 
L 305.822056 77.987556 
L 306.148342 86.885074 
L 306.474628 82.638527 
L 306.800914 87.72947 
L 307.1272 89.127461 
L 307.453486 82.549745 
L 307.779772 91.992322 
L 308.106058 95.046784 
L 308.432344 104.538065 
L 308.75863 102.297079 
L 309.084915 92.440899 
L 309.411201 86.73546 
L 309.737487 77.406065 
L 310.063773 90.533092 
L 310.390059 91.996818 
L 311.368917 68.829287 
L 311.695203 67.244347 
L 312.021489 78.521448 
L 312.347775 75.69442 
L 312.674061 75.17691 
L 313.000347 72.887614 
L 313.326633 61.876706 
L 313.652919 57.02373 
L 313.979205 58.06692 
L 314.631777 76.749157 
L 314.958063 73.467641 
L 315.610635 61.930479 
L 315.936921 67.29245 
L 316.589493 73.796412 
L 316.915779 69.979906 
L 317.242065 69.471016 
L 317.568351 66.009332 
L 318.220923 77.152166 
L 318.547209 76.508601 
L 318.873495 77.411445 
L 319.199781 77.138947 
L 319.526067 75.423261 
L 319.852353 71.854114 
L 320.178639 77.765149 
L 320.504925 73.070551 
L 320.831211 61.021384 
L 321.157497 59.286209 
L 321.483783 58.482098 
L 321.810069 64.142949 
L 322.136354 62.100052 
L 322.46264 66.084549 
L 322.788926 80.559883 
L 323.441498 87.532251 
L 323.767784 83.849528 
L 324.09407 75.990739 
L 324.420356 73.798698 
L 324.746642 79.868878 
L 325.072928 81.876082 
L 325.399214 82.21531 
L 325.7255 78.414847 
L 326.051786 68.299913 
L 326.378072 76.624635 
L 326.704358 67.89008 
L 327.030644 70.192913 
L 327.35693 67.349648 
L 327.683216 58.45394 
L 328.009502 55.341223 
L 328.662074 65.992964 
L 328.98836 62.252048 
L 329.314646 71.986247 
L 329.640932 66.207331 
L 330.293504 70.877164 
L 330.61979 64.927473 
L 330.946076 65.314107 
L 331.272362 59.185638 
L 331.598648 70.878048 
L 332.25122 75.234903 
L 332.577506 89.36857 
L 332.903792 85.112327 
L 333.230078 88.034256 
L 333.556364 83.40678 
L 333.88265 71.647316 
L 334.208936 76.214485 
L 334.535222 76.629621 
L 334.861508 79.592767 
L 335.187794 78.366634 
L 335.514079 79.673337 
L 335.840365 75.053099 
L 336.166651 81.433976 
L 336.492937 78.539825 
L 337.145509 61.459077 
L 337.471795 55.461808 
L 338.124367 69.73149 
L 338.450653 72.738733 
L 338.776939 81.733762 
L 339.429511 84.132884 
L 339.755797 81.858719 
L 340.082083 69.196687 
L 340.408369 64.946045 
L 341.060941 81.853809 
L 341.387227 84.478362 
L 341.713513 82.389641 
L 342.039799 83.739123 
L 342.366085 73.949582 
L 342.692371 71.307791 
L 343.018657 65.248607 
L 343.344943 54.360605 
L 343.671229 61.053098 
L 343.997515 63.810696 
L 344.323801 79.323818 
L 344.650087 77.445542 
L 344.976373 73.698542 
L 345.302659 74.321091 
L 345.628945 70.744582 
L 345.955231 69.876006 
L 346.281517 66.823982 
L 346.607803 78.884834 
L 346.934089 79.808205 
L 347.260375 76.17373 
L 347.586661 79.782886 
L 347.912947 74.198516 
L 348.239233 79.889984 
L 348.565519 83.449538 
L 348.891804 80.94164 
L 349.21809 96.837142 
L 349.870662 93.863547 
L 350.196948 94.964446 
L 350.523234 74.26526 
L 350.84952 73.681041 
L 351.175806 90.916797 
L 351.502092 83.363933 
L 351.828378 85.759864 
L 352.154664 83.369299 
L 352.48095 72.746019 
L 352.807236 82.771302 
L 353.459808 89.725058 
L 353.786094 108.036069 
L 354.11238 88.468523 
L 354.438666 108.478507 
L 354.764952 107.502482 
L 355.091238 97.725083 
L 355.417524 97.192552 
L 355.74381 85.517808 
L 356.070096 99.69703 
L 356.396382 92.454816 
L 356.722668 103.068268 
L 357.048954 99.293517 
L 357.37524 101.031725 
L 357.701526 99.621529 
L 358.027812 99.950999 
L 358.354098 104.923124 
L 358.680384 104.28228 
L 359.00667 115.25292 
L 359.332956 107.694168 
L 359.659242 117.443113 
L 359.985528 118.692555 
L 360.311814 108.742483 
L 360.6381 110.559285 
L 361.290672 100.378905 
L 361.616958 96.990257 
L 361.943243 86.62703 
L 362.269529 94.79113 
L 362.595815 91.990382 
L 362.922101 91.360298 
L 363.248387 103.802742 
L 363.574673 98.216466 
L 363.900959 108.873041 
L 364.553531 120.129568 
L 364.879817 122.264547 
L 365.206103 125.97991 
L 365.532389 125.870581 
L 365.858675 113.817876 
L 366.184961 111.129449 
L 366.511247 134.997947 
L 366.837533 122.863912 
L 367.163819 128.123363 
L 367.490105 135.589866 
L 367.816391 118.163391 
L 368.142677 139.231068 
L 368.468963 133.940831 
L 368.795249 134.935496 
L 369.121535 151.431431 
L 369.447821 131.274694 
L 369.774107 134.649706 
L 370.100393 153.15697 
L 370.426679 161.257178 
L 370.752965 166.399761 
L 371.079251 166.954163 
L 371.405537 174.459647 
L 371.731823 144.546829 
L 372.058109 139.463347 
L 372.384395 150.177594 
L 372.710681 126.841959 
L 373.036967 146.959986 
L 373.363253 144.04546 
L 373.689539 135.181899 
L 374.015825 156.73157 
L 374.342111 137.256955 
L 374.668397 157.328442 
L 374.994683 156.113101 
L 375.320968 161.970874 
L 375.647254 162.73361 
L 376.299826 145.225591 
L 376.626112 147.223665 
L 376.952398 165.120594 
L 377.278684 156.891235 
L 377.60497 190.273087 
L 377.931256 179.898389 
L 377.931256 179.898389 
" clip-path="url(#p97be5401dc)" style="fill: none; stroke: #1f77b4; stroke-width: 1.5; stroke-linecap: square"/>
   </g>
   <g id="line2d_13">
    <path d="M 74.811585 155.97945 
L 75.137871 178.841028 
L 75.790443 198.404202 
L 76.116729 176.719764 
L 76.443015 182.971194 
L 77.095587 159.481653 
L 77.748159 193.252211 
L 78.074445 181.614313 
L 78.400731 134.744476 
L 79.053303 153.534147 
L 79.379589 153.965679 
L 79.705875 135.680171 
L 80.032161 155.178037 
L 80.358447 146.370938 
L 80.684733 161.452843 
L 81.011019 159.688843 
L 81.337305 169.176455 
L 81.663591 170.850478 
L 81.989877 137.687769 
L 82.316163 123.677136 
L 82.968735 133.812517 
L 83.295021 130.693011 
L 83.947593 153.494397 
L 84.273878 128.562789 
L 84.600164 123.013021 
L 84.92645 139.288557 
L 85.252736 122.951816 
L 85.579022 125.759523 
L 85.905308 142.158198 
L 86.231594 151.083846 
L 86.55788 129.652528 
L 86.884166 133.272213 
L 87.210452 113.472684 
L 87.863024 126.697546 
L 88.18931 109.021749 
L 88.515596 119.937777 
L 88.841882 112.522606 
L 89.168168 100.329662 
L 89.494454 105.892671 
L 89.82074 99.22906 
L 90.147026 122.422089 
L 90.473312 119.871196 
L 90.799598 123.820171 
L 91.125884 121.548099 
L 91.45217 125.546686 
L 91.778456 133.627481 
L 92.104742 109.964534 
L 92.757314 141.640946 
L 93.0836 130.639386 
L 93.409886 139.679835 
L 93.736172 117.962605 
L 94.062458 121.48043 
L 94.388744 108.296012 
L 95.041316 101.770204 
L 95.367602 128.549436 
L 95.693888 101.183949 
L 96.020174 97.181391 
L 96.34646 122.296918 
L 96.672746 96.881743 
L 97.325317 128.549471 
L 97.651603 106.387983 
L 97.977889 117.96429 
L 98.304175 105.987178 
L 98.630461 87.792297 
L 98.956747 85.28324 
L 99.283033 92.883185 
L 99.609319 83.163944 
L 99.935605 81.30529 
L 100.261891 71.946176 
L 100.588177 69.709597 
L 100.914463 80.985406 
L 101.240749 75.716078 
L 101.567035 89.041926 
L 101.893321 84.759936 
L 102.219607 90.719854 
L 103.198465 68.332511 
L 103.524751 84.781884 
L 103.851037 70.929058 
L 104.177323 84.077771 
L 104.503609 82.563834 
L 104.829895 80.377368 
L 105.156181 76.623599 
L 105.482467 76.3146 
L 105.808753 76.972593 
L 106.135039 78.865918 
L 106.461325 66.41281 
L 106.787611 77.235091 
L 107.440183 84.660456 
L 107.766469 95.358083 
L 108.419041 75.846948 
L 108.745327 63.070821 
L 109.071613 85.147888 
L 109.397899 70.267744 
L 109.724185 73.861933 
L 110.050471 66.608544 
L 110.376757 71.123052 
L 110.703042 94.677741 
L 111.029328 82.557722 
L 111.355614 92.867942 
L 111.6819 82.01019 
L 112.008186 81.701585 
L 112.334472 79.815388 
L 112.660758 72.375864 
L 112.987044 70.931151 
L 113.31333 68.549689 
L 113.639616 60.604722 
L 113.965902 70.539358 
L 114.292188 72.344965 
L 114.618474 78.048332 
L 114.94476 87.498962 
L 115.271046 81.978587 
L 115.597332 82.413089 
L 116.249904 78.814265 
L 116.57619 72.234532 
L 116.902476 72.382674 
L 117.228762 72.299652 
L 117.555048 68.926661 
L 117.881334 71.983595 
L 118.20762 76.523304 
L 118.533906 72.626932 
L 118.860192 75.028043 
L 119.186478 81.435413 
L 119.512764 74.247869 
L 119.83905 73.727245 
L 120.165336 81.8599 
L 120.491622 87.213231 
L 121.47048 66.551442 
L 121.796766 72.594017 
L 122.123052 71.466963 
L 122.449338 78.988513 
L 122.775624 73.892784 
L 123.10191 72.5632 
L 123.428196 75.392438 
L 123.754481 84.159128 
L 124.080767 72.430756 
L 124.407053 69.349277 
L 124.733339 79.532384 
L 125.059625 73.906044 
L 125.385911 74.26488 
L 125.712197 72.781021 
L 126.038483 66.969445 
L 126.364769 66.070771 
L 126.691055 78.114413 
L 127.017341 75.456039 
L 127.343627 71.809727 
L 127.669913 89.404456 
L 127.996199 80.332379 
L 128.322485 90.181308 
L 128.648771 81.669111 
L 129.301343 73.338947 
L 129.627629 64.991123 
L 129.953915 81.592285 
L 130.280201 74.058393 
L 130.606487 76.606278 
L 130.932773 73.429227 
L 131.259059 73.945369 
L 131.585345 71.885276 
L 131.911631 74.118989 
L 132.237917 74.106855 
L 132.564203 67.595495 
L 132.890489 66.972939 
L 133.216775 70.771164 
L 133.543061 56.820378 
L 133.869347 67.601621 
L 134.195633 73.871775 
L 134.521919 74.472306 
L 134.848205 69.336562 
L 135.174491 75.149526 
L 135.500777 66.383755 
L 136.153349 85.208692 
L 136.479635 92.138316 
L 137.132206 80.936046 
L 137.458492 63.140203 
L 137.784778 67.576606 
L 138.111064 75.616592 
L 138.43735 76.410896 
L 138.763636 77.878587 
L 139.089922 80.868412 
L 139.416208 82.810945 
L 139.742494 77.091942 
L 140.06878 85.067712 
L 140.721352 86.359421 
L 141.047638 79.301884 
L 141.373924 86.154882 
L 141.70021 81.361072 
L 142.026496 95.642315 
L 142.352782 88.459924 
L 142.679068 83.9995 
L 143.005354 92.96421 
L 143.33164 84.999732 
L 143.657926 88.974029 
L 143.984212 80.849488 
L 144.310498 78.641881 
L 144.636784 69.812032 
L 144.96307 69.788868 
L 145.289356 74.132339 
L 145.615642 81.620856 
L 145.941928 77.372563 
L 146.268214 95.532124 
L 146.5945 78.421429 
L 147.247072 90.062103 
L 147.573358 93.691274 
L 147.899644 85.0182 
L 148.22593 102.934553 
L 148.552216 92.825523 
L 148.878502 97.465699 
L 149.85736 79.300489 
L 150.183646 83.145643 
L 150.509931 102.010692 
L 151.162503 96.442711 
L 151.488789 98.808191 
L 151.815075 99.261465 
L 152.141361 89.840823 
L 152.467647 118.09326 
L 152.793933 98.0955 
L 153.120219 94.084379 
L 153.446505 93.965893 
L 153.772791 88.72216 
L 154.425363 101.642961 
L 154.751649 95.135158 
L 155.077935 123.94028 
L 155.404221 105.019081 
L 155.730507 115.818695 
L 156.056793 105.958392 
L 156.383079 100.799877 
L 156.709365 110.045511 
L 157.035651 106.33305 
L 157.361937 108.414263 
L 157.688223 123.186406 
L 158.014509 105.233967 
L 158.340795 107.448246 
L 158.667081 117.999789 
L 158.993367 101.848937 
L 159.319653 107.528491 
L 159.645939 109.175645 
L 159.972225 121.741924 
L 160.298511 119.008042 
L 160.624797 107.241751 
L 160.951083 104.273391 
L 161.277369 134.991428 
L 161.603655 140.80941 
L 161.929941 125.136798 
L 162.256227 129.551401 
L 162.582513 112.055147 
L 162.908799 142.939809 
L 163.235085 141.287525 
L 163.56137 134.61102 
L 163.887656 136.422176 
L 164.213942 124.589653 
L 165.1928 159.935096 
L 165.519086 146.696473 
L 165.845372 157.154807 
L 166.171658 163.988298 
L 166.497944 137.547466 
L 166.82423 146.413532 
L 167.150516 137.657561 
L 167.476802 131.887499 
L 167.803088 141.144231 
L 168.129374 131.908442 
L 168.45566 134.37928 
L 168.781946 156.294219 
L 169.108232 150.770106 
L 169.434518 149.747261 
L 169.760804 142.931296 
L 170.08709 143.531094 
L 170.413376 133.062552 
L 170.739662 146.764376 
L 171.065948 147.167261 
L 171.392234 142.919806 
L 171.71852 130.70797 
L 172.044806 134.593374 
L 172.371092 133.06681 
L 172.697378 158.941694 
L 173.023664 154.461884 
L 173.34995 191.685178 
L 173.676236 193.858371 
L 174.002522 191.501071 
L 174.328808 205.368172 
L 174.655094 205.427878 
L 174.98138 195.342112 
L 175.307666 198.14332 
L 175.633952 189.24793 
L 175.960238 157.65407 
L 176.286524 185.29956 
L 176.61281 163.235931 
L 176.939095 163.024143 
L 177.265381 169.744578 
L 177.591667 153.980675 
L 177.917953 182.792685 
L 178.244239 185.026322 
L 178.570525 189.781476 
L 178.896811 145.361669 
L 179.223097 168.39441 
L 179.549383 181.792356 
L 179.875669 184.800145 
L 180.201955 166.486393 
L 180.528241 168.465073 
L 180.854527 168.279594 
L 181.180813 208.32149 
L 181.507099 218.048175 
L 181.833385 219.082628 
L 182.159671 229.894846 
L 183.138529 189.886951 
L 183.464815 197.06783 
L 184.117387 221.911804 
L 184.443673 221.260193 
L 184.769959 213.112081 
L 185.096245 219.111055 
L 185.422531 211.673466 
L 185.748817 209.388507 
L 186.075103 217.777749 
L 186.401389 218.154907 
L 186.727675 222.556212 
L 187.053961 229.128244 
L 187.380247 223.100504 
L 188.032819 218.901198 
L 188.685391 232.49176 
L 189.011677 226.411663 
L 189.337963 232.261142 
L 189.664249 228.562182 
L 189.990534 229.493088 
L 190.31682 228.222139 
L 190.643106 224.150138 
L 190.969392 222.983082 
L 191.295678 216.062892 
L 191.621964 220.800345 
L 191.94825 222.937265 
L 192.274536 219.210735 
L 192.600822 232.228074 
L 192.927108 226.689784 
L 193.253394 231.803745 
L 193.57968 240.310582 
L 193.905966 232.938921 
L 194.232252 234.247461 
L 194.558538 225.293919 
L 194.884824 226.480927 
L 195.21111 231.377517 
L 195.537396 229.123858 
L 195.863682 222.899059 
L 196.189968 226.764884 
L 196.516254 223.636496 
L 197.168826 241.936595 
L 197.495112 252.948601 
L 197.821398 252.963077 
L 198.147684 242.794825 
L 198.47397 225.650261 
L 199.126542 246.980906 
L 199.452828 241.029337 
L 199.779114 242.497063 
L 200.1054 232.026235 
L 200.431686 239.340179 
L 200.757972 238.924525 
L 201.084258 241.109541 
L 201.410544 240.993638 
L 201.73683 245.446126 
L 202.063116 240.363085 
L 202.389402 240.191751 
L 202.715688 238.016189 
L 203.041974 244.509212 
L 203.368259 244.479625 
L 203.694545 242.043769 
L 204.020831 248.616084 
L 204.347117 250.01699 
L 204.673403 259.540116 
L 205.325975 249.921972 
L 205.652261 252.846905 
L 205.978547 250.67394 
L 206.304833 242.827603 
L 206.631119 248.665983 
L 206.957405 247.792324 
L 207.283691 249.264781 
L 207.609977 261.786171 
L 207.936263 263.986437 
L 208.262549 281.034726 
L 208.915121 267.339918 
L 209.241407 249.102743 
L 209.893979 260.101247 
L 210.220265 259.914719 
L 210.546551 254.997741 
L 210.872837 253.886379 
L 211.199123 256.685429 
L 211.525409 266.3616 
L 211.851695 266.834274 
L 212.177981 265.570846 
L 212.504267 258.28075 
L 213.156839 278.776626 
L 213.483125 268.660558 
L 213.809411 274.228615 
L 214.135697 257.728335 
L 214.461983 265.51844 
L 214.788269 265.143852 
L 215.114555 261.720036 
L 215.767127 245.60382 
L 216.093413 256.354778 
L 216.419698 256.912193 
L 216.745984 254.503188 
L 217.07227 255.677579 
L 217.398556 254.427605 
L 217.724842 257.232332 
L 218.051128 263.116273 
L 218.377414 248.1022 
L 219.029986 254.681249 
L 219.356272 266.69656 
L 219.682558 256.958549 
L 220.008844 265.859119 
L 220.33513 270.135404 
L 220.661416 283.993258 
L 220.987702 284.519387 
L 221.313988 266.237189 
L 221.640274 274.479179 
L 221.96656 268.994952 
L 222.292846 280.237189 
L 222.619132 282.795082 
L 222.945418 277.957873 
L 223.271704 283.499934 
L 223.59799 273.635177 
L 223.924276 273.262536 
L 224.250562 272.348917 
L 224.576848 275.660241 
L 224.903134 260.414604 
L 225.22942 261.54873 
L 226.208278 267.936617 
L 226.86085 286.526184 
L 227.187136 266.22205 
L 227.513422 272.271966 
L 227.839708 274.737672 
L 228.165994 263.663453 
L 228.49228 262.898018 
L 228.818566 275.465481 
L 229.144852 257.350362 
L 229.471138 276.510998 
L 229.797423 264.528782 
L 230.123709 263.421232 
L 230.449995 271.338001 
L 230.776281 267.454965 
L 231.102567 261.361608 
L 231.428853 259.644251 
L 231.755139 271.154553 
L 232.081425 271.619008 
L 232.407711 263.394518 
L 232.733997 261.588897 
L 233.060283 252.749352 
L 233.386569 251.161193 
L 233.712855 259.798526 
L 234.039141 255.20695 
L 234.365427 254.090884 
L 234.691713 265.931028 
L 235.017999 267.771623 
L 235.344285 265.318266 
L 235.670571 257.384383 
L 235.996857 257.641066 
L 236.323143 252.942047 
L 236.649429 268.710892 
L 236.975715 271.913441 
L 237.302001 260.357294 
L 237.628287 265.3423 
L 237.954573 260.757506 
L 238.280859 273.283268 
L 238.933431 263.731881 
L 239.259717 251.660269 
L 239.586003 249.412626 
L 239.912289 249.683266 
L 240.238575 258.401018 
L 240.564861 263.831402 
L 240.891147 261.169237 
L 241.217433 265.021401 
L 241.543719 263.232163 
L 241.870005 245.303903 
L 242.196291 248.629413 
L 242.522577 243.074865 
L 243.175148 256.522037 
L 243.501434 260.054435 
L 243.82772 255.000601 
L 244.154006 242.664066 
L 244.480292 253.876903 
L 244.806578 258.686431 
L 245.45915 273.094033 
L 245.785436 264.430946 
L 246.111722 259.828776 
L 246.764294 268.100934 
L 247.743152 239.122476 
L 248.069438 237.65082 
L 248.395724 243.186086 
L 248.72201 243.489995 
L 249.048296 251.168562 
L 249.374582 267.698747 
L 249.700868 272.038046 
L 250.027154 254.568999 
L 250.35344 255.856965 
L 250.679726 247.27315 
L 251.006012 244.585984 
L 251.332298 231.857187 
L 251.98487 241.100777 
L 252.311156 237.680863 
L 252.637442 250.945478 
L 252.963728 247.166888 
L 253.290014 246.244553 
L 253.6163 240.193325 
L 253.942586 239.983951 
L 254.268872 238.178372 
L 254.595158 238.323669 
L 255.24773 223.839005 
L 255.900302 236.313356 
L 256.226587 232.548275 
L 256.552873 250.121242 
L 257.205445 250.473309 
L 257.531731 255.959042 
L 257.858017 244.34953 
L 258.184303 243.324683 
L 258.510589 247.828044 
L 258.836875 243.757355 
L 259.163161 237.993315 
L 259.489447 236.247856 
L 260.142019 222.147105 
L 260.468305 219.771279 
L 260.794591 211.959017 
L 261.120877 229.092828 
L 261.447163 224.935035 
L 261.773449 234.782582 
L 262.099735 229.939317 
L 262.426021 219.027806 
L 262.752307 228.179029 
L 263.078593 221.502656 
L 263.404879 219.763364 
L 263.731165 218.973314 
L 264.057451 215.622699 
L 264.383737 225.194854 
L 264.710023 225.819488 
L 265.036309 210.738195 
L 265.362595 208.408732 
L 265.688881 211.474948 
L 266.015167 222.297885 
L 266.341453 212.86805 
L 266.667739 213.954992 
L 266.994025 226.22776 
L 267.320311 212.878866 
L 267.646597 231.086938 
L 267.972883 228.79126 
L 268.299169 231.087331 
L 268.625455 215.706771 
L 268.951741 216.666745 
L 269.278026 219.352088 
L 269.604312 206.331704 
L 269.930598 211.370351 
L 270.256884 201.539877 
L 270.909456 209.350391 
L 271.235742 212.096358 
L 271.562028 210.839733 
L 271.888314 203.275349 
L 272.2146 190.490397 
L 272.540886 199.089841 
L 272.867172 213.631207 
L 273.193458 205.226895 
L 273.519744 205.63449 
L 273.84603 189.473172 
L 274.172316 199.193644 
L 274.498602 199.378073 
L 274.824888 195.908202 
L 275.151174 187.90568 
L 275.47746 202.529086 
L 275.803746 201.812161 
L 276.130032 192.125644 
L 276.456318 193.871901 
L 276.782604 178.442757 
L 277.10889 157.301623 
L 277.435176 175.678992 
L 277.761462 148.311933 
L 278.087748 171.979894 
L 278.414034 184.375074 
L 278.74032 160.558731 
L 279.066606 175.508103 
L 279.392892 163.008043 
L 279.719178 170.772045 
L 280.045464 197.798305 
L 280.37175 188.082072 
L 280.698036 195.671047 
L 281.024322 174.352971 
L 281.350608 171.396245 
L 281.676894 171.613161 
L 282.00318 155.3347 
L 282.329466 152.823417 
L 282.655751 143.866071 
L 282.982037 152.983069 
L 283.308323 177.926708 
L 283.634609 146.599131 
L 283.960895 169.404238 
L 284.613467 126.45537 
L 284.939753 127.0527 
L 285.266039 146.269792 
L 285.592325 134.049903 
L 285.918611 127.211164 
L 286.244897 144.274341 
L 286.571183 127.850012 
L 286.897469 145.255504 
L 287.223755 147.409796 
L 287.550041 171.175441 
L 287.876327 140.974635 
L 288.202613 149.929943 
L 288.528899 139.837176 
L 288.855185 152.405572 
L 289.181471 137.799901 
L 289.507757 140.626684 
L 289.834043 167.957681 
L 290.160329 121.181712 
L 290.486615 122.073758 
L 290.812901 124.500084 
L 291.139187 110.48712 
L 291.465473 119.793054 
L 291.791759 106.712086 
L 292.118045 111.94039 
L 292.444331 103.236121 
L 292.770617 99.65372 
L 293.096903 104.699626 
L 293.423189 126.519596 
L 293.749475 107.260799 
L 294.075761 105.82715 
L 294.402047 118.605683 
L 294.728333 106.415913 
L 295.054619 114.452114 
L 295.380905 102.016037 
L 295.70719 97.295802 
L 296.033476 109.504216 
L 296.359762 101.819827 
L 296.686048 102.342233 
L 297.012334 106.345405 
L 297.33862 101.947271 
L 297.664906 94.012248 
L 297.991192 123.863059 
L 298.317478 110.749148 
L 298.643764 104.623518 
L 298.97005 104.543956 
L 299.296336 90.482716 
L 299.622622 99.484817 
L 299.948908 95.84028 
L 300.275194 99.792497 
L 300.60148 137.952053 
L 300.927766 115.548155 
L 301.254052 110.026298 
L 301.580338 108.248013 
L 302.23291 95.044975 
L 302.559196 92.122066 
L 302.885482 92.684964 
L 303.211768 94.792885 
L 303.538054 92.994212 
L 303.86434 100.088553 
L 304.190626 92.662677 
L 304.516912 98.009087 
L 304.843198 93.024911 
L 305.169484 95.640313 
L 305.49577 114.900142 
L 305.822056 94.933616 
L 306.148342 92.781481 
L 306.474628 91.721902 
L 306.800914 78.38334 
L 307.1272 92.908338 
L 307.453486 86.192293 
L 307.779772 93.904419 
L 308.106058 85.105227 
L 308.432344 85.589082 
L 309.084915 106.366891 
L 309.411201 108.688516 
L 309.737487 88.330464 
L 310.063773 85.218423 
L 310.390059 90.660487 
L 310.716345 87.485501 
L 311.042631 93.928536 
L 311.368917 90.720697 
L 311.695203 74.540604 
L 312.021489 79.449501 
L 312.347775 77.720762 
L 312.674061 75.086298 
L 313.000347 84.2342 
L 313.326633 79.552033 
L 313.652919 77.204958 
L 313.979205 72.175966 
L 314.305491 57.767528 
L 314.631777 68.349349 
L 315.284349 80.231871 
L 315.610635 76.522897 
L 315.936921 74.489151 
L 316.263207 69.364194 
L 316.589493 70.542162 
L 316.915779 77.402964 
L 317.242065 78.915844 
L 317.894637 68.888931 
L 318.220923 80.010825 
L 318.547209 75.990525 
L 318.873495 74.063275 
L 319.199781 82.471192 
L 319.526067 85.883654 
L 319.852353 76.690543 
L 320.178639 77.637644 
L 320.504925 81.950768 
L 320.831211 80.880498 
L 321.157497 79.000185 
L 321.483783 64.949477 
L 321.810069 67.560894 
L 322.136354 72.821271 
L 322.46264 65.043522 
L 322.788926 67.739245 
L 323.115212 72.000226 
L 323.441498 78.669217 
L 323.767784 90.994673 
L 324.09407 88.316817 
L 324.420356 87.997244 
L 324.746642 79.924951 
L 325.072928 80.300189 
L 325.399214 80.183187 
L 325.7255 87.553847 
L 326.051786 84.706894 
L 326.378072 83.591174 
L 326.704358 74.448217 
L 327.030644 68.845469 
L 327.35693 90.414005 
L 327.683216 70.627967 
L 328.009502 73.766273 
L 328.335788 61.838825 
L 328.662074 72.818688 
L 328.98836 55.402234 
L 329.314646 74.82206 
L 329.640932 76.615449 
L 329.967218 69.386447 
L 330.293504 75.075448 
L 330.61979 74.449681 
L 330.946076 77.828122 
L 331.272362 69.53443 
L 331.598648 64.913481 
L 331.924934 76.967047 
L 332.25122 66.744621 
L 332.577506 80.415581 
L 332.903792 76.697774 
L 333.230078 83.86495 
L 333.556364 97.683831 
L 333.88265 85.697015 
L 334.208936 87.602834 
L 334.535222 79.868643 
L 334.861508 74.951493 
L 335.187794 83.641922 
L 335.514079 85.135263 
L 335.840365 78.84765 
L 336.166651 79.061189 
L 336.492937 87.148532 
L 336.819223 80.52533 
L 337.145509 85.141617 
L 337.798081 67.325932 
L 338.124367 66.72855 
L 338.450653 67.107752 
L 339.103225 78.960687 
L 339.429511 76.709418 
L 339.755797 89.3552 
L 340.082083 89.592234 
L 340.408369 84.097095 
L 340.734655 73.082927 
L 341.060941 73.554848 
L 341.387227 76.204091 
L 341.713513 83.377642 
L 342.039799 87.736279 
L 342.366085 87.038271 
L 342.692371 76.841351 
L 343.018657 88.863078 
L 343.344943 77.447877 
L 343.671229 72.4005 
L 343.997515 53.568 
L 344.650087 78.387284 
L 344.976373 76.722657 
L 345.302659 81.584909 
L 345.955231 78.784111 
L 346.281517 77.445045 
L 346.607803 69.827544 
L 346.934089 78.166887 
L 347.260375 75.330605 
L 347.586661 88.926106 
L 347.912947 79.213965 
L 348.239233 77.46709 
L 348.565519 84.298892 
L 348.891804 83.076827 
L 349.21809 82.657761 
L 349.544376 87.035225 
L 349.870662 85.633276 
L 350.196948 110.278077 
L 350.84952 84.189157 
L 351.175806 90.068982 
L 351.502092 80.825268 
L 351.828378 78.71109 
L 352.154664 98.020441 
L 352.807236 81.528677 
L 353.133522 79.115466 
L 353.459808 80.675744 
L 353.786094 96.441578 
L 354.11238 89.918188 
L 354.438666 86.068013 
L 354.764952 114.583335 
L 355.091238 92.341827 
L 355.417524 116.873898 
L 355.74381 96.704995 
L 356.070096 99.789824 
L 356.396382 87.02307 
L 356.722668 91.222197 
L 357.048954 107.510569 
L 357.37524 97.959216 
L 357.701526 102.49532 
L 358.027812 90.170465 
L 358.354098 107.620097 
L 358.680384 103.98601 
L 359.00667 103.533026 
L 359.332956 97.047096 
L 359.659242 106.103005 
L 359.985528 127.05614 
L 360.311814 109.680965 
L 360.6381 112.730122 
L 360.964386 110.235327 
L 361.290672 113.867868 
L 361.616958 110.152837 
L 361.943243 96.226486 
L 362.269529 94.020591 
L 362.595815 100.362537 
L 362.922101 88.662254 
L 363.248387 96.058522 
L 363.574673 88.969706 
L 363.900959 97.67401 
L 364.227245 111.020597 
L 364.553531 100.015981 
L 365.206103 116.260594 
L 365.532389 133.656146 
L 365.858675 123.98004 
L 366.184961 121.961174 
L 366.511247 113.264221 
L 367.163819 109.597218 
L 367.490105 149.455186 
L 367.816391 117.242644 
L 368.142677 122.105966 
L 368.468963 123.558411 
L 368.795249 129.189997 
L 369.121535 147.697456 
L 369.774107 124.42689 
L 370.100393 146.975746 
L 370.426679 134.542429 
L 370.752965 138.148957 
L 371.079251 149.154614 
L 371.405537 180.497608 
L 371.731823 180.59244 
L 372.058109 157.579087 
L 372.384395 170.909189 
L 372.710681 132.87438 
L 373.036967 135.488505 
L 373.363253 144.701815 
L 373.689539 129.252665 
L 374.015825 147.183795 
L 374.342111 142.794034 
L 374.668397 136.137747 
L 374.994683 155.272449 
L 375.320968 132.754206 
L 375.647254 162.905224 
L 375.97354 168.910877 
L 376.299826 164.725011 
L 376.952398 143.747088 
L 377.278684 141.213523 
L 377.60497 147.96737 
L 377.931256 183.695495 
L 378.257542 160.486224 
L 378.583828 201.771137 
L 378.910114 191.92368 
L 378.910114 191.92368 
" clip-path="url(#p97be5401dc)" style="fill: none; stroke: #ff7f0e; stroke-width: 1.5; stroke-linecap: square"/>
   </g>
   <g id="line2d_14">
    <path d="M 78.727017 150.873172 
L 79.053303 206.262046 
L 79.379589 215.115805 
L 79.705875 219.445918 
L 80.032161 209.989549 
L 80.358447 209.846463 
L 80.684733 202.164097 
L 81.011019 161.578603 
L 81.337305 207.72185 
L 81.663591 216.625846 
L 81.989877 212.662696 
L 82.316163 137.381543 
L 82.642449 135.1703 
L 83.295021 145.458231 
L 83.621307 136.051414 
L 83.947593 144.383334 
L 84.273878 138.680622 
L 84.600164 151.932911 
L 84.92645 156.992668 
L 85.252736 198.409479 
L 85.579022 201.615453 
L 85.905308 137.746201 
L 86.231594 124.684088 
L 86.55788 122.536031 
L 86.884166 125.029007 
L 87.210452 125.901474 
L 87.863024 142.306941 
L 88.18931 129.455696 
L 88.515596 122.480006 
L 88.841882 129.229726 
L 89.168168 120.127834 
L 89.494454 122.105238 
L 90.147026 139.432358 
L 90.473312 130.367509 
L 90.799598 129.400131 
L 91.125884 114.151775 
L 91.45217 114.108939 
L 91.778456 119.650223 
L 92.104742 110.475683 
L 92.431028 115.318141 
L 93.0836 104.011591 
L 93.409886 105.122988 
L 93.736172 101.922939 
L 94.062458 113.402494 
L 94.71503 119.332784 
L 95.041316 118.551271 
L 95.367602 119.938088 
L 95.693888 125.963645 
L 96.020174 112.509871 
L 96.34646 117.893751 
L 96.672746 129.603306 
L 96.999032 126.514775 
L 97.325317 133.566173 
L 97.651603 119.500844 
L 97.977889 117.011591 
L 98.304175 108.26148 
L 98.956747 103.561273 
L 99.283033 117.781029 
L 99.609319 106.267978 
L 99.935605 101.473996 
L 100.261891 112.575033 
L 100.588177 102.353795 
L 100.914463 108.291357 
L 101.240749 119.550995 
L 101.567035 108.803369 
L 101.893321 113.821902 
L 102.545893 97.706366 
L 102.872179 94.749927 
L 103.198465 96.719215 
L 103.524751 95.002708 
L 103.851037 94.072935 
L 104.177323 91.024992 
L 104.503609 89.735486 
L 104.829895 93.005621 
L 105.156181 92.441065 
L 105.482467 95.704639 
L 105.808753 95.136105 
L 106.135039 96.721729 
L 106.787611 92.457986 
L 107.113897 89.816339 
L 107.440183 93.562414 
L 107.766469 91.452236 
L 108.092755 94.079192 
L 108.419041 94.169631 
L 108.745327 93.613252 
L 109.071613 92.498678 
L 109.397899 91.940006 
L 109.724185 92.252976 
L 110.050471 92.935963 
L 110.376757 89.973411 
L 111.355614 94.950226 
L 111.6819 98.523986 
L 112.008186 96.192161 
L 112.660758 88.1888 
L 112.987044 93.041748 
L 113.31333 91.215636 
L 113.639616 91.427165 
L 113.965902 89.31921 
L 114.292188 89.852736 
L 114.618474 96.716618 
L 114.94476 95.118037 
L 115.271046 97.674051 
L 115.597332 94.58195 
L 115.923618 93.688967 
L 116.249904 93.277954 
L 116.57619 91.23976 
L 117.228762 89.586598 
L 117.555048 87.557065 
L 118.860192 95.408175 
L 119.186478 94.419884 
L 119.512764 94.096513 
L 120.165336 92.963982 
L 120.491622 91.229705 
L 120.817908 90.623455 
L 121.144194 90.734226 
L 121.47048 90.003005 
L 121.796766 90.516157 
L 122.123052 91.966112 
L 122.449338 91.273774 
L 122.775624 91.574285 
L 123.10191 93.436559 
L 123.428196 92.029416 
L 123.754481 91.294597 
L 124.407053 95.441402 
L 124.733339 93.994996 
L 125.385911 88.683083 
L 125.712197 90.416443 
L 126.038483 90.799685 
L 126.364769 92.774312 
L 127.017341 90.898944 
L 127.343627 91.580384 
L 127.669913 94.295949 
L 128.322485 89.899879 
L 128.648771 92.290671 
L 128.975057 91.706211 
L 129.301343 91.678717 
L 129.627629 90.995689 
L 129.953915 89.330772 
L 130.280201 88.755884 
L 130.606487 92.019257 
L 130.932773 92.153441 
L 131.259059 91.083918 
L 131.585345 95.155139 
L 131.911631 93.962792 
L 132.237917 96.505849 
L 132.890489 92.447143 
L 133.216775 91.195373 
L 133.543061 88.856682 
L 133.869347 92.721451 
L 134.195633 91.95768 
L 134.521919 92.294401 
L 134.848205 91.328963 
L 135.174491 91.171712 
L 135.500777 90.845454 
L 135.827063 91.284452 
L 136.153349 91.44095 
L 136.479635 89.755798 
L 136.805921 88.966515 
L 137.132206 89.974737 
L 137.458492 86.910703 
L 137.784778 88.398319 
L 138.111064 90.982553 
L 138.43735 91.798329 
L 138.763636 90.429371 
L 139.089922 91.12258 
L 139.416208 89.402405 
L 139.742494 91.568898 
L 140.395066 97.305457 
L 140.721352 95.941127 
L 141.047638 93.82186 
L 141.373924 88.793123 
L 141.70021 88.417533 
L 142.026496 91.466407 
L 142.352782 92.438772 
L 142.679068 92.753786 
L 143.33164 94.151267 
L 143.657926 92.830254 
L 143.984212 94.46577 
L 144.310498 95.105565 
L 144.636784 95.484311 
L 144.96307 93.643081 
L 145.289356 94.739802 
L 145.615642 93.965022 
L 145.941928 98.202169 
L 146.5945 94.942291 
L 146.920786 97.164097 
L 147.247072 95.334442 
L 147.573358 96.246417 
L 147.899644 94.074806 
L 148.22593 92.804894 
L 148.552216 90.440518 
L 148.878502 89.756274 
L 149.204788 91.151234 
L 149.531074 93.630104 
L 149.85736 92.937745 
L 150.183646 97.6818 
L 150.509931 93.935049 
L 150.836217 94.380062 
L 151.488789 98.047791 
L 151.815075 95.84104 
L 152.141361 101.479742 
L 152.467647 98.715528 
L 152.793933 100.407173 
L 153.772791 93.26651 
L 154.099077 93.965941 
L 154.425363 100.6513 
L 154.751649 101.840926 
L 155.077935 100.924386 
L 155.404221 101.132869 
L 155.730507 101.130217 
L 156.056793 97.561574 
L 156.383079 109.306659 
L 156.709365 102.802945 
L 157.035651 99.735084 
L 157.361937 98.452036 
L 157.688223 96.193922 
L 158.340795 102.276084 
L 158.667081 100.165318 
L 158.993367 114.330796 
L 159.319653 107.054291 
L 159.645939 111.535213 
L 160.298511 102.955604 
L 160.624797 106.794017 
L 160.951083 105.70972 
L 161.277369 106.901197 
L 161.603655 116.007181 
L 161.929941 107.499056 
L 162.256227 106.742143 
L 162.582513 111.697983 
L 162.908799 104.82017 
L 163.235085 106.377306 
L 163.56137 106.881763 
L 163.887656 114.118777 
L 164.213942 115.626449 
L 164.540228 108.786849 
L 164.866514 105.224443 
L 165.1928 122.060232 
L 165.519086 130.427708 
L 165.845372 125.879422 
L 166.171658 126.079686 
L 166.497944 112.043724 
L 166.82423 129.3957 
L 167.150516 133.236969 
L 167.476802 131.655088 
L 167.803088 132.037039 
L 168.129374 122.086024 
L 168.781946 135.693973 
L 169.108232 148.727832 
L 169.434518 142.544699 
L 169.760804 148.175692 
L 170.08709 170.866853 
L 170.413376 136.548242 
L 170.739662 139.522656 
L 171.392234 127.589499 
L 171.71852 133.301154 
L 172.044806 127.716252 
L 172.371092 128.966606 
L 172.697378 142.89131 
L 173.023664 142.886277 
L 173.34995 144.349678 
L 173.676236 138.607044 
L 174.002522 136.486223 
L 174.328808 129.443071 
L 174.655094 137.090888 
L 174.98138 138.769172 
L 175.307666 137.344808 
L 175.633952 129.815243 
L 175.960238 128.575518 
L 176.286524 126.808563 
L 176.61281 143.937432 
L 176.939095 147.883564 
L 177.265381 215.47377 
L 177.591667 217.377178 
L 177.917953 216.149684 
L 178.244239 221.533127 
L 178.570525 222.459847 
L 178.896811 218.035081 
L 179.223097 218.261942 
L 179.549383 215.17002 
L 179.875669 161.659019 
L 180.201955 210.583154 
L 180.528241 190.693382 
L 180.854527 185.3203 
L 181.180813 196.384549 
L 181.507099 147.140647 
L 181.833385 210.182915 
L 182.485957 215.180545 
L 182.812243 144.382631 
L 183.464815 210.336603 
L 183.791101 213.770094 
L 184.117387 198.34516 
L 184.443673 189.272558 
L 184.769959 195.976827 
L 185.096245 222.773514 
L 185.422531 227.043874 
L 185.748817 227.2847 
L 186.075103 230.393294 
L 186.401389 226.330914 
L 187.053961 213.967907 
L 187.380247 218.099738 
L 188.032819 228.01425 
L 188.359105 228.057429 
L 188.685391 224.972793 
L 189.011677 226.497427 
L 189.664249 223.453283 
L 189.990534 226.083029 
L 190.31682 226.937295 
L 190.643106 228.254951 
L 190.969392 230.431659 
L 191.621964 227.569188 
L 191.94825 226.850468 
L 192.600822 231.819782 
L 192.927108 230.063929 
L 193.253394 231.329856 
L 193.57968 230.586114 
L 193.905966 230.722101 
L 194.232252 230.307041 
L 194.558538 228.91485 
L 194.884824 228.334188 
L 195.21111 226.069866 
L 195.863682 228.44927 
L 196.189968 227.309977 
L 196.516254 231.170844 
L 196.84254 230.230255 
L 197.168826 231.383712 
L 197.495112 234.353543 
L 197.821398 232.493203 
L 198.147684 232.235063 
L 198.47397 229.40673 
L 198.800256 229.445724 
L 199.126542 231.292831 
L 199.452828 230.884076 
L 199.779114 228.519245 
L 200.1054 229.376867 
L 200.431686 228.85424 
L 200.757972 231.328047 
L 201.410544 239.13048 
L 201.73683 239.460509 
L 202.063116 235.753497 
L 202.389402 229.441442 
L 202.715688 231.819216 
L 203.041974 237.009106 
L 203.368259 235.709531 
L 203.694545 235.061835 
L 204.020831 231.765277 
L 204.347117 233.871823 
L 204.999689 234.902678 
L 205.325975 234.843331 
L 205.652261 236.300863 
L 205.978547 234.934122 
L 206.631119 233.779415 
L 206.957405 235.901763 
L 207.283691 236.315463 
L 207.609977 235.339783 
L 207.936263 237.241865 
L 208.262549 238.221226 
L 208.588835 241.334137 
L 208.915121 240.252147 
L 209.241407 238.086089 
L 209.567693 238.769925 
L 209.893979 238.5009 
L 210.220265 235.793146 
L 210.546551 237.134968 
L 211.199123 237.885451 
L 211.525409 241.902871 
L 211.851695 243.363925 
L 212.177981 248.781105 
L 212.504267 247.479368 
L 212.830553 244.380553 
L 213.156839 237.934604 
L 213.483125 239.342396 
L 213.809411 241.82246 
L 214.135697 242.029493 
L 214.461983 239.914556 
L 214.788269 239.232122 
L 215.114555 240.391097 
L 215.440841 243.813739 
L 215.767127 244.381617 
L 216.093413 243.695315 
L 216.419698 241.141352 
L 217.07227 248.520016 
L 217.398556 245.574965 
L 217.724842 246.132048 
L 218.051128 241.318901 
L 218.377414 243.114301 
L 218.7037 243.674837 
L 219.029986 242.525807 
L 219.682558 236.506086 
L 220.008844 239.800172 
L 220.33513 240.912198 
L 220.661416 239.934363 
L 221.313988 239.681589 
L 221.640274 240.642724 
L 221.96656 242.672796 
L 222.292846 238.028441 
L 222.619132 238.052026 
L 222.945418 239.625841 
L 223.271704 243.963096 
L 223.59799 241.243649 
L 224.250562 245.279427 
L 224.576848 250.197986 
L 224.903134 250.837083 
L 225.22942 244.424084 
L 225.555706 245.794844 
L 225.881992 245.318434 
L 226.208278 248.750648 
L 226.534564 249.917372 
L 226.86085 248.333806 
L 227.187136 249.723123 
L 227.513422 246.953163 
L 227.839708 246.23092 
L 228.165994 246.008762 
L 228.49228 247.206931 
L 228.818566 242.408606 
L 229.144852 241.727981 
L 230.123709 244.547087 
L 230.776281 251.200013 
L 231.102567 244.859242 
L 231.428853 245.05635 
L 231.755139 246.907132 
L 232.081425 243.779621 
L 232.407711 242.348769 
L 232.733997 246.474965 
L 233.060283 241.85731 
L 233.386569 246.36699 
L 233.712855 244.031525 
L 234.039141 242.89648 
L 234.365427 245.229121 
L 234.691713 244.693033 
L 235.017999 242.374571 
L 235.344285 241.283347 
L 235.670571 245.19675 
L 235.996857 246.280128 
L 236.323143 243.268493 
L 236.649429 241.86057 
L 236.975715 239.216561 
L 237.302001 238.439572 
L 237.628287 241.263595 
L 238.280859 239.512169 
L 238.607145 243.251586 
L 238.933431 244.787485 
L 239.259717 243.864556 
L 239.586003 240.740201 
L 239.912289 240.503201 
L 240.238575 239.342935 
L 240.564861 244.218895 
L 240.891147 246.282746 
L 241.217433 242.406216 
L 241.543719 242.917227 
L 241.870005 242.08855 
L 242.196291 246.116578 
L 242.522577 245.016825 
L 242.848862 243.000138 
L 243.175148 238.792233 
L 243.501434 237.617697 
L 243.82772 237.930363 
L 244.480292 243.128507 
L 244.806578 242.32577 
L 245.132864 243.20329 
L 245.45915 242.923857 
L 245.785436 236.975341 
L 246.111722 236.933384 
L 246.438008 235.775784 
L 247.09058 240.441707 
L 247.416866 241.74533 
L 247.743152 240.100352 
L 248.069438 235.644396 
L 249.048296 243.922639 
L 249.374582 246.189371 
L 250.027154 241.520644 
L 250.35344 242.75079 
L 250.679726 244.621814 
L 251.658584 234.185055 
L 251.98487 233.481487 
L 252.311156 235.489859 
L 252.637442 235.963409 
L 252.963728 238.29116 
L 253.290014 244.061319 
L 253.6163 246.406798 
L 253.942586 240.467129 
L 254.268872 239.42539 
L 254.595158 237.273883 
L 254.921444 236.245349 
L 255.24773 231.870502 
L 255.574016 232.879602 
L 255.900302 234.911476 
L 256.226587 234.059069 
L 256.552873 237.873579 
L 256.879159 237.456447 
L 257.205445 236.78509 
L 257.531731 234.611552 
L 258.184303 233.931487 
L 258.510589 233.900843 
L 259.163161 228.727224 
L 259.815733 233.283543 
L 260.142019 232.216223 
L 260.468305 237.381001 
L 260.794591 238.63476 
L 261.120877 238.460664 
L 261.447163 239.880217 
L 261.773449 236.514249 
L 262.099735 235.485418 
L 262.426021 237.036055 
L 262.752307 236.187425 
L 263.078593 233.908496 
L 263.404879 232.938369 
L 264.057451 228.162647 
L 264.383737 227.120673 
L 264.710023 224.592858 
L 265.036309 229.901843 
L 265.362595 229.72441 
L 265.688881 232.36174 
L 266.015167 231.137942 
L 266.341453 227.192244 
L 266.667739 229.608121 
L 267.320311 227.316193 
L 267.646597 226.804126 
L 267.972883 225.852121 
L 268.299169 228.889096 
L 268.625455 229.667488 
L 268.951741 224.387759 
L 269.278026 222.482258 
L 269.604312 224.116973 
L 269.930598 228.161591 
L 270.256884 225.308616 
L 270.58317 224.776789 
L 270.909456 229.079789 
L 271.235742 225.587641 
L 271.562028 230.451059 
L 272.2146 231.394597 
L 272.540886 226.078444 
L 272.867172 225.553482 
L 273.193458 227.060657 
L 273.519744 222.924226 
L 273.84603 223.638692 
L 274.172316 220.722924 
L 275.151174 224.602175 
L 275.47746 224.130171 
L 275.803746 221.198319 
L 276.130032 215.207445 
L 276.456318 218.727585 
L 276.782604 225.05424 
L 277.10889 222.706564 
L 277.435176 221.602702 
L 277.761462 214.86321 
L 278.087748 218.801953 
L 278.414034 219.968318 
L 278.74032 218.206463 
L 279.066606 213.645434 
L 279.392892 220.215525 
L 279.719178 221.257037 
L 280.045464 216.517015 
L 280.37175 216.146991 
L 280.698036 209.752916 
L 281.024322 152.436041 
L 281.350608 203.819241 
L 281.676894 143.50592 
L 282.00318 198.858781 
L 282.329466 212.160104 
L 282.655751 185.74717 
L 282.982037 204.606922 
L 283.308323 174.571755 
L 283.634609 201.26157 
L 283.960895 218.486441 
L 284.287181 215.299749 
L 284.613467 217.407594 
L 284.939753 207.618157 
L 285.266039 201.412406 
L 285.592325 201.742054 
L 285.918611 149.155203 
L 286.244897 146.075063 
L 286.571183 139.074648 
L 286.897469 143.01702 
L 287.223755 206.743373 
L 287.550041 144.844949 
L 287.876327 192.865822 
L 288.202613 141.493384 
L 288.528899 126.64657 
L 288.855185 123.701664 
L 289.181471 133.518332 
L 289.834043 125.924441 
L 290.160329 134.525719 
L 290.486615 124.725063 
L 290.812901 135.525281 
L 291.139187 138.938976 
L 291.465473 198.686039 
L 291.791759 140.338187 
L 292.118045 142.557018 
L 292.444331 134.864941 
L 292.770617 141.091667 
L 293.096903 134.749528 
L 293.423189 134.836724 
L 293.749475 169.853406 
L 294.075761 125.840069 
L 294.402047 120.546389 
L 294.728333 118.526484 
L 295.054619 109.225813 
L 295.380905 115.144417 
L 295.70719 107.642785 
L 296.033476 108.467836 
L 296.686048 102.283059 
L 297.012334 104.245213 
L 297.33862 116.530537 
L 297.664906 109.398106 
L 297.991192 106.824094 
L 298.317478 112.17987 
L 298.643764 106.479935 
L 298.97005 110.498522 
L 299.622622 100.835134 
L 299.948908 105.683801 
L 300.275194 103.54697 
L 300.60148 103.854277 
L 300.927766 105.361949 
L 301.254052 103.413359 
L 301.580338 99.779976 
L 301.906624 113.659522 
L 302.559196 106.651642 
L 302.885482 105.246018 
L 303.211768 97.513961 
L 303.538054 100.527855 
L 303.86434 99.873039 
L 304.190626 101.625253 
L 304.516912 124.18998 
L 304.843198 116.222097 
L 305.822056 102.801681 
L 306.474628 97.766072 
L 306.800914 97.597197 
L 307.1272 98.654718 
L 307.453486 98.298817 
L 307.779772 101.337671 
L 308.106058 98.588568 
L 308.432344 100.300262 
L 308.75863 98.470137 
L 309.084915 99.180418 
L 309.411201 108.0748 
L 309.737487 101.486151 
L 310.063773 98.623114 
L 310.390059 97.13018 
L 310.716345 93.417946 
L 311.042631 96.780503 
L 311.368917 95.672931 
L 311.695203 98.036955 
L 312.021489 95.556676 
L 312.347775 95.001216 
L 313.326633 107.068346 
L 313.652919 98.855873 
L 313.979205 94.708178 
L 314.305491 96.029322 
L 314.631777 96.034985 
L 314.958063 98.42142 
L 315.284349 97.273198 
L 315.610635 92.754712 
L 315.936921 92.371165 
L 316.263207 92.46425 
L 316.589493 92.04499 
L 316.915779 94.286936 
L 317.568351 92.546512 
L 317.894637 90.998665 
L 318.220923 86.900938 
L 318.547209 88.465332 
L 319.199781 93.463128 
L 319.526067 92.644893 
L 320.178639 90.022764 
L 320.504925 90.053021 
L 320.831211 92.187863 
L 321.157497 93.046072 
L 321.483783 91.748976 
L 321.810069 89.885313 
L 322.136354 92.462081 
L 322.46264 92.349956 
L 322.788926 91.712883 
L 323.441498 95.073339 
L 323.767784 93.176554 
L 324.09407 92.343947 
L 324.420356 93.531971 
L 324.746642 93.752609 
L 325.072928 93.247856 
L 325.399214 89.398924 
L 325.7255 88.520113 
L 326.051786 90.626273 
L 326.378072 89.247184 
L 326.704358 89.172781 
L 327.030644 90.317937 
L 327.35693 92.694364 
L 327.683216 96.488777 
L 328.009502 96.458098 
L 328.335788 96.059765 
L 328.662074 93.65447 
L 328.98836 93.149122 
L 329.314646 93.335104 
L 329.640932 95.484442 
L 329.967218 95.139254 
L 330.293504 94.558703 
L 330.946076 89.773941 
L 331.272362 95.022032 
L 331.598648 91.727434 
L 331.924934 91.181906 
L 332.25122 87.948913 
L 332.577506 89.9873 
L 332.903792 86.763818 
L 333.230078 90.434855 
L 333.556364 92.122252 
L 333.88265 90.594697 
L 334.208936 91.367066 
L 334.535222 91.420397 
L 334.861508 92.560228 
L 335.514079 88.498268 
L 335.840365 91.397509 
L 336.166651 89.825732 
L 336.492937 92.871499 
L 336.819223 92.433841 
L 337.145509 94.297102 
L 337.471795 99.208341 
L 337.798081 96.131288 
L 338.124367 95.754648 
L 338.776939 91.738229 
L 339.103225 93.982288 
L 339.429511 95.002024 
L 339.755797 93.591449 
L 340.082083 92.840544 
L 340.408369 95.050106 
L 340.734655 93.989126 
L 341.060941 94.886597 
L 341.713513 89.459776 
L 342.039799 88.733604 
L 342.366085 89.036546 
L 343.018657 92.8723 
L 343.344943 92.50343 
L 343.671229 95.62161 
L 343.997515 96.607456 
L 344.323801 95.192461 
L 344.650087 91.727586 
L 344.976373 90.65501 
L 345.302659 91.85617 
L 345.628945 94.287841 
L 345.955231 95.817241 
L 346.281517 95.734184 
L 346.607803 93.05563 
L 346.934089 95.241047 
L 347.586661 91.273685 
L 347.912947 85.946806 
L 348.239233 87.668666 
L 348.565519 92.217208 
L 348.891804 92.812214 
L 349.21809 93.816853 
L 350.196948 92.571575 
L 350.523234 90.459898 
L 350.84952 92.031751 
L 351.175806 91.967729 
L 351.502092 95.598985 
L 352.154664 92.53906 
L 352.48095 94.190495 
L 352.807236 94.409 
L 353.133522 94.3704 
L 353.459808 95.350873 
L 353.786094 95.206384 
L 354.11238 104.689543 
L 354.438666 101.910335 
L 354.764952 96.245057 
L 355.091238 95.859805 
L 355.417524 93.698173 
L 355.74381 93.147596 
L 356.070096 98.762361 
L 356.396382 97.108031 
L 357.048954 92.799935 
L 357.37524 93.170511 
L 357.701526 98.301407 
L 358.027812 97.500618 
L 358.354098 95.737741 
L 358.680384 106.596446 
L 359.00667 99.703791 
L 359.332956 109.798442 
L 359.659242 102.384417 
L 359.985528 101.472332 
L 360.311814 96.430266 
L 360.6381 96.612035 
L 360.964386 103.988461 
L 361.290672 101.98969 
L 361.616958 103.640718 
L 361.943243 97.901327 
L 362.269529 103.76111 
L 362.595815 104.337503 
L 362.922101 104.522312 
L 363.248387 101.420099 
L 363.574673 104.155548 
L 363.900959 116.737259 
L 364.227245 110.904874 
L 364.553531 111.173905 
L 364.879817 108.280072 
L 365.206103 109.083085 
L 365.532389 108.558275 
L 365.858675 102.054023 
L 366.184961 98.56039 
L 366.511247 100.803323 
L 366.837533 97.074176 
L 367.163819 99.324845 
L 367.490105 96.693144 
L 367.816391 99.513451 
L 368.142677 106.397383 
L 368.468963 103.493135 
L 368.795249 106.228294 
L 369.121535 110.559561 
L 369.447821 123.24549 
L 370.100393 119.972005 
L 370.426679 112.860142 
L 370.752965 108.752324 
L 371.079251 107.61306 
L 371.405537 133.24294 
L 371.731823 120.596395 
L 372.058109 119.830404 
L 372.384395 118.530987 
L 372.710681 120.942305 
L 373.036967 136.378904 
L 373.363253 131.998118 
L 373.689539 124.554299 
L 374.015825 135.131817 
L 374.342111 129.233324 
L 374.668397 132.371875 
L 374.994683 139.871346 
L 375.320968 207.910201 
L 375.647254 212.041245 
L 375.97354 162.851651 
L 376.299826 192.75101 
L 376.626112 132.877488 
L 376.952398 130.552217 
L 377.278684 135.426009 
L 377.60497 126.274916 
L 377.931256 137.534188 
L 378.257542 136.020753 
L 378.583828 132.016917 
L 378.910114 143.740192 
L 379.2364 131.098799 
L 379.562686 149.102449 
L 379.888972 198.696391 
L 380.215258 196.419347 
L 380.541544 147.656988 
L 380.86783 138.924055 
L 381.194116 135.011888 
L 381.520402 138.832151 
L 381.846688 210.576503 
L 382.172974 191.683414 
L 382.49926 219.609862 
L 382.825546 217.143611 
L 382.825546 217.143611 
" clip-path="url(#p97be5401dc)" style="fill: none; stroke: #2ca02c; stroke-width: 1.5; stroke-linecap: square"/>
   </g>
   <g id="line2d_15">
    <path d="M 94.388744 126.055176 
L 94.71503 231.021237 
L 95.367602 231.240598 
L 95.693888 231.085204 
L 96.020174 231.082974 
L 96.34646 230.945191 
L 96.672746 219.695405 
L 96.999032 231.046908 
L 97.325317 231.194132 
L 97.651603 231.128397 
L 97.977889 117.966507 
L 98.304175 116.514376 
L 98.956747 122.742774 
L 99.283033 117.122815 
L 99.609319 122.072501 
L 99.935605 118.623146 
L 100.261891 126.674064 
L 100.588177 129.704506 
L 100.914463 230.871479 
L 101.240749 230.934769 
L 101.567035 118.145493 
L 101.893321 110.232385 
L 102.219607 108.948597 
L 102.545893 110.323597 
L 102.872179 110.898326 
L 103.524751 120.799757 
L 103.851037 113.112132 
L 104.177323 108.981506 
L 104.503609 112.870018 
L 104.829895 107.885372 
L 105.156181 108.767097 
L 105.808753 119.047198 
L 106.135039 113.665628 
L 106.461325 113.051864 
L 106.787611 106.139112 
L 107.113897 106.113558 
L 107.440183 107.675321 
L 107.766469 105.536128 
L 108.092755 106.383487 
L 108.745327 104.757944 
L 109.071613 104.887984 
L 109.397899 104.507124 
L 109.724185 105.965091 
L 110.050471 106.53509 
L 110.376757 107.582098 
L 110.703042 107.308902 
L 111.029328 107.802019 
L 111.355614 110.906697 
L 111.6819 105.837875 
L 112.008186 107.084887 
L 112.334472 113.06761 
L 112.660758 111.272404 
L 112.987044 115.554488 
L 113.31333 107.674803 
L 113.639616 106.827416 
L 113.965902 105.264231 
L 114.618474 104.702589 
L 114.94476 107.021417 
L 115.271046 105.029027 
L 115.597332 104.45436 
L 115.923618 105.815223 
L 116.249904 104.560704 
L 116.57619 105.266019 
L 116.902476 107.626272 
L 117.228762 105.331692 
L 117.555048 106.062616 
L 118.20762 104.004671 
L 118.533906 103.649627 
L 118.860192 103.885701 
L 120.165336 103.175337 
L 120.491622 103.464632 
L 120.817908 103.409844 
L 121.144194 103.765889 
L 121.47048 103.695748 
L 121.796766 103.885964 
L 122.775624 103.181636 
L 123.10191 103.520823 
L 123.428196 103.319508 
L 123.754481 103.575065 
L 124.407053 103.525754 
L 125.059625 103.362915 
L 125.712197 103.45756 
L 126.038483 103.194164 
L 127.017341 103.673564 
L 127.343627 104.100573 
L 127.996199 103.436164 
L 128.322485 103.055884 
L 128.648771 103.4683 
L 128.975057 103.298603 
L 129.301343 103.317091 
L 129.627629 103.141973 
L 129.953915 103.184896 
L 130.280201 103.88519 
L 130.606487 103.693697 
L 130.932773 103.999512 
L 131.259059 103.630634 
L 133.216775 103.00986 
L 134.195633 103.431136 
L 134.521919 103.729202 
L 135.174491 103.576875 
L 137.132206 103.196858 
L 139.089922 103.371189 
L 139.416208 103.305329 
L 140.06878 103.733498 
L 140.395066 103.565811 
L 141.047638 103.093248 
L 142.026496 103.441675 
L 142.679068 103.271378 
L 143.005354 103.330994 
L 143.33164 103.598844 
L 143.984212 103.188321 
L 144.310498 103.395948 
L 145.941928 103.09887 
L 146.268214 103.370581 
L 146.920786 103.28691 
L 147.247072 103.6982 
L 147.573358 103.562682 
L 147.899644 103.860092 
L 148.552216 103.410168 
L 149.204788 103.106494 
L 149.531074 103.436661 
L 150.509931 103.30841 
L 152.793933 103.194772 
L 153.120219 102.963967 
L 154.099077 103.350394 
L 154.425363 103.231355 
L 154.751649 103.290446 
L 155.077935 103.148513 
L 155.730507 103.635869 
L 156.056793 103.956174 
L 156.709365 103.547012 
L 157.035651 103.101342 
L 157.361937 103.073012 
L 157.688223 103.321104 
L 158.993367 103.583035 
L 159.319653 103.446959 
L 159.972225 103.692212 
L 160.298511 103.73865 
L 160.624797 103.528572 
L 160.951083 103.648867 
L 161.277369 103.562834 
L 161.603655 104.061745 
L 162.256227 103.672128 
L 162.582513 103.938611 
L 162.908799 103.719913 
L 163.235085 103.829386 
L 163.887656 103.444514 
L 164.213942 103.232391 
L 164.540228 103.177002 
L 164.866514 103.292995 
L 165.1928 103.527715 
L 165.519086 103.457602 
L 165.845372 103.999442 
L 166.171658 103.559402 
L 166.497944 103.607677 
L 167.150516 104.044431 
L 167.476802 103.781829 
L 167.803088 104.451535 
L 168.129374 104.125097 
L 168.45566 104.325949 
L 169.434518 103.48982 
L 169.760804 103.562917 
L 170.08709 104.35267 
L 170.413376 104.497725 
L 170.739662 104.388756 
L 171.392234 104.411761 
L 171.71852 103.986935 
L 172.044806 105.38128 
L 172.371092 104.613814 
L 172.697378 104.246905 
L 173.34995 103.823357 
L 174.002522 104.548293 
L 174.328808 104.298165 
L 174.655094 106.145072 
L 174.98138 105.121255 
L 175.307666 105.672012 
L 175.960238 104.630576 
L 176.286524 105.086557 
L 176.61281 104.958664 
L 176.939095 105.100777 
L 177.265381 106.538736 
L 177.591667 105.174696 
L 177.917953 105.082102 
L 178.244239 105.686943 
L 178.570525 104.854378 
L 179.223097 105.097724 
L 179.549383 106.107045 
L 179.875669 106.456032 
L 180.201955 105.328944 
L 180.528241 104.901086 
L 181.180813 113.581377 
L 181.507099 110.945 
L 181.833385 111.035018 
L 182.159671 105.754902 
L 182.485957 112.942815 
L 182.812243 115.308513 
L 183.138529 114.422416 
L 183.464815 114.637405 
L 183.791101 108.7572 
L 184.443673 116.790162 
L 184.769959 124.705888 
L 185.096245 121.014884 
L 185.422531 124.39635 
L 185.748817 230.046897 
L 186.075103 117.405287 
L 186.401389 119.169773 
L 187.053961 111.936247 
L 187.380247 115.367369 
L 187.706533 112.004558 
L 188.032819 112.762762 
L 188.359105 121.130836 
L 188.685391 121.181536 
L 189.011677 122.110169 
L 189.337963 118.626889 
L 189.664249 117.312323 
L 189.990534 113.061222 
L 190.31682 117.656731 
L 190.643106 118.674053 
L 190.969392 117.848169 
L 191.295678 113.320122 
L 191.94825 111.431182 
L 192.274536 121.752138 
L 192.600822 124.230452 
L 192.927108 231.17525 
L 194.232252 231.290234 
L 195.21111 231.170194 
L 195.537396 221.238825 
L 195.863682 231.095143 
L 196.189968 230.706582 
L 196.516254 230.572391 
L 196.84254 230.829281 
L 197.168826 123.782614 
L 197.495112 231.088464 
L 198.147684 231.170395 
L 198.47397 122.17176 
L 198.800256 230.245857 
L 199.126542 231.090895 
L 199.452828 231.146851 
L 200.1054 230.673777 
L 200.431686 230.820455 
L 200.757972 231.295435 
L 201.73683 231.421021 
L 203.041974 231.218387 
L 204.020831 231.382497 
L 204.999689 231.327536 
L 205.978547 231.364029 
L 208.262549 231.444502 
L 209.567693 231.426415 
L 212.830553 231.437327 
L 213.483125 231.455573 
L 216.745984 231.49782 
L 217.398556 231.570392 
L 218.377414 231.444544 
L 219.029986 231.508559 
L 222.292846 231.476811 
L 224.250562 231.601291 
L 226.86085 231.544452 
L 228.165994 231.702539 
L 229.471138 231.609344 
L 235.017999 231.575641 
L 235.670571 231.576028 
L 237.628287 231.623364 
L 238.280859 231.547228 
L 241.217433 231.674858 
L 245.785436 231.654243 
L 246.438008 231.763868 
L 247.09058 231.662689 
L 247.743152 231.641549 
L 248.72201 231.609855 
L 249.374582 231.645706 
L 251.006012 231.600476 
L 251.658584 231.682773 
L 252.963728 231.553596 
L 253.6163 231.585303 
L 254.268872 231.632923 
L 254.921444 231.642978 
L 255.900302 231.568472 
L 256.552873 231.682828 
L 257.205445 231.627418 
L 259.815733 231.594509 
L 260.794591 231.632115 
L 268.625455 231.551158 
L 269.278026 231.684872 
L 269.930598 231.569874 
L 271.562028 231.495465 
L 275.151174 231.42935 
L 277.10889 231.577354 
L 277.761462 231.504933 
L 278.74032 231.478924 
L 283.634609 231.346155 
L 284.287181 231.409017 
L 284.939753 231.290663 
L 287.876327 231.437486 
L 288.528899 231.341279 
L 289.507757 231.309724 
L 290.160329 231.282865 
L 291.139187 231.317798 
L 292.118045 231.228788 
L 292.444331 231.333019 
L 294.075761 231.249183 
L 295.054619 231.25332 
L 295.70719 231.192364 
L 296.359762 231.081275 
L 296.686048 126.989227 
L 297.012334 230.976677 
L 297.33862 121.588612 
L 297.664906 230.880989 
L 297.991192 231.120448 
L 298.317478 230.581666 
L 298.643764 230.991222 
L 298.97005 230.262066 
L 299.296336 230.928029 
L 299.622622 231.224776 
L 301.254052 230.937214 
L 301.580338 125.015736 
L 301.906624 123.144815 
L 302.23291 118.903414 
L 302.559196 121.250869 
L 302.885482 231.029663 
L 303.211768 122.433574 
L 303.538054 230.754091 
L 303.86434 120.363145 
L 304.190626 111.413357 
L 304.516912 109.599096 
L 304.843198 115.447059 
L 305.49577 110.960885 
L 305.822056 116.094056 
L 306.148342 110.191678 
L 306.474628 116.70973 
L 306.800914 118.774838 
L 307.1272 230.877391 
L 307.453486 119.70421 
L 307.779772 121.01063 
L 308.106058 116.334706 
L 308.432344 120.070449 
L 308.75863 116.283965 
L 309.084915 116.332082 
L 309.411201 229.96842 
L 309.737487 110.947424 
L 310.063773 108.091086 
L 310.390059 107.279488 
L 310.716345 105.379927 
L 311.042631 106.341434 
L 311.368917 105.190885 
L 311.695203 105.286932 
L 312.347775 104.55031 
L 312.674061 104.78318 
L 313.000347 106.663244 
L 313.326633 105.403498 
L 313.652919 105.093014 
L 313.979205 105.760614 
L 314.305491 105.051389 
L 314.631777 105.530237 
L 315.284349 104.377409 
L 315.610635 104.953333 
L 315.936921 104.701208 
L 316.263207 104.737791 
L 316.589493 104.91657 
L 316.915779 104.684909 
L 317.242065 104.252223 
L 317.568351 106.009506 
L 317.894637 105.418865 
L 318.220923 105.07331 
L 318.547209 104.903399 
L 318.873495 103.980961 
L 319.199781 104.339113 
L 319.526067 104.262604 
L 319.852353 104.471128 
L 320.178639 109.770679 
L 320.504925 106.620301 
L 320.831211 105.655961 
L 321.810069 104.277915 
L 322.136354 104.010638 
L 322.46264 103.990499 
L 322.788926 104.11663 
L 323.115212 104.07466 
L 323.441498 104.436244 
L 323.767784 104.109551 
L 324.09407 104.312661 
L 324.420356 104.095151 
L 324.746642 104.17934 
L 325.072928 105.237033 
L 325.399214 104.457295 
L 325.7255 104.113398 
L 326.051786 103.93464 
L 326.378072 103.505477 
L 326.704358 103.892759 
L 327.030644 103.762512 
L 327.35693 104.042842 
L 327.683216 103.747629 
L 328.009502 103.6794 
L 328.98836 105.120778 
L 329.314646 104.142508 
L 329.640932 103.644751 
L 329.967218 103.803943 
L 330.293504 103.804965 
L 330.61979 104.089046 
L 330.946076 103.952258 
L 331.272362 103.439134 
L 332.25122 103.372715 
L 332.577506 103.597718 
L 333.556364 103.279748 
L 333.88265 102.963201 
L 334.535222 103.285681 
L 334.861508 103.510422 
L 336.166651 103.201008 
L 336.819223 103.468417 
L 337.471795 103.187203 
L 337.798081 103.411978 
L 338.450653 103.342548 
L 339.103225 103.688441 
L 339.755797 103.400527 
L 340.408369 103.540264 
L 340.734655 103.488017 
L 341.060941 103.147857 
L 341.387227 103.080803 
L 341.713513 103.248628 
L 342.366085 103.130833 
L 342.692371 103.222487 
L 343.018657 103.433975 
L 343.344943 103.858373 
L 343.997515 103.8073 
L 344.323801 103.529794 
L 344.976373 103.497161 
L 345.302659 103.738788 
L 345.955231 103.628065 
L 346.607803 103.178266 
L 346.934089 103.682501 
L 347.260375 103.343964 
L 347.586661 103.295205 
L 347.912947 103.038439 
L 348.239233 103.195822 
L 348.565519 102.953808 
L 349.21809 103.380291 
L 349.544376 103.245513 
L 350.523234 103.421018 
L 351.175806 103.07891 
L 351.502092 103.314867 
L 351.828378 103.182624 
L 352.154664 103.451199 
L 352.48095 103.409167 
L 352.807236 103.598823 
L 353.133522 104.181599 
L 353.459808 103.816099 
L 353.786094 103.771469 
L 354.438666 103.344889 
L 355.091238 103.679835 
L 355.74381 103.447988 
L 356.070096 103.685651 
L 356.396382 103.565397 
L 356.722668 103.665726 
L 357.37524 103.152829 
L 358.027812 103.120597 
L 358.680384 103.451372 
L 359.00667 103.415576 
L 359.332956 103.755978 
L 359.659242 103.872676 
L 359.985528 103.702212 
L 360.311814 103.343549 
L 360.6381 103.250769 
L 360.964386 103.355691 
L 361.616958 103.779253 
L 361.943243 103.769411 
L 362.269529 103.468887 
L 362.595815 103.708304 
L 363.574673 102.897134 
L 363.900959 103.018369 
L 364.227245 103.389366 
L 365.206103 103.504827 
L 365.858675 103.421951 
L 366.184961 103.234014 
L 366.511247 103.37161 
L 366.837533 103.365636 
L 367.163819 103.753188 
L 367.816391 103.41876 
L 368.142677 103.587317 
L 369.447821 103.704139 
L 369.774107 104.8335 
L 370.100393 104.507028 
L 370.426679 103.828641 
L 370.752965 103.783417 
L 371.079251 103.534691 
L 371.405537 103.47821 
L 371.731823 104.127611 
L 372.710681 103.443927 
L 373.036967 103.48071 
L 373.363253 104.073403 
L 373.689539 103.980098 
L 374.015825 103.769473 
L 374.342111 105.059056 
L 374.668397 104.244391 
L 374.994683 105.441221 
L 375.320968 104.56395 
L 375.647254 104.452702 
L 375.97354 103.850921 
L 376.299826 103.872655 
L 376.626112 104.750699 
L 376.952398 104.516186 
L 377.278684 104.711954 
L 377.60497 104.027241 
L 377.931256 104.723281 
L 378.583828 104.817601 
L 378.910114 104.447792 
L 379.2364 104.771605 
L 379.562686 106.716092 
L 379.888972 105.590544 
L 380.215258 105.626927 
L 380.541544 105.265087 
L 380.86783 105.358938 
L 381.194116 105.299142 
L 381.520402 104.52466 
L 381.846688 104.105207 
L 382.172974 104.37169 
L 382.49926 103.928811 
L 382.825546 104.19644 
L 383.151832 103.882586 
L 383.478118 104.218237 
L 383.804404 105.038309 
L 384.13069 104.695835 
L 384.456976 105.020117 
L 384.783262 105.53204 
L 385.109548 109.281658 
L 385.76212 107.843429 
L 386.088406 105.890903 
L 386.414692 105.321416 
L 386.740978 105.185581 
L 387.067264 115.247171 
L 387.39355 108.115382 
L 387.719836 107.796003 
L 388.046122 107.286505 
L 388.372407 108.193894 
L 388.698693 117.197618 
L 389.024979 114.614877 
L 389.351265 110.142049 
L 389.677551 116.440702 
L 390.003837 112.905151 
L 390.330123 114.832373 
L 390.656409 119.340989 
L 390.982695 231.050085 
L 391.308981 231.1185 
L 391.635267 227.691887 
L 391.961553 230.75193 
L 392.287839 115.175144 
L 392.614125 113.742765 
L 392.940411 116.635997 
L 393.266697 111.141507 
L 393.592983 117.929078 
L 393.919269 117.018708 
L 394.245555 114.628268 
L 394.571841 121.669134 
L 394.898127 114.079358 
L 395.224413 124.903631 
L 395.550699 230.877432 
L 395.876985 230.82944 
L 396.203271 124.114069 
L 396.529557 118.814998 
L 396.855843 116.423678 
L 397.182129 118.713257 
L 397.508415 231.094929 
L 397.834701 230.728006 
L 398.160987 231.243354 
L 398.487273 231.202572 
L 398.487273 231.202572 
" clip-path="url(#p97be5401dc)" style="fill: none; stroke: #d62728; stroke-width: 1.5; stroke-linecap: square"/>
   </g>
   <g id="patch_3">
    <path d="M 57.6 307.584 
L 57.6 41.472 
" style="fill: none; stroke: #000000; stroke-width: 0.8; stroke-linejoin: miter; stroke-linecap: square"/>
   </g>
   <g id="patch_4">
    <path d="M 414.72 307.584 
L 414.72 41.472 
" style="fill: none; stroke: #000000; stroke-width: 0.8; stroke-linejoin: miter; stroke-linecap: square"/>
   </g>
   <g id="patch_5">
    <path d="M 57.6 307.584 
L 414.72 307.584 
" style="fill: none; stroke: #000000; stroke-width: 0.8; stroke-linejoin: miter; stroke-linecap: square"/>
   </g>
   <g id="patch_6">
    <path d="M 57.6 41.472 
L 414.72 41.472 
" style="fill: none; stroke: #000000; stroke-width: 0.8; stroke-linejoin: miter; stroke-linecap: square"/>
   </g>
   <g id="legend_1">
    <g id="patch_7">
     <path d="M 64.6 302.584 
L 165.6875 302.584 
Q 167.6875 302.584 167.6875 300.584 
L 167.6875 242.8715 
Q 167.6875 240.8715 165.6875 240.8715 
L 64.6 240.8715 
Q 62.6 240.8715 62.6 242.8715 
L 62.6 300.584 
Q 62.6 302.584 64.6 302.584 
z
" style="fill: #ffffff; opacity: 0.8; stroke: #cccccc; stroke-linejoin: miter"/>
    </g>
    <g id="line2d_16">
     <path d="M 66.6 248.969937 
L 76.6 248.969937 
L 86.6 248.969937 
" style="fill: none; stroke: #1f77b4; stroke-width: 1.5; stroke-linecap: square"/>
    </g>
    <g id="text_12">
     <!-- 1-step preds -->
     <g transform="translate(94.6 252.469937)scale(0.1 -0.1)">
      <defs>
       <path id="DejaVuSans-2d" d="M 313 2009 
L 1997 2009 
L 1997 1497 
L 313 1497 
L 313 2009 
z
" transform="scale(0.015625)"/>
       <path id="DejaVuSans-73" d="M 2834 3397 
L 2834 2853 
Q 2591 2978 2328 3040 
Q 2066 3103 1784 3103 
Q 1356 3103 1142 2972 
Q 928 2841 928 2578 
Q 928 2378 1081 2264 
Q 1234 2150 1697 2047 
L 1894 2003 
Q 2506 1872 2764 1633 
Q 3022 1394 3022 966 
Q 3022 478 2636 193 
Q 2250 -91 1575 -91 
Q 1294 -91 989 -36 
Q 684 19 347 128 
L 347 722 
Q 666 556 975 473 
Q 1284 391 1588 391 
Q 1994 391 2212 530 
Q 2431 669 2431 922 
Q 2431 1156 2273 1281 
Q 2116 1406 1581 1522 
L 1381 1569 
Q 847 1681 609 1914 
Q 372 2147 372 2553 
Q 372 3047 722 3315 
Q 1072 3584 1716 3584 
Q 2034 3584 2315 3537 
Q 2597 3491 2834 3397 
z
" transform="scale(0.015625)"/>
       <path id="DejaVuSans-74" d="M 1172 4494 
L 1172 3500 
L 2356 3500 
L 2356 3053 
L 1172 3053 
L 1172 1153 
Q 1172 725 1289 603 
Q 1406 481 1766 481 
L 2356 481 
L 2356 0 
L 1766 0 
Q 1100 0 847 248 
Q 594 497 594 1153 
L 594 3053 
L 172 3053 
L 172 3500 
L 594 3500 
L 594 4494 
L 1172 4494 
z
" transform="scale(0.015625)"/>
       <path id="DejaVuSans-65" d="M 3597 1894 
L 3597 1613 
L 953 1613 
Q 991 1019 1311 708 
Q 1631 397 2203 397 
Q 2534 397 2845 478 
Q 3156 559 3463 722 
L 3463 178 
Q 3153 47 2828 -22 
Q 2503 -91 2169 -91 
Q 1331 -91 842 396 
Q 353 884 353 1716 
Q 353 2575 817 3079 
Q 1281 3584 2069 3584 
Q 2775 3584 3186 3129 
Q 3597 2675 3597 1894 
z
M 3022 2063 
Q 3016 2534 2758 2815 
Q 2500 3097 2075 3097 
Q 1594 3097 1305 2825 
Q 1016 2553 972 2059 
L 3022 2063 
z
" transform="scale(0.015625)"/>
       <path id="DejaVuSans-70" d="M 1159 525 
L 1159 -1331 
L 581 -1331 
L 581 3500 
L 1159 3500 
L 1159 2969 
Q 1341 3281 1617 3432 
Q 1894 3584 2278 3584 
Q 2916 3584 3314 3078 
Q 3713 2572 3713 1747 
Q 3713 922 3314 415 
Q 2916 -91 2278 -91 
Q 1894 -91 1617 61 
Q 1341 213 1159 525 
z
M 3116 1747 
Q 3116 2381 2855 2742 
Q 2594 3103 2138 3103 
Q 1681 3103 1420 2742 
Q 1159 2381 1159 1747 
Q 1159 1113 1420 752 
Q 1681 391 2138 391 
Q 2594 391 2855 752 
Q 3116 1113 3116 1747 
z
" transform="scale(0.015625)"/>
       <path id="DejaVuSans-20" transform="scale(0.015625)"/>
       <path id="DejaVuSans-72" d="M 2631 2963 
Q 2534 3019 2420 3045 
Q 2306 3072 2169 3072 
Q 1681 3072 1420 2755 
Q 1159 2438 1159 1844 
L 1159 0 
L 581 0 
L 581 3500 
L 1159 3500 
L 1159 2956 
Q 1341 3275 1631 3429 
Q 1922 3584 2338 3584 
Q 2397 3584 2469 3576 
Q 2541 3569 2628 3553 
L 2631 2963 
z
" transform="scale(0.015625)"/>
       <path id="DejaVuSans-64" d="M 2906 2969 
L 2906 4863 
L 3481 4863 
L 3481 0 
L 2906 0 
L 2906 525 
Q 2725 213 2448 61 
Q 2172 -91 1784 -91 
Q 1150 -91 751 415 
Q 353 922 353 1747 
Q 353 2572 751 3078 
Q 1150 3584 1784 3584 
Q 2172 3584 2448 3432 
Q 2725 3281 2906 2969 
z
M 947 1747 
Q 947 1113 1208 752 
Q 1469 391 1925 391 
Q 2381 391 2643 752 
Q 2906 1113 2906 1747 
Q 2906 2381 2643 2742 
Q 2381 3103 1925 3103 
Q 1469 3103 1208 2742 
Q 947 2381 947 1747 
z
" transform="scale(0.015625)"/>
      </defs>
      <use xlink:href="#DejaVuSans-31"/>
      <use xlink:href="#DejaVuSans-2d" x="63.623047"/>
      <use xlink:href="#DejaVuSans-73" x="99.707031"/>
      <use xlink:href="#DejaVuSans-74" x="151.806641"/>
      <use xlink:href="#DejaVuSans-65" x="191.015625"/>
      <use xlink:href="#DejaVuSans-70" x="252.539062"/>
      <use xlink:href="#DejaVuSans-20" x="316.015625"/>
      <use xlink:href="#DejaVuSans-70" x="347.802734"/>
      <use xlink:href="#DejaVuSans-72" x="411.279297"/>
      <use xlink:href="#DejaVuSans-65" x="450.142578"/>
      <use xlink:href="#DejaVuSans-64" x="511.666016"/>
      <use xlink:href="#DejaVuSans-73" x="575.142578"/>
     </g>
    </g>
    <g id="line2d_17">
     <path d="M 66.6 263.648062 
L 76.6 263.648062 
L 86.6 263.648062 
" style="fill: none; stroke: #ff7f0e; stroke-width: 1.5; stroke-linecap: square"/>
    </g>
    <g id="text_13">
     <!-- 4-step preds -->
     <g transform="translate(94.6 267.148062)scale(0.1 -0.1)">
      <use xlink:href="#DejaVuSans-34"/>
      <use xlink:href="#DejaVuSans-2d" x="63.623047"/>
      <use xlink:href="#DejaVuSans-73" x="99.707031"/>
      <use xlink:href="#DejaVuSans-74" x="151.806641"/>
      <use xlink:href="#DejaVuSans-65" x="191.015625"/>
      <use xlink:href="#DejaVuSans-70" x="252.539062"/>
      <use xlink:href="#DejaVuSans-20" x="316.015625"/>
      <use xlink:href="#DejaVuSans-70" x="347.802734"/>
      <use xlink:href="#DejaVuSans-72" x="411.279297"/>
      <use xlink:href="#DejaVuSans-65" x="450.142578"/>
      <use xlink:href="#DejaVuSans-64" x="511.666016"/>
      <use xlink:href="#DejaVuSans-73" x="575.142578"/>
     </g>
    </g>
    <g id="line2d_18">
     <path d="M 66.6 278.326187 
L 76.6 278.326187 
L 86.6 278.326187 
" style="fill: none; stroke: #2ca02c; stroke-width: 1.5; stroke-linecap: square"/>
    </g>
    <g id="text_14">
     <!-- 16-step preds -->
     <g transform="translate(94.6 281.826187)scale(0.1 -0.1)">
      <use xlink:href="#DejaVuSans-31"/>
      <use xlink:href="#DejaVuSans-36" x="63.623047"/>
      <use xlink:href="#DejaVuSans-2d" x="127.246094"/>
      <use xlink:href="#DejaVuSans-73" x="163.330078"/>
      <use xlink:href="#DejaVuSans-74" x="215.429688"/>
      <use xlink:href="#DejaVuSans-65" x="254.638672"/>
      <use xlink:href="#DejaVuSans-70" x="316.162109"/>
      <use xlink:href="#DejaVuSans-20" x="379.638672"/>
      <use xlink:href="#DejaVuSans-70" x="411.425781"/>
      <use xlink:href="#DejaVuSans-72" x="474.902344"/>
      <use xlink:href="#DejaVuSans-65" x="513.765625"/>
      <use xlink:href="#DejaVuSans-64" x="575.289062"/>
      <use xlink:href="#DejaVuSans-73" x="638.765625"/>
     </g>
    </g>
    <g id="line2d_19">
     <path d="M 66.6 293.004312 
L 76.6 293.004312 
L 86.6 293.004312 
" style="fill: none; stroke: #d62728; stroke-width: 1.5; stroke-linecap: square"/>
    </g>
    <g id="text_15">
     <!-- 64-step preds -->
     <g transform="translate(94.6 296.504312)scale(0.1 -0.1)">
      <use xlink:href="#DejaVuSans-36"/>
      <use xlink:href="#DejaVuSans-34" x="63.623047"/>
      <use xlink:href="#DejaVuSans-2d" x="127.246094"/>
      <use xlink:href="#DejaVuSans-73" x="163.330078"/>
      <use xlink:href="#DejaVuSans-74" x="215.429688"/>
      <use xlink:href="#DejaVuSans-65" x="254.638672"/>
      <use xlink:href="#DejaVuSans-70" x="316.162109"/>
      <use xlink:href="#DejaVuSans-20" x="379.638672"/>
      <use xlink:href="#DejaVuSans-70" x="411.425781"/>
      <use xlink:href="#DejaVuSans-72" x="474.902344"/>
      <use xlink:href="#DejaVuSans-65" x="513.765625"/>
      <use xlink:href="#DejaVuSans-64" x="575.289062"/>
      <use xlink:href="#DejaVuSans-73" x="638.765625"/>
     </g>
    </g>
   </g>
  </g>
 </g>
 <defs>
  <clipPath id="p97be5401dc">
   <rect x="57.6" y="41.472" width="357.12" height="266.112"/>
  </clipPath>
 </defs>
</svg>
