<?xml version="1.0" encoding="utf-8" standalone="no"?>
<!DOCTYPE svg PUBLIC "-//W3C//DTD SVG 1.1//EN"
  "http://www.w3.org/Graphics/SVG/1.1/DTD/svg11.dtd">
<svg xmlns:xlink="http://www.w3.org/1999/xlink" width="460.8pt" height="345.6pt" viewBox="0 0 460.8 345.6" xmlns="http://www.w3.org/2000/svg" version="1.1">
 <metadata>
  <rdf:RDF xmlns:dc="http://purl.org/dc/elements/1.1/" xmlns:cc="http://creativecommons.org/ns#" xmlns:rdf="http://www.w3.org/1999/02/22-rdf-syntax-ns#">
   <cc:Work>
    <dc:type rdf:resource="http://purl.org/dc/dcmitype/StillImage"/>
    <dc:date>2023-03-25T17:08:55.235548</dc:date>
    <dc:format>image/svg+xml</dc:format>
    <dc:creator>
     <cc:Agent>
      <dc:title>Matplotlib v3.5.1, https://matplotlib.org/</dc:title>
     </cc:Agent>
    </dc:creator>
   </cc:Work>
  </rdf:RDF>
 </metadata>
 <defs>
  <style type="text/css">*{stroke-linejoin: round; stroke-linecap: butt}</style>
 </defs>
 <g id="figure_1">
  <g id="patch_1">
   <path d="M 0 345.6 
L 460.8 345.6 
L 460.8 0 
L 0 0 
z
" style="fill: #ffffff"/>
  </g>
  <g id="axes_1">
   <g id="patch_2">
    <path d="M 57.6 307.584 
L 414.72 307.584 
L 414.72 41.472 
L 57.6 41.472 
z
" style="fill: #ffffff"/>
   </g>
   <g id="matplotlib.axis_1">
    <g id="xtick_1">
     <g id="line2d_1">
      <defs>
       <path id="md1dc7aeb8d" d="M 0 0 
L 0 3.5 
" style="stroke: #000000; stroke-width: 0.8"/>
      </defs>
      <g>
       <use xlink:href="#md1dc7aeb8d" x="73.507748" y="307.584" style="stroke: #000000; stroke-width: 0.8"/>
      </g>
     </g>
     <g id="text_1">
      <!-- 0 -->
      <g transform="translate(70.326498 322.182437)scale(0.1 -0.1)">
       <defs>
        <path id="DejaVuSans-30" d="M 2034 4250 
Q 1547 4250 1301 3770 
Q 1056 3291 1056 2328 
Q 1056 1369 1301 889 
Q 1547 409 2034 409 
Q 2525 409 2770 889 
Q 3016 1369 3016 2328 
Q 3016 3291 2770 3770 
Q 2525 4250 2034 4250 
z
M 2034 4750 
Q 2819 4750 3233 4129 
Q 3647 3509 3647 2328 
Q 3647 1150 3233 529 
Q 2819 -91 2034 -91 
Q 1250 -91 836 529 
Q 422 1150 422 2328 
Q 422 3509 836 4129 
Q 1250 4750 2034 4750 
z
" transform="scale(0.015625)"/>
       </defs>
       <use xlink:href="#DejaVuSans-30"/>
      </g>
     </g>
    </g>
    <g id="xtick_2">
     <g id="line2d_2">
      <g>
       <use xlink:href="#md1dc7aeb8d" x="138.503653" y="307.584" style="stroke: #000000; stroke-width: 0.8"/>
      </g>
     </g>
     <g id="text_2">
      <!-- 200 -->
      <g transform="translate(128.959903 322.182437)scale(0.1 -0.1)">
       <defs>
        <path id="DejaVuSans-32" d="M 1228 531 
L 3431 531 
L 3431 0 
L 469 0 
L 469 531 
Q 828 903 1448 1529 
Q 2069 2156 2228 2338 
Q 2531 2678 2651 2914 
Q 2772 3150 2772 3378 
Q 2772 3750 2511 3984 
Q 2250 4219 1831 4219 
Q 1534 4219 1204 4116 
Q 875 4013 500 3803 
L 500 4441 
Q 881 4594 1212 4672 
Q 1544 4750 1819 4750 
Q 2544 4750 2975 4387 
Q 3406 4025 3406 3419 
Q 3406 3131 3298 2873 
Q 3191 2616 2906 2266 
Q 2828 2175 2409 1742 
Q 1991 1309 1228 531 
z
" transform="scale(0.015625)"/>
       </defs>
       <use xlink:href="#DejaVuSans-32"/>
       <use xlink:href="#DejaVuSans-30" x="63.623047"/>
       <use xlink:href="#DejaVuSans-30" x="127.246094"/>
      </g>
     </g>
    </g>
    <g id="xtick_3">
     <g id="line2d_3">
      <g>
       <use xlink:href="#md1dc7aeb8d" x="203.499558" y="307.584" style="stroke: #000000; stroke-width: 0.8"/>
      </g>
     </g>
     <g id="text_3">
      <!-- 400 -->
      <g transform="translate(193.955808 322.182437)scale(0.1 -0.1)">
       <defs>
        <path id="DejaVuSans-34" d="M 2419 4116 
L 825 1625 
L 2419 1625 
L 2419 4116 
z
M 2253 4666 
L 3047 4666 
L 3047 1625 
L 3713 1625 
L 3713 1100 
L 3047 1100 
L 3047 0 
L 2419 0 
L 2419 1100 
L 313 1100 
L 313 1709 
L 2253 4666 
z
" transform="scale(0.015625)"/>
       </defs>
       <use xlink:href="#DejaVuSans-34"/>
       <use xlink:href="#DejaVuSans-30" x="63.623047"/>
       <use xlink:href="#DejaVuSans-30" x="127.246094"/>
      </g>
     </g>
    </g>
    <g id="xtick_4">
     <g id="line2d_4">
      <g>
       <use xlink:href="#md1dc7aeb8d" x="268.495463" y="307.584" style="stroke: #000000; stroke-width: 0.8"/>
      </g>
     </g>
     <g id="text_4">
      <!-- 600 -->
      <g transform="translate(258.951713 322.182437)scale(0.1 -0.1)">
       <defs>
        <path id="DejaVuSans-36" d="M 2113 2584 
Q 1688 2584 1439 2293 
Q 1191 2003 1191 1497 
Q 1191 994 1439 701 
Q 1688 409 2113 409 
Q 2538 409 2786 701 
Q 3034 994 3034 1497 
Q 3034 2003 2786 2293 
Q 2538 2584 2113 2584 
z
M 3366 4563 
L 3366 3988 
Q 3128 4100 2886 4159 
Q 2644 4219 2406 4219 
Q 1781 4219 1451 3797 
Q 1122 3375 1075 2522 
Q 1259 2794 1537 2939 
Q 1816 3084 2150 3084 
Q 2853 3084 3261 2657 
Q 3669 2231 3669 1497 
Q 3669 778 3244 343 
Q 2819 -91 2113 -91 
Q 1303 -91 875 529 
Q 447 1150 447 2328 
Q 447 3434 972 4092 
Q 1497 4750 2381 4750 
Q 2619 4750 2861 4703 
Q 3103 4656 3366 4563 
z
" transform="scale(0.015625)"/>
       </defs>
       <use xlink:href="#DejaVuSans-36"/>
       <use xlink:href="#DejaVuSans-30" x="63.623047"/>
       <use xlink:href="#DejaVuSans-30" x="127.246094"/>
      </g>
     </g>
    </g>
    <g id="xtick_5">
     <g id="line2d_5">
      <g>
       <use xlink:href="#md1dc7aeb8d" x="333.491368" y="307.584" style="stroke: #000000; stroke-width: 0.8"/>
      </g>
     </g>
     <g id="text_5">
      <!-- 800 -->
      <g transform="translate(323.947618 322.182437)scale(0.1 -0.1)">
       <defs>
        <path id="DejaVuSans-38" d="M 2034 2216 
Q 1584 2216 1326 1975 
Q 1069 1734 1069 1313 
Q 1069 891 1326 650 
Q 1584 409 2034 409 
Q 2484 409 2743 651 
Q 3003 894 3003 1313 
Q 3003 1734 2745 1975 
Q 2488 2216 2034 2216 
z
M 1403 2484 
Q 997 2584 770 2862 
Q 544 3141 544 3541 
Q 544 4100 942 4425 
Q 1341 4750 2034 4750 
Q 2731 4750 3128 4425 
Q 3525 4100 3525 3541 
Q 3525 3141 3298 2862 
Q 3072 2584 2669 2484 
Q 3125 2378 3379 2068 
Q 3634 1759 3634 1313 
Q 3634 634 3220 271 
Q 2806 -91 2034 -91 
Q 1263 -91 848 271 
Q 434 634 434 1313 
Q 434 1759 690 2068 
Q 947 2378 1403 2484 
z
M 1172 3481 
Q 1172 3119 1398 2916 
Q 1625 2713 2034 2713 
Q 2441 2713 2670 2916 
Q 2900 3119 2900 3481 
Q 2900 3844 2670 4047 
Q 2441 4250 2034 4250 
Q 1625 4250 1398 4047 
Q 1172 3844 1172 3481 
z
" transform="scale(0.015625)"/>
       </defs>
       <use xlink:href="#DejaVuSans-38"/>
       <use xlink:href="#DejaVuSans-30" x="63.623047"/>
       <use xlink:href="#DejaVuSans-30" x="127.246094"/>
      </g>
     </g>
    </g>
    <g id="xtick_6">
     <g id="line2d_6">
      <g>
       <use xlink:href="#md1dc7aeb8d" x="398.487273" y="307.584" style="stroke: #000000; stroke-width: 0.8"/>
      </g>
     </g>
     <g id="text_6">
      <!-- 1000 -->
      <g transform="translate(385.762273 322.182437)scale(0.1 -0.1)">
       <defs>
        <path id="DejaVuSans-31" d="M 794 531 
L 1825 531 
L 1825 4091 
L 703 3866 
L 703 4441 
L 1819 4666 
L 2450 4666 
L 2450 531 
L 3481 531 
L 3481 0 
L 794 0 
L 794 531 
z
" transform="scale(0.015625)"/>
       </defs>
       <use xlink:href="#DejaVuSans-31"/>
       <use xlink:href="#DejaVuSans-30" x="63.623047"/>
       <use xlink:href="#DejaVuSans-30" x="127.246094"/>
       <use xlink:href="#DejaVuSans-30" x="190.869141"/>
      </g>
     </g>
    </g>
   </g>
   <g id="matplotlib.axis_2">
    <g id="ytick_1">
     <g id="line2d_7">
      <defs>
       <path id="m4ff60a6cf4" d="M 0 0 
L -3.5 0 
" style="stroke: #000000; stroke-width: 0.8"/>
      </defs>
      <g>
       <use xlink:href="#m4ff60a6cf4" x="57.6" y="295.657239" style="stroke: #000000; stroke-width: 0.8"/>
      </g>
     </g>
     <g id="text_7">
      <!-- −1.5 -->
      <g transform="translate(26.317187 299.456458)scale(0.1 -0.1)">
       <defs>
        <path id="DejaVuSans-2212" d="M 678 2272 
L 4684 2272 
L 4684 1741 
L 678 1741 
L 678 2272 
z
" transform="scale(0.015625)"/>
        <path id="DejaVuSans-2e" d="M 684 794 
L 1344 794 
L 1344 0 
L 684 0 
L 684 794 
z
" transform="scale(0.015625)"/>
        <path id="DejaVuSans-35" d="M 691 4666 
L 3169 4666 
L 3169 4134 
L 1269 4134 
L 1269 2991 
Q 1406 3038 1543 3061 
Q 1681 3084 1819 3084 
Q 2600 3084 3056 2656 
Q 3513 2228 3513 1497 
Q 3513 744 3044 326 
Q 2575 -91 1722 -91 
Q 1428 -91 1123 -41 
Q 819 9 494 109 
L 494 744 
Q 775 591 1075 516 
Q 1375 441 1709 441 
Q 2250 441 2565 725 
Q 2881 1009 2881 1497 
Q 2881 1984 2565 2268 
Q 2250 2553 1709 2553 
Q 1456 2553 1204 2497 
Q 953 2441 691 2322 
L 691 4666 
z
" transform="scale(0.015625)"/>
       </defs>
       <use xlink:href="#DejaVuSans-2212"/>
       <use xlink:href="#DejaVuSans-31" x="83.789062"/>
       <use xlink:href="#DejaVuSans-2e" x="147.412109"/>
       <use xlink:href="#DejaVuSans-35" x="179.199219"/>
      </g>
     </g>
    </g>
    <g id="ytick_2">
     <g id="line2d_8">
      <g>
       <use xlink:href="#m4ff60a6cf4" x="57.6" y="254.454483" style="stroke: #000000; stroke-width: 0.8"/>
      </g>
     </g>
     <g id="text_8">
      <!-- −1.0 -->
      <g transform="translate(26.317187 258.253702)scale(0.1 -0.1)">
       <use xlink:href="#DejaVuSans-2212"/>
       <use xlink:href="#DejaVuSans-31" x="83.789062"/>
       <use xlink:href="#DejaVuSans-2e" x="147.412109"/>
       <use xlink:href="#DejaVuSans-30" x="179.199219"/>
      </g>
     </g>
    </g>
    <g id="ytick_3">
     <g id="line2d_9">
      <g>
       <use xlink:href="#m4ff60a6cf4" x="57.6" y="213.251727" style="stroke: #000000; stroke-width: 0.8"/>
      </g>
     </g>
     <g id="text_9">
      <!-- −0.5 -->
      <g transform="translate(26.317187 217.050945)scale(0.1 -0.1)">
       <use xlink:href="#DejaVuSans-2212"/>
       <use xlink:href="#DejaVuSans-30" x="83.789062"/>
       <use xlink:href="#DejaVuSans-2e" x="147.412109"/>
       <use xlink:href="#DejaVuSans-35" x="179.199219"/>
      </g>
     </g>
    </g>
    <g id="ytick_4">
     <g id="line2d_10">
      <g>
       <use xlink:href="#m4ff60a6cf4" x="57.6" y="172.04897" style="stroke: #000000; stroke-width: 0.8"/>
      </g>
     </g>
     <g id="text_10">
      <!-- 0.0 -->
      <g transform="translate(34.696875 175.848189)scale(0.1 -0.1)">
       <use xlink:href="#DejaVuSans-30"/>
       <use xlink:href="#DejaVuSans-2e" x="63.623047"/>
       <use xlink:href="#DejaVuSans-30" x="95.410156"/>
      </g>
     </g>
    </g>
    <g id="ytick_5">
     <g id="line2d_11">
      <g>
       <use xlink:href="#m4ff60a6cf4" x="57.6" y="130.846214" style="stroke: #000000; stroke-width: 0.8"/>
      </g>
     </g>
     <g id="text_11">
      <!-- 0.5 -->
      <g transform="translate(34.696875 134.645433)scale(0.1 -0.1)">
       <use xlink:href="#DejaVuSans-30"/>
       <use xlink:href="#DejaVuSans-2e" x="63.623047"/>
       <use xlink:href="#DejaVuSans-35" x="95.410156"/>
      </g>
     </g>
    </g>
    <g id="ytick_6">
     <g id="line2d_12">
      <g>
       <use xlink:href="#m4ff60a6cf4" x="57.6" y="89.643458" style="stroke: #000000; stroke-width: 0.8"/>
      </g>
     </g>
     <g id="text_12">
      <!-- 1.0 -->
      <g transform="translate(34.696875 93.442676)scale(0.1 -0.1)">
       <use xlink:href="#DejaVuSans-31"/>
       <use xlink:href="#DejaVuSans-2e" x="63.623047"/>
       <use xlink:href="#DejaVuSans-30" x="95.410156"/>
      </g>
     </g>
    </g>
    <g id="ytick_7">
     <g id="line2d_13">
      <g>
       <use xlink:href="#m4ff60a6cf4" x="57.6" y="48.440701" style="stroke: #000000; stroke-width: 0.8"/>
      </g>
     </g>
     <g id="text_13">
      <!-- 1.5 -->
      <g transform="translate(34.696875 52.23992)scale(0.1 -0.1)">
       <use xlink:href="#DejaVuSans-31"/>
       <use xlink:href="#DejaVuSans-2e" x="63.623047"/>
       <use xlink:href="#DejaVuSans-35" x="95.410156"/>
      </g>
     </g>
    </g>
   </g>
   <g id="line2d_14">
    <path d="M 73.832727 157.565331 
L 74.157707 167.994542 
L 74.482686 166.937693 
L 74.807666 154.753115 
L 75.132645 178.634398 
L 75.457625 177.735047 
L 75.782604 184.955954 
L 76.107584 160.221913 
L 76.432563 173.80591 
L 76.757543 157.525488 
L 77.082523 155.124087 
L 77.407502 192.830772 
L 77.732482 160.825496 
L 78.057461 158.687896 
L 78.382441 172.291327 
L 78.70742 144.656035 
L 79.357379 164.699422 
L 79.682359 156.623479 
L 80.007338 168.777465 
L 80.332318 135.393359 
L 80.657297 158.163689 
L 80.982277 155.45293 
L 81.307256 160.315797 
L 81.632236 138.667932 
L 81.957215 158.981014 
L 82.282195 160.340537 
L 82.607174 152.511288 
L 82.932154 164.933632 
L 83.582113 127.538248 
L 83.907093 115.757722 
L 84.232072 131.071123 
L 84.557052 172.188007 
L 84.882031 159.231232 
L 85.207011 126.009224 
L 85.53199 142.544709 
L 85.85697 123.186014 
L 86.181949 142.658129 
L 86.506929 136.561172 
L 86.831908 123.366462 
L 87.156888 150.359836 
L 87.481867 167.869424 
L 87.806847 154.42151 
L 88.131826 149.648246 
L 88.456806 149.164144 
L 88.781785 130.674362 
L 89.106765 142.907523 
L 89.431744 130.459885 
L 89.756724 169.640284 
L 90.081704 102.831932 
L 90.406683 130.014325 
L 90.731663 145.028395 
L 91.056642 120.490371 
L 91.706601 141.730485 
L 92.031581 119.580395 
L 92.35656 148.598541 
L 92.68154 115.637845 
L 93.006519 153.907562 
L 93.331499 108.320593 
L 93.656478 123.896901 
L 93.981458 98.146441 
L 94.306437 93.683108 
L 94.956396 132.105626 
L 95.281376 118.602456 
L 95.606355 115.199914 
L 95.931335 124.833661 
L 96.256314 100.490766 
L 96.581294 99.377164 
L 96.906274 87.085084 
L 97.231253 103.421107 
L 97.556233 110.93869 
L 97.881212 121.145599 
L 98.206192 116.414497 
L 98.531171 101.947242 
L 98.856151 133.385349 
L 99.18113 147.030764 
L 99.50611 101.771932 
L 99.831089 128.61148 
L 100.156069 90.820579 
L 100.481048 110.470428 
L 100.806028 138.490156 
L 101.131007 108.38393 
L 101.455987 92.511812 
L 101.780966 104.174348 
L 102.430925 146.015063 
L 102.755905 90.986124 
L 103.080885 107.061834 
L 103.405864 88.997415 
L 104.055823 110.369079 
L 104.380803 91.428285 
L 104.705782 139.097168 
L 105.355741 91.176828 
L 105.680721 117.331054 
L 106.0057 89.97673 
L 106.33068 113.336921 
L 106.655659 118.063774 
L 106.980639 101.72394 
L 107.305618 94.209937 
L 107.630598 111.411932 
L 107.955577 90.334065 
L 108.280557 101.751067 
L 108.605536 94.558495 
L 108.930516 114.773146 
L 109.255495 121.95481 
L 109.905455 63.53801 
L 110.230434 119.401804 
L 110.555414 102.787226 
L 111.205373 93.656992 
L 111.530352 98.427442 
L 111.855332 87.182395 
L 112.180311 95.625386 
L 112.505291 96.394488 
L 112.83027 97.608786 
L 113.15525 94.639087 
L 113.480229 80.447097 
L 114.130188 100.898903 
L 114.455168 74.85278 
L 114.780147 89.14633 
L 115.105127 93.625076 
L 115.430106 99.958327 
L 115.755086 111.040599 
L 116.080066 102.798901 
L 116.405045 86.231981 
L 116.730025 82.840014 
L 117.055004 102.081377 
L 117.379984 93.862888 
L 117.704963 102.462736 
L 118.029943 97.251505 
L 118.354922 103.622253 
L 118.679902 104.315517 
L 119.004881 100.486556 
L 119.329861 91.642231 
L 119.65484 133.539853 
L 120.304799 82.602256 
L 120.629779 93.210136 
L 120.954758 71.827072 
L 121.279738 97.142842 
L 121.604717 99.520287 
L 121.929697 109.393104 
L 122.254676 100.062122 
L 122.579656 81.338934 
L 122.904636 110.86938 
L 123.229615 67.111211 
L 123.554595 75.78616 
L 123.879574 73.13072 
L 124.204554 81.506945 
L 124.529533 79.238306 
L 124.854513 85.286636 
L 125.179492 74.397912 
L 125.504472 75.563422 
L 125.829451 100.307611 
L 126.154431 82.455051 
L 126.80439 124.483924 
L 127.129369 84.749477 
L 127.454349 120.980328 
L 128.104308 57.656748 
L 128.429287 72.004396 
L 128.754267 66.781731 
L 129.079247 86.399128 
L 129.404226 74.08359 
L 129.729206 74.798888 
L 130.054185 120.906603 
L 130.379165 93.669055 
L 130.704144 93.306175 
L 131.029124 75.738977 
L 131.354103 105.683725 
L 131.679083 94.211327 
L 132.004062 95.732487 
L 132.329042 82.55529 
L 132.654021 111.390119 
L 132.979001 85.338514 
L 133.30398 79.380068 
L 133.62896 111.940785 
L 133.953939 92.012543 
L 134.278919 101.08939 
L 134.603898 70.798699 
L 134.928878 116.445568 
L 135.253857 91.45001 
L 135.578837 82.34041 
L 135.903817 105.543931 
L 136.228796 107.837253 
L 136.553776 82.430983 
L 136.878755 97.971808 
L 137.203735 99.201608 
L 137.528714 101.819498 
L 137.853694 75.16887 
L 138.178673 128.15509 
L 138.503653 117.36437 
L 138.828632 131.482745 
L 139.153612 74.827347 
L 139.478591 100.55985 
L 139.803571 80.970002 
L 140.12855 69.620242 
L 140.778509 130.824244 
L 141.103489 135.814026 
L 141.428468 95.303858 
L 141.753448 105.883515 
L 142.078428 83.074177 
L 142.403407 115.208804 
L 142.728387 91.877062 
L 143.053366 117.450296 
L 143.378346 87.764398 
L 143.703325 115.614544 
L 144.028305 92.291393 
L 144.353284 129.530042 
L 144.678264 134.470426 
L 145.003243 117.930445 
L 145.328223 118.430397 
L 145.653202 89.812663 
L 146.303161 121.150486 
L 146.628141 131.673338 
L 146.95312 114.773633 
L 147.2781 115.056947 
L 147.603079 122.151029 
L 147.928059 84.466177 
L 148.253038 132.089445 
L 148.578018 120.980171 
L 148.902998 100.370811 
L 149.227977 130.636777 
L 149.552957 95.868695 
L 149.877936 105.680061 
L 150.202916 97.23368 
L 150.527895 133.091592 
L 150.852875 93.535962 
L 151.177854 138.986319 
L 151.502834 105.599714 
L 151.827813 136.925862 
L 152.152793 132.546878 
L 152.477772 149.442817 
L 152.802752 156.03045 
L 153.452711 73.629714 
L 153.77769 145.16644 
L 154.10267 95.657229 
L 154.427649 120.449952 
L 154.752629 117.188382 
L 155.077609 122.046974 
L 155.402588 144.771297 
L 155.727568 121.654348 
L 156.052547 111.921276 
L 156.377527 130.714825 
L 156.702506 137.604479 
L 157.027486 124.58687 
L 157.352465 116.302631 
L 157.677445 165.525853 
L 158.002424 125.093915 
L 158.327404 146.382737 
L 158.652383 134.299205 
L 158.977363 136.903268 
L 159.302342 121.408515 
L 159.627322 141.090752 
L 159.952301 145.649208 
L 160.277281 141.12178 
L 160.60226 165.761194 
L 160.92724 114.801969 
L 161.252219 113.179597 
L 161.577199 110.25632 
L 161.902179 141.140508 
L 162.552138 165.882178 
L 162.877117 129.083922 
L 163.202097 121.295009 
L 163.527076 140.41181 
L 163.852056 177.370575 
L 164.502015 119.59018 
L 164.826994 164.278069 
L 165.151974 146.044116 
L 165.476953 150.413914 
L 165.801933 129.413942 
L 166.126912 176.923557 
L 166.451892 130.431343 
L 166.776871 171.27367 
L 167.101851 142.307606 
L 167.42683 157.237516 
L 167.75181 165.220627 
L 168.07679 136.887408 
L 168.401769 157.496979 
L 168.726749 165.642258 
L 169.051728 146.009065 
L 169.376708 169.034139 
L 170.026667 141.514756 
L 170.351646 161.596536 
L 170.676626 141.467599 
L 171.001605 162.286927 
L 171.326585 140.752038 
L 171.651564 158.19902 
L 171.976544 125.820245 
L 172.301523 159.308391 
L 172.626503 149.420972 
L 172.951482 156.873577 
L 173.276462 169.929781 
L 173.601441 174.668366 
L 173.926421 183.295643 
L 174.2514 184.043713 
L 174.57638 188.787467 
L 174.90136 172.867049 
L 175.226339 172.46839 
L 175.551319 191.462379 
L 175.876298 157.19466 
L 176.526257 221.850317 
L 176.851237 153.235656 
L 177.176216 164.036538 
L 177.501196 207.119914 
L 177.826175 197.988614 
L 178.151155 179.795537 
L 178.476134 171.997662 
L 178.801114 218.273354 
L 179.126093 209.254634 
L 179.451073 176.924918 
L 179.776052 169.015392 
L 180.101032 195.087918 
L 180.426011 185.62179 
L 180.750991 167.828536 
L 181.075971 204.262451 
L 181.40095 173.613287 
L 181.72593 168.171051 
L 182.050909 193.929943 
L 182.375889 200.854137 
L 182.700868 180.897759 
L 183.025848 172.147229 
L 183.350827 191.533047 
L 183.675807 193.704334 
L 184.000786 166.550901 
L 184.650745 217.500735 
L 184.975725 192.657024 
L 185.300704 203.793064 
L 185.625684 191.523472 
L 185.950663 215.801009 
L 186.275643 167.121646 
L 186.600622 195.274172 
L 186.925602 207.987867 
L 187.575561 175.03683 
L 187.900541 199.521825 
L 188.22552 184.000537 
L 188.5505 225.180632 
L 188.875479 195.733973 
L 189.200459 182.785685 
L 189.525438 205.704212 
L 189.850418 212.641697 
L 190.175397 206.173407 
L 190.500377 178.243929 
L 190.825356 207.309907 
L 191.150336 200.298557 
L 191.475315 223.497252 
L 191.800295 188.494727 
L 192.125274 201.875128 
L 192.450254 223.697479 
L 192.775233 212.517968 
L 193.100213 222.593215 
L 193.425192 219.96278 
L 193.750172 212.779246 
L 194.075152 211.169517 
L 195.05009 232.335207 
L 195.37507 198.961114 
L 195.700049 185.715199 
L 196.025029 224.551309 
L 196.350008 243.161325 
L 196.674988 219.511444 
L 196.999967 253.029771 
L 197.324947 238.763324 
L 197.649926 211.463903 
L 197.974906 252.886357 
L 198.299885 192.637222 
L 198.624865 231.528786 
L 198.949844 226.095573 
L 199.274824 208.860159 
L 199.599803 254.058547 
L 199.924783 214.024527 
L 200.249762 254.261068 
L 200.574742 232.004425 
L 200.899722 227.101151 
L 201.224701 236.252638 
L 201.549681 233.579913 
L 201.87466 203.878639 
L 202.524619 252.411332 
L 202.849599 217.702407 
L 203.174578 246.248808 
L 203.499558 240.002033 
L 203.824537 224.956165 
L 204.149517 230.303323 
L 204.474496 232.799465 
L 204.799476 217.367868 
L 205.124455 243.712552 
L 205.449435 238.119752 
L 205.774414 234.977935 
L 206.099394 216.658336 
L 206.424373 266.389184 
L 206.749353 224.54848 
L 207.074333 238.195844 
L 207.399312 264.171931 
L 207.724292 268.375575 
L 208.049271 241.961326 
L 208.374251 260.569181 
L 208.69923 212.15385 
L 209.02421 220.764854 
L 209.349189 256.415156 
L 209.674169 267.705975 
L 209.999148 232.356759 
L 210.324128 248.502585 
L 210.649107 248.186214 
L 210.974087 245.583074 
L 211.299066 238.012405 
L 211.624046 254.017912 
L 211.949025 246.71203 
L 212.274005 243.484494 
L 212.598984 221.6634 
L 212.923964 254.675099 
L 213.573923 212.927468 
L 213.898903 282.465159 
L 214.223882 239.675392 
L 214.548862 268.273312 
L 214.873841 244.042921 
L 215.198821 233.486359 
L 215.5238 247.367892 
L 215.84878 234.13278 
L 216.498739 227.447189 
L 216.823718 244.825505 
L 217.148698 250.492016 
L 217.473677 245.492836 
L 217.798657 255.704887 
L 218.448616 231.684542 
L 218.773595 266.497999 
L 219.098575 248.231874 
L 219.748534 271.666969 
L 220.073514 220.865098 
L 220.398493 246.779896 
L 220.723473 260.045687 
L 221.048452 251.811612 
L 221.373432 236.993905 
L 221.698411 233.488358 
L 222.023391 259.257213 
L 222.34837 259.97258 
L 222.67335 236.072077 
L 222.998329 264.925384 
L 223.323309 263.686532 
L 223.648288 245.89056 
L 223.973268 247.144432 
L 224.298247 266.452801 
L 224.623227 255.055004 
L 224.948206 275.01697 
L 225.273186 255.065485 
L 225.598165 265.458181 
L 225.923145 234.521285 
L 226.248124 264.614087 
L 226.573104 232.962884 
L 227.223063 267.929824 
L 227.873022 256.295682 
L 228.198002 260.544907 
L 228.522981 260.584742 
L 228.847961 239.621372 
L 229.17294 252.196959 
L 229.49792 255.102166 
L 230.147879 234.207674 
L 230.472858 276.584123 
L 230.797838 270.188728 
L 231.122817 236.21382 
L 231.447797 260.131092 
L 231.772776 257.119157 
L 232.097756 261.734268 
L 232.422735 257.685335 
L 232.747715 227.124939 
L 233.072695 260.784827 
L 233.397674 260.591097 
L 233.722654 295.488 
L 234.047633 251.355104 
L 234.372613 233.675118 
L 234.697592 258.129053 
L 235.022572 253.591793 
L 235.347551 257.621384 
L 235.672531 255.486059 
L 235.99751 228.091316 
L 236.32249 249.844922 
L 236.647469 229.092046 
L 236.972449 272.381314 
L 237.297428 245.941878 
L 237.622408 267.576384 
L 237.947387 237.959496 
L 238.272367 281.305829 
L 238.597346 269.204561 
L 238.922326 230.355697 
L 239.247305 260.804425 
L 239.572285 253.192305 
L 239.897265 231.574666 
L 240.222244 269.745001 
L 240.547224 224.465314 
L 240.872203 241.775293 
L 241.197183 275.440795 
L 241.847142 229.553048 
L 242.172121 243.205315 
L 242.497101 263.899015 
L 242.82208 231.460281 
L 243.14706 247.42783 
L 243.472039 243.468059 
L 243.797019 236.315518 
L 244.121998 245.893875 
L 244.446978 206.463595 
L 244.771957 258.137727 
L 245.096937 235.887837 
L 245.421916 249.129216 
L 245.746896 243.952515 
L 246.071876 232.073445 
L 246.396855 256.818175 
L 246.721835 259.70485 
L 247.046814 229.334323 
L 247.371794 238.893942 
L 247.696773 204.807513 
L 248.021753 278.262773 
L 248.346732 244.29371 
L 248.671712 224.089476 
L 248.996691 232.427346 
L 249.321671 247.982701 
L 249.64665 248.014941 
L 249.97163 251.878982 
L 250.296609 251.571432 
L 250.621589 247.893022 
L 250.946568 228.610606 
L 251.271548 195.117649 
L 251.596527 228.701149 
L 251.921507 238.963787 
L 252.246486 243.615849 
L 252.571466 245.000536 
L 252.896446 200.171448 
L 253.221425 213.465629 
L 253.546405 244.144923 
L 253.871384 204.010637 
L 254.196364 235.118912 
L 254.521343 201.94765 
L 254.846323 231.322939 
L 255.171302 214.475882 
L 255.496282 244.687937 
L 256.146241 206.546494 
L 256.47122 210.741468 
L 256.7962 199.385804 
L 257.121179 215.461077 
L 257.446159 213.858475 
L 257.771138 230.909492 
L 258.421097 220.016918 
L 258.746077 238.766482 
L 259.071057 202.859016 
L 259.396036 208.417451 
L 259.721016 241.583121 
L 260.045995 216.010819 
L 260.370975 207.815476 
L 260.695954 206.212711 
L 261.020934 219.68336 
L 261.345913 221.597269 
L 261.670893 221.151031 
L 261.995872 184.247491 
L 262.320852 217.873149 
L 262.645831 216.313418 
L 262.970811 171.406629 
L 263.29579 230.179139 
L 263.62077 202.45528 
L 263.945749 203.707978 
L 264.270729 207.670707 
L 264.595708 220.709062 
L 265.245667 180.249434 
L 265.570647 216.790997 
L 265.895627 210.107393 
L 266.220606 200.183843 
L 266.545586 212.697622 
L 266.870565 208.627581 
L 267.195545 180.416804 
L 267.520524 215.692106 
L 267.845504 186.876553 
L 268.170483 219.793929 
L 268.820442 187.734032 
L 269.145422 207.891975 
L 269.470401 207.607815 
L 269.795381 223.929447 
L 270.12036 204.133394 
L 270.44534 193.471687 
L 270.770319 187.233602 
L 271.095299 197.408755 
L 271.420278 190.097921 
L 271.745258 187.056111 
L 272.070238 208.022819 
L 272.395217 147.148282 
L 272.720197 180.237537 
L 273.370156 164.878634 
L 273.695135 176.742007 
L 274.020115 195.93676 
L 274.345094 191.400814 
L 274.670074 217.034983 
L 274.995053 201.322274 
L 275.320033 207.000339 
L 275.645012 193.298756 
L 275.969992 162.337182 
L 276.294971 179.629956 
L 276.619951 151.101572 
L 276.94493 168.872007 
L 277.26991 150.391062 
L 277.594889 181.910712 
L 277.919869 171.480476 
L 278.244848 166.75942 
L 278.569828 187.783934 
L 278.894808 157.179025 
L 279.219787 137.566725 
L 279.544767 153.005389 
L 279.869746 147.957965 
L 280.194726 137.289653 
L 280.519705 155.95135 
L 280.844685 191.150981 
L 281.169664 168.465236 
L 281.494644 176.86206 
L 281.819623 127.048065 
L 282.144603 184.099185 
L 282.469582 180.185661 
L 282.794562 152.141696 
L 283.119541 143.28377 
L 283.444521 161.221023 
L 283.7695 190.037588 
L 284.09448 160.677873 
L 284.419459 170.973475 
L 284.744439 124.268014 
L 285.069419 149.993095 
L 285.394398 140.98692 
L 285.719378 136.776471 
L 286.044357 144.071888 
L 286.369337 138.487244 
L 286.694316 118.398805 
L 287.019296 132.6303 
L 287.344275 132.205296 
L 287.669255 119.125813 
L 287.994234 131.068834 
L 288.319214 172.096072 
L 288.644193 173.175456 
L 289.294152 132.836063 
L 289.619132 167.967993 
L 289.944111 139.342498 
L 290.269091 148.667627 
L 290.59407 128.834695 
L 290.91905 138.526324 
L 291.244029 162.96446 
L 291.569009 135.737663 
L 291.893989 167.606778 
L 292.218968 136.793191 
L 292.543948 126.317186 
L 292.868927 136.947663 
L 293.193907 108.387182 
L 293.518886 113.99039 
L 293.843866 104.104911 
L 294.168845 120.401011 
L 294.493825 144.749555 
L 295.143784 103.966714 
L 295.468763 142.176271 
L 295.793743 118.836707 
L 296.118722 132.876806 
L 296.768681 98.551209 
L 297.093661 137.130417 
L 297.41864 143.63359 
L 297.74362 128.981969 
L 298.0686 119.359789 
L 298.393579 142.829468 
L 298.718559 128.592953 
L 299.043538 130.328211 
L 299.368518 121.87294 
L 299.693497 96.620817 
L 300.018477 146.248717 
L 300.343456 114.744894 
L 300.668436 101.022699 
L 300.993415 98.396488 
L 301.318395 112.991148 
L 301.643374 119.710586 
L 302.293333 107.230499 
L 302.618313 135.780756 
L 302.943292 130.774979 
L 303.268272 129.337609 
L 303.918231 116.492785 
L 304.24321 119.400817 
L 304.56819 98.184939 
L 304.89317 120.397637 
L 305.218149 103.662917 
L 305.543129 107.433934 
L 305.868108 91.222468 
L 306.193088 131.625029 
L 306.518067 113.870902 
L 306.843047 102.432347 
L 307.168026 125.308986 
L 307.493006 117.815667 
L 307.817985 94.747966 
L 308.142965 107.820376 
L 308.467944 95.108862 
L 308.792924 134.837722 
L 309.117903 89.731201 
L 309.442883 101.797704 
L 309.767862 83.291424 
L 310.092842 80.79924 
L 310.417821 109.641879 
L 310.742801 115.168754 
L 311.067781 113.347147 
L 311.39276 106.171408 
L 311.71774 81.675448 
L 312.042719 89.184425 
L 312.367699 106.752831 
L 312.692678 74.902437 
L 313.017658 112.211899 
L 313.342637 85.226212 
L 313.667617 108.895052 
L 313.992596 107.054722 
L 314.317576 98.860624 
L 314.642555 105.717125 
L 314.967535 95.606594 
L 315.292514 103.946831 
L 315.617494 66.540682 
L 315.942473 89.535841 
L 316.267453 96.735182 
L 316.592432 78.363994 
L 316.917412 68.255021 
L 317.242391 70.913575 
L 317.567371 83.009283 
L 317.892351 76.663693 
L 318.21733 90.47237 
L 318.54231 69.628651 
L 318.867289 103.655442 
L 319.192269 87.733975 
L 319.517248 110.086118 
L 319.842228 86.141094 
L 320.167207 84.271092 
L 320.492187 91.845671 
L 320.817166 113.434021 
L 321.142146 86.653852 
L 321.467125 88.708074 
L 321.792105 67.287651 
L 322.117084 118.836068 
L 322.767043 88.91978 
L 323.092023 90.469732 
L 323.417002 112.272544 
L 323.741982 73.92329 
L 324.391941 90.359684 
L 324.716921 78.354603 
L 325.0419 97.345629 
L 325.36688 109.118031 
L 325.691859 74.494448 
L 326.016839 109.331358 
L 326.341818 89.910912 
L 326.666798 102.033183 
L 326.991777 95.783933 
L 327.316757 84.035397 
L 327.641736 98.446917 
L 327.966716 100.598083 
L 328.291695 72.066245 
L 328.616675 85.086187 
L 328.941654 56.35368 
L 329.266634 83.892986 
L 329.591613 101.036078 
L 329.916593 110.558982 
L 330.241572 78.350114 
L 330.566552 83.131428 
L 330.891532 89.593083 
L 331.216511 113.075478 
L 331.541491 86.37622 
L 331.86647 106.583499 
L 332.19145 53.568 
L 332.516429 84.067363 
L 332.841409 88.499226 
L 333.166388 78.681637 
L 333.491368 75.11269 
L 333.816347 86.085346 
L 334.141327 92.601737 
L 334.466306 65.618333 
L 334.791286 98.946541 
L 335.116265 96.563447 
L 335.441245 109.370917 
L 335.766224 99.792315 
L 336.091204 114.021118 
L 336.741163 81.172239 
L 337.066143 75.870337 
L 337.391122 89.260105 
L 337.716102 77.390593 
L 338.041081 84.72875 
L 338.366061 80.567396 
L 338.69104 83.186086 
L 339.01602 92.27511 
L 339.340999 82.503736 
L 339.665979 61.99518 
L 340.315938 87.162041 
L 340.640917 102.876718 
L 340.965897 84.919335 
L 341.290876 86.530812 
L 341.615856 80.410475 
L 341.940835 111.564643 
L 342.265815 112.171893 
L 342.590794 82.146033 
L 342.915774 92.347043 
L 343.240753 89.56933 
L 343.565733 126.193371 
L 343.890713 117.891495 
L 344.215692 101.144471 
L 344.540672 110.466768 
L 344.865651 86.205959 
L 345.190631 105.750475 
L 345.51561 91.282617 
L 345.84059 104.936893 
L 346.165569 110.576968 
L 346.490549 71.536896 
L 346.815528 81.936468 
L 347.140508 116.897557 
L 347.465487 107.063352 
L 347.790467 110.434258 
L 348.115446 91.760295 
L 348.765405 108.898751 
L 349.090385 101.428896 
L 349.415364 138.243442 
L 349.740344 108.041134 
L 350.065324 149.986076 
L 350.390303 119.264918 
L 350.715283 65.989623 
L 351.040262 85.836988 
L 351.365242 124.792844 
L 351.690221 102.0832 
L 352.015201 118.753016 
L 352.34018 73.330706 
L 352.990139 148.584068 
L 353.640098 90.026299 
L 353.965078 99.340547 
L 354.290057 121.966102 
L 354.615037 125.41864 
L 354.940016 118.800753 
L 355.264996 94.501838 
L 355.589975 123.393908 
L 355.914955 107.20259 
L 356.239934 126.872327 
L 356.889894 136.43369 
L 357.214873 71.869205 
L 357.539853 144.204682 
L 357.864832 111.98223 
L 358.189812 101.404189 
L 358.514791 122.423577 
L 358.839771 107.595295 
L 359.16475 109.295144 
L 359.48973 106.442187 
L 359.814709 138.024188 
L 360.139689 106.360711 
L 360.789648 172.278 
L 361.114627 118.37377 
L 361.439607 109.507587 
L 361.764586 111.599482 
L 362.089566 112.024137 
L 362.414545 142.348372 
L 362.739525 128.612335 
L 363.064505 142.436459 
L 363.389484 108.504917 
L 363.714464 148.866816 
L 364.039443 162.26052 
L 364.364423 136.121619 
L 364.689402 127.239603 
L 365.014382 129.374599 
L 365.339361 127.229097 
L 365.664341 150.73083 
L 365.98932 151.255282 
L 366.3143 152.370775 
L 366.964259 120.852961 
L 367.289238 132.145321 
L 367.614218 118.863614 
L 367.939197 135.724023 
L 368.264177 130.204936 
L 368.589156 149.36277 
L 368.914136 119.37754 
L 369.239115 135.510109 
L 369.564095 167.513855 
L 369.889075 148.014317 
L 370.214054 169.073891 
L 370.539034 131.987803 
L 370.864013 139.803033 
L 371.188993 132.204701 
L 371.513972 147.140274 
L 371.838952 148.781914 
L 372.163931 135.57206 
L 372.488911 165.841686 
L 372.81389 134.787055 
L 373.13887 146.635235 
L 373.463849 141.602473 
L 373.788829 171.637055 
L 374.113808 156.001726 
L 374.438788 169.091767 
L 374.763767 177.104681 
L 375.088747 149.953428 
L 375.413726 162.403308 
L 375.738706 190.279154 
L 376.063686 141.579314 
L 376.388665 146.315885 
L 377.038624 164.992441 
L 377.363604 157.098957 
L 378.013563 187.742081 
L 378.338542 162.484316 
L 378.663522 179.504403 
L 378.988501 157.276652 
L 379.313481 187.156956 
L 379.63846 162.590951 
L 379.96344 162.803534 
L 380.288419 140.886028 
L 380.613399 139.545684 
L 380.938378 181.395824 
L 381.263358 188.322211 
L 381.588337 200.128259 
L 381.913317 174.889315 
L 382.238296 163.78615 
L 382.563276 157.165179 
L 382.888256 171.831881 
L 383.213235 173.201687 
L 383.538215 181.581915 
L 383.863194 205.270018 
L 384.188174 182.393047 
L 384.513153 183.283983 
L 384.838133 190.637319 
L 385.163112 190.418174 
L 385.488092 198.859524 
L 385.813071 201.695066 
L 386.138051 211.396652 
L 386.46303 176.531742 
L 386.78801 188.379826 
L 387.112989 206.5258 
L 387.437969 185.731419 
L 387.762948 180.297595 
L 388.087928 189.332917 
L 388.412907 219.203237 
L 389.062867 174.362779 
L 389.387846 228.999283 
L 389.712826 194.161294 
L 390.037805 195.180588 
L 390.362785 206.476093 
L 390.687764 180.813908 
L 391.012744 226.15419 
L 391.337723 188.922695 
L 391.662703 217.990727 
L 391.987682 219.855896 
L 392.312662 213.257405 
L 392.637641 196.068124 
L 392.962621 191.787528 
L 393.2876 170.658571 
L 393.61258 215.441474 
L 393.937559 214.581991 
L 394.262539 226.033616 
L 394.587518 208.801827 
L 394.912498 223.769329 
L 395.237477 201.413296 
L 395.887437 231.442697 
L 396.212416 233.711808 
L 396.537396 184.81196 
L 396.862375 182.650531 
L 397.187355 230.719128 
L 398.162293 186.547021 
L 398.487273 195.039346 
L 398.487273 195.039346 
" clip-path="url(#p81d1905dc8)" style="fill: none; stroke: #1f77b4; stroke-width: 1.5; stroke-linecap: square"/>
   </g>
   <g id="line2d_15">
    <path d="M 75.132645 157.543978 
L 75.457625 159.612681 
L 75.782604 165.861211 
L 76.107584 175.535517 
L 76.432563 173.937607 
L 76.757543 169.559446 
L 77.407502 156.52953 
L 77.732482 165.355824 
L 78.057461 165.532642 
L 78.382441 167.564065 
L 78.70742 165.434904 
L 79.0324 154.30221 
L 79.357379 150.453179 
L 79.682359 150.946525 
L 80.007338 149.814052 
L 80.332318 154.929907 
L 80.982277 145.553029 
L 81.307256 145.252056 
L 81.632236 147.092524 
L 81.957215 146.241155 
L 82.282195 143.557655 
L 82.607174 145.163669 
L 83.257133 151.272095 
L 83.582113 148.445402 
L 83.907093 142.170222 
L 84.557052 121.515684 
L 84.882031 129.931734 
L 85.207011 143.789234 
L 85.53199 149.423435 
L 85.85697 137.088073 
L 86.181949 129.064746 
L 86.506929 129.671633 
L 86.831908 129.524973 
L 87.156888 131.948544 
L 87.481867 128.971605 
L 87.806847 136.705663 
L 88.131826 147.784718 
L 88.456806 149.873273 
L 88.781785 145.669658 
L 89.431744 134.675371 
L 89.756724 131.462074 
L 90.081704 135.069952 
L 90.406683 136.918259 
L 90.731663 130.417787 
L 91.056642 128.327566 
L 91.381622 129.987134 
L 91.706601 128.33596 
L 92.031581 125.822347 
L 92.35656 129.177771 
L 92.68154 128.951496 
L 93.006519 127.906162 
L 93.331499 130.204381 
L 93.656478 127.563666 
L 93.981458 126.282136 
L 94.956396 102.639357 
L 95.281376 109.152065 
L 95.606355 119.984932 
L 95.931335 121.73858 
L 96.256314 117.565251 
L 96.581294 116.637814 
L 96.906274 111.606825 
L 97.231253 102.77667 
L 97.556233 99.17755 
L 97.881212 101.409096 
L 98.206192 110.307367 
L 98.531171 115.762776 
L 98.856151 115.913999 
L 99.18113 113.38486 
L 99.831089 129.714271 
L 100.806028 110.842596 
L 101.131007 112.538535 
L 101.455987 120.179658 
L 101.780966 117.839528 
L 102.105946 106.193324 
L 102.430925 105.345914 
L 102.755905 118.285761 
L 103.080885 126.065778 
L 103.730844 107.900418 
L 104.055823 101.872378 
L 104.380803 100.99757 
L 104.705782 105.633522 
L 105.030762 108.341174 
L 105.355741 114.675309 
L 105.680721 118.456906 
L 106.0057 107.649491 
L 106.33068 104.972361 
L 106.655659 107.105981 
L 106.980639 106.629237 
L 107.305618 113.681637 
L 107.955577 103.396867 
L 108.280557 103.976213 
L 108.605536 103.944365 
L 108.930516 100.10257 
L 109.255495 103.667623 
L 109.905455 114.607242 
L 110.230434 109.26753 
L 110.555414 95.788943 
L 110.880393 97.949878 
L 111.205373 109.842308 
L 111.530352 102.946548 
L 111.855332 100.355977 
L 112.505291 97.918324 
L 112.83027 97.147631 
L 113.15525 100.213271 
L 113.480229 100.59213 
L 113.805209 98.345971 
L 114.130188 93.901897 
L 114.455168 93.789904 
L 114.780147 97.322121 
L 115.430106 90.661418 
L 116.080066 102.332545 
L 116.405045 107.135236 
L 116.730025 106.15765 
L 117.055004 97.688965 
L 117.379984 93.327635 
L 118.029943 102.029008 
L 118.354922 101.728468 
L 118.679902 103.507504 
L 119.004881 104.058235 
L 119.329861 105.879094 
L 119.65484 103.858852 
L 119.97982 104.627168 
L 120.304799 112.930798 
L 120.629779 115.950346 
L 121.279738 93.041692 
L 121.604717 91.221014 
L 121.929697 92.931924 
L 122.254676 102.992473 
L 122.579656 106.157291 
L 122.904636 104.134052 
L 123.229615 98.464226 
L 123.554595 96.824001 
L 123.879574 92.931679 
L 124.204554 83.563751 
L 124.529533 83.953646 
L 124.854513 85.656137 
L 125.179492 88.344457 
L 125.504472 88.387808 
L 125.829451 86.897239 
L 126.154431 86.678695 
L 126.80439 97.970271 
L 127.129369 102.162382 
L 127.454349 111.143706 
L 127.779328 108.756953 
L 128.429287 99.887956 
L 129.079247 76.056139 
L 129.729206 84.545767 
L 130.379165 89.90076 
L 130.704144 100.884541 
L 131.029124 106.990172 
L 131.679083 93.648465 
L 132.004062 96.408059 
L 132.329042 102.469141 
L 132.654021 97.923826 
L 132.979001 97.370001 
L 133.30398 99.50316 
L 133.62896 99.549306 
L 133.953939 94.722209 
L 134.603898 104.460374 
L 134.928878 98.227637 
L 135.253857 95.825196 
L 135.578837 98.081837 
L 135.903817 103.466929 
L 136.228796 95.744059 
L 136.878755 105.410287 
L 137.203735 99.821294 
L 137.528714 96.778047 
L 137.853694 102.362374 
L 138.503653 98.950264 
L 138.828632 106.437433 
L 139.153612 121.068283 
L 139.478591 117.898317 
L 139.803571 105.481591 
L 140.12855 97.325363 
L 140.778509 88.108801 
L 141.103489 98.30597 
L 141.428468 118.374182 
L 141.753448 124.650138 
L 142.403407 106.097383 
L 142.728387 101.331088 
L 143.053366 101.794472 
L 143.378346 107.404547 
L 143.703325 105.0211 
L 144.028305 106.689946 
L 144.353284 103.619733 
L 145.003243 114.647425 
L 145.328223 125.943933 
L 145.653202 122.8943 
L 146.303161 106.836965 
L 146.628141 105.54764 
L 146.95312 115.717858 
L 147.2781 122.330495 
L 147.603079 120.462669 
L 147.928059 115.94206 
L 148.253038 113.783875 
L 148.578018 109.293159 
L 148.902998 111.568754 
L 149.227977 120.389606 
L 149.552957 114.137232 
L 149.877936 113.163909 
L 150.202916 112.59531 
L 150.527895 103.702187 
L 151.502834 116.142376 
L 151.827813 114.930932 
L 152.152793 121.620968 
L 152.477772 121.825257 
L 152.802752 131.237897 
L 153.127731 136.62126 
L 153.452711 139.674576 
L 153.77769 134.856399 
L 154.10267 113.401245 
L 154.427649 109.10336 
L 154.752629 118.274469 
L 155.077609 113.289061 
L 156.052547 127.785088 
L 156.377527 126.568624 
L 156.702506 118.806588 
L 157.027486 121.799888 
L 157.352465 128.415683 
L 157.677445 125.878169 
L 158.002424 127.364244 
L 158.652383 137.763654 
L 158.977363 132.103087 
L 159.302342 133.857348 
L 159.627322 129.598742 
L 159.952301 127.308103 
L 160.277281 129.302063 
L 160.60226 136.226276 
L 160.92724 139.180999 
L 161.252219 140.443958 
L 162.227158 115.81906 
L 162.552138 126.030281 
L 162.877117 140.792348 
L 163.202097 145.445712 
L 163.852056 128.082023 
L 164.177035 134.937379 
L 164.502015 146.903294 
L 164.826994 146.292572 
L 165.151974 140.643834 
L 165.476953 137.23934 
L 165.801933 144.958609 
L 166.126912 138.938093 
L 166.451892 138.903021 
L 166.776871 142.087607 
L 167.101851 146.855837 
L 167.42683 146.671946 
L 167.75181 146.914959 
L 168.07679 151.072776 
L 168.726749 144.723793 
L 169.051728 148.254296 
L 169.376708 148.700848 
L 169.701687 151.382998 
L 170.026667 151.341675 
L 171.001605 142.18705 
L 171.326585 143.98176 
L 171.651564 142.668087 
L 171.976544 143.53761 
L 172.301523 139.364694 
L 172.626503 137.516937 
L 172.951482 138.40981 
L 173.926421 158.112064 
L 174.57638 178.22028 
L 174.90136 184.705656 
L 175.226339 183.36656 
L 175.551319 177.789468 
L 175.876298 179.225468 
L 176.201278 172.993322 
L 176.526257 174.368067 
L 176.851237 195.313991 
L 177.176216 191.821772 
L 177.501196 183.562957 
L 177.826175 190.935851 
L 178.151155 188.119937 
L 178.476134 199.118054 
L 178.801114 188.009165 
L 179.126093 194.802147 
L 179.451073 204.581253 
L 179.776052 209.717358 
L 180.101032 194.668386 
L 180.426011 187.421513 
L 180.750991 183.130548 
L 181.075971 184.316002 
L 181.40095 187.585892 
L 181.72593 184.487299 
L 182.050909 183.356702 
L 182.375889 184.276388 
L 182.700868 186.725348 
L 183.025848 194.828656 
L 183.350827 188.729692 
L 183.675807 184.814454 
L 184.000786 185.882497 
L 184.325766 186.267504 
L 184.650745 182.622356 
L 184.975725 196.87 
L 185.300704 204.798667 
L 185.625684 207.113703 
L 185.950663 203.589138 
L 186.275643 205.935246 
L 186.925602 195.95412 
L 187.250581 203.194312 
L 187.575561 202.669663 
L 188.5505 189.564137 
L 188.875479 204.085362 
L 189.200459 210.301051 
L 189.525438 207.389267 
L 189.850418 203.15297 
L 190.500377 212.356953 
L 191.150336 201.244744 
L 191.475315 203.816577 
L 191.800295 211.366606 
L 192.125274 211.547226 
L 192.450254 206.254544 
L 192.775233 213.120048 
L 193.100213 216.43855 
L 193.425192 218.244969 
L 193.750172 218.659246 
L 194.075152 218.741689 
L 194.400131 215.180149 
L 194.725111 214.550639 
L 195.05009 217.4949 
L 195.37507 222.179134 
L 195.700049 220.665116 
L 196.025029 208.650742 
L 196.350008 210.527777 
L 196.674988 221.801593 
L 196.999967 229.069914 
L 197.324947 229.231348 
L 197.649926 235.191051 
L 197.974906 231.051363 
L 198.299885 230.098739 
L 198.949844 218.343754 
L 199.274824 225.743803 
L 199.599803 222.475671 
L 199.924783 226.50985 
L 200.249762 227.930466 
L 200.574742 230.035731 
L 200.899722 234.681491 
L 201.549681 229.324991 
L 201.87466 228.466073 
L 202.19964 224.420612 
L 202.524619 218.861762 
L 202.849599 230.997619 
L 203.174578 232.61389 
L 203.499558 229.169897 
L 203.824537 234.804334 
L 204.149517 232.467686 
L 204.474496 226.313066 
L 204.799476 227.093567 
L 205.124455 225.297699 
L 205.449435 225.896407 
L 205.774414 231.080416 
L 206.099394 233.006339 
L 206.424373 227.072398 
L 206.749353 233.450474 
L 207.074333 235.413927 
L 207.399312 233.299383 
L 207.724292 241.771978 
L 208.049271 246.595818 
L 208.374251 248.458934 
L 208.69923 243.259511 
L 209.02421 235.533071 
L 209.349189 224.231637 
L 209.999148 240.777397 
L 210.324128 245.448237 
L 210.649107 237.151876 
L 210.974087 240.35254 
L 211.299066 238.965786 
L 211.624046 236.33016 
L 211.949025 237.309642 
L 212.274005 238.865007 
L 212.598984 239.058805 
L 212.923964 232.396594 
L 213.248943 232.793218 
L 213.573923 235.175731 
L 213.898903 230.869511 
L 214.223882 239.324982 
L 214.873841 247.024113 
L 215.198821 246.658463 
L 215.5238 239.222975 
L 216.498739 231.247421 
L 216.823718 226.953921 
L 217.148698 229.358862 
L 217.798657 239.143817 
L 218.123636 239.843192 
L 218.448616 240.05812 
L 218.773595 235.692963 
L 219.098575 240.078759 
L 219.748534 244.992417 
L 220.073514 250.829119 
L 220.398493 244.938692 
L 220.723473 233.518418 
L 221.048452 243.400233 
L 221.373432 244.125247 
L 221.698411 240.755874 
L 222.023391 232.991004 
L 222.67335 242.922555 
L 222.998329 243.625427 
L 223.323309 241.978428 
L 223.648288 248.551923 
L 223.973268 247.670569 
L 224.298247 240.698583 
L 224.623227 245.410996 
L 224.948206 246.433632 
L 225.273186 249.617538 
L 225.598165 250.559847 
L 225.923145 249.524254 
L 226.248124 243.509461 
L 226.573104 241.164296 
L 226.898084 240.052256 
L 227.223063 237.525533 
L 227.548043 246.236583 
L 227.873022 248.91781 
L 228.198002 248.902672 
L 228.522981 247.328691 
L 228.847961 247.461338 
L 229.17294 244.176761 
L 229.49792 239.383314 
L 229.822899 242.79372 
L 230.147879 241.932395 
L 230.472858 236.890944 
L 231.122817 251.711849 
L 231.447797 250.687347 
L 231.772776 243.206906 
L 232.097756 246.609149 
L 232.422735 247.083801 
L 232.747715 246.876024 
L 233.072695 241.252472 
L 233.397674 238.548739 
L 234.372613 258.382715 
L 234.697592 246.775068 
L 235.022572 243.53178 
L 235.347551 242.55329 
L 235.672531 244.801556 
L 235.99751 244.645391 
L 236.647469 234.98351 
L 236.972449 233.384494 
L 237.947387 246.736462 
L 238.272367 243.668189 
L 238.597346 245.948951 
L 238.922326 255.656752 
L 239.247305 250.201024 
L 239.572285 242.36849 
L 239.897265 245.271257 
L 240.222244 240.851378 
L 240.547224 242.091458 
L 240.872203 239.136803 
L 241.197183 234.203568 
L 241.522162 246.478712 
L 241.847142 247.923681 
L 242.497101 235.38339 
L 242.82208 241.014183 
L 243.14706 241.12065 
L 243.472039 236.198058 
L 243.797019 238.156379 
L 244.121998 235.536244 
L 244.446978 234.275712 
L 244.771957 228.838973 
L 245.096937 228.477291 
L 245.421916 235.537953 
L 245.746896 237.743251 
L 246.071876 238.218149 
L 246.396855 235.224859 
L 246.721835 236.573115 
L 247.046814 242.999031 
L 247.371794 241.934684 
L 248.021753 224.326346 
L 248.671712 242.525617 
L 248.996691 240.507025 
L 249.321671 230.907891 
L 249.64665 232.642682 
L 250.296609 239.868193 
L 250.621589 240.828381 
L 250.946568 240.864905 
L 251.271548 236.146844 
L 251.596527 222.939385 
L 251.921507 217.479782 
L 252.571466 232.28941 
L 252.896446 235.438898 
L 253.221425 229.014087 
L 253.546405 215.628474 
L 253.871384 225.470239 
L 254.196364 224.247571 
L 254.846323 218.980312 
L 255.171302 218.224099 
L 255.496282 220.416105 
L 256.146241 227.62415 
L 256.47122 224.103853 
L 256.7962 214.778338 
L 257.121179 209.716278 
L 257.446159 209.715894 
L 257.771138 212.755846 
L 258.421097 222.840192 
L 258.746077 223.314206 
L 259.071057 224.908334 
L 259.396036 222.894654 
L 259.721016 215.019456 
L 260.045995 222.672245 
L 260.370975 224.312499 
L 260.695954 220.382701 
L 261.020934 212.995756 
L 261.345913 212.969723 
L 261.995872 220.303233 
L 262.645831 207.72662 
L 262.970811 214.819548 
L 263.62077 207.194678 
L 263.945749 212.944271 
L 264.270729 213.724964 
L 264.595708 210.316729 
L 265.245667 213.608192 
L 265.570647 205.256781 
L 265.895627 205.228911 
L 266.545586 212.713782 
L 266.870565 209.469929 
L 267.195545 211.066675 
L 267.845504 204.409425 
L 268.170483 203.409599 
L 268.820442 211.526946 
L 269.145422 209.365706 
L 269.470401 204.856915 
L 269.795381 207.699719 
L 270.12036 213.915943 
L 270.44534 215.795081 
L 270.770319 210.262774 
L 271.095299 201.126882 
L 271.420278 197.762922 
L 271.745258 196.219718 
L 272.070238 195.30458 
L 272.395217 199.630055 
L 273.045176 177.979074 
L 273.370156 176.882302 
L 273.695135 167.81865 
L 274.020115 168.230075 
L 274.345094 175.794946 
L 274.670074 187.466713 
L 274.995053 203.811129 
L 275.320033 209.932611 
L 275.645012 210.564655 
L 275.969992 206.525044 
L 276.294971 195.86035 
L 276.94493 166.467419 
L 277.594889 154.834646 
L 277.919869 156.321306 
L 278.244848 164.466166 
L 278.894808 172.884393 
L 279.219787 168.916161 
L 280.194726 138.907154 
L 280.519705 140.654839 
L 280.844685 137.871738 
L 281.494644 164.471507 
L 281.819623 175.301049 
L 282.469582 154.259195 
L 282.794562 166.642241 
L 283.119541 167.617012 
L 283.7695 149.428381 
L 284.744439 169.98123 
L 285.069419 158.802757 
L 285.394398 140.663798 
L 285.719378 135.550292 
L 286.044357 137.1336 
L 286.369337 134.190896 
L 286.694316 134.455123 
L 287.019296 132.760933 
L 287.344275 126.135805 
L 287.669255 124.173772 
L 287.994234 126.82682 
L 288.319214 123.995844 
L 288.644193 131.144706 
L 289.294152 159.006005 
L 289.944111 146.557462 
L 290.269091 141.281701 
L 290.59407 143.708018 
L 290.91905 136.202621 
L 291.244029 133.261258 
L 291.569009 134.808354 
L 291.893989 140.593756 
L 292.218968 143.062835 
L 292.543948 141.989116 
L 292.868927 140.473355 
L 293.193907 130.073851 
L 293.843866 120.007143 
L 294.168845 111.416529 
L 294.493825 111.657117 
L 294.818804 116.592994 
L 295.143784 127.208031 
L 295.468763 126.324893 
L 295.793743 119.936718 
L 296.118722 120.879377 
L 296.443702 126.689212 
L 297.41864 113.62916 
L 297.74362 120.103315 
L 298.0686 132.598039 
L 298.393579 129.65564 
L 298.718559 124.597572 
L 299.368518 130.083453 
L 300.343456 116.510403 
L 300.668436 119.315126 
L 300.993415 123.158655 
L 301.643374 104.704017 
L 301.968354 109.324958 
L 302.293333 115.659094 
L 302.618313 115.360081 
L 302.943292 114.676881 
L 303.593251 128.218191 
L 303.918231 126.034446 
L 305.543129 109.97329 
L 305.868108 111.994146 
L 306.193088 106.037665 
L 306.518067 106.536503 
L 307.168026 118.291675 
L 307.493006 111.85311 
L 308.142965 116.817565 
L 308.467944 108.49555 
L 308.792924 103.675035 
L 309.442883 111.982127 
L 309.767862 111.444374 
L 310.417821 95.958708 
L 310.742801 92.65638 
L 311.39276 112.700874 
L 311.71774 113.427346 
L 312.042719 107.626671 
L 312.367699 98.060471 
L 312.692678 94.50615 
L 313.017658 98.792655 
L 313.342637 98.512725 
L 313.667617 97.349323 
L 313.992596 103.190068 
L 314.317576 102.262641 
L 314.642555 108.212943 
L 315.292514 104.292466 
L 315.617494 104.115707 
L 315.942473 99.204899 
L 316.267453 92.22032 
L 316.592432 89.189867 
L 316.917412 95.875336 
L 317.242391 91.192968 
L 317.567371 82.209227 
L 317.892351 81.029611 
L 318.54231 88.579052 
L 318.867289 88.705382 
L 319.192269 90.31152 
L 319.517248 92.945884 
L 319.842228 101.303101 
L 320.167207 100.937711 
L 320.492187 100.008938 
L 320.817166 92.629532 
L 321.142146 96.84268 
L 321.467125 103.277261 
L 321.792105 101.836045 
L 322.117084 94.674879 
L 322.442064 90.838565 
L 323.092023 108.789617 
L 323.417002 99.595471 
L 323.741982 97.928114 
L 324.066962 100.98479 
L 324.391941 96.333882 
L 324.716921 88.087543 
L 325.0419 91.033228 
L 325.36688 92.448441 
L 325.691859 96.245343 
L 326.016839 102.172392 
L 326.341818 98.888071 
L 326.666798 96.838407 
L 326.991777 102.978342 
L 327.316757 100.18249 
L 327.641736 100.539598 
L 327.966716 96.420623 
L 328.291695 97.517359 
L 328.616675 99.488268 
L 329.266634 86.207874 
L 329.591613 81.796198 
L 329.916593 84.12205 
L 330.241572 99.143944 
L 330.566552 104.3624 
L 331.216511 89.436496 
L 331.86647 102.377045 
L 332.19145 103.712383 
L 332.516429 99.841363 
L 332.841409 88.079026 
L 333.166388 84.043226 
L 333.491368 91.285456 
L 333.816347 89.354509 
L 334.141327 86.28881 
L 334.791286 91.95539 
L 335.116265 89.217167 
L 335.441245 91.136198 
L 335.766224 102.550479 
L 336.416183 107.861266 
L 336.741163 107.533731 
L 337.066143 104.657228 
L 337.716102 87.807052 
L 338.366061 90.237431 
L 338.69104 88.394026 
L 339.01602 89.630658 
L 339.340999 90.265875 
L 339.665979 92.934636 
L 339.990958 90.300832 
L 340.315938 81.830129 
L 340.640917 80.532022 
L 341.290876 97.96198 
L 341.615856 97.501798 
L 341.940835 91.562243 
L 342.265815 93.580806 
L 342.915774 108.764434 
L 343.565733 93.733394 
L 343.890713 100.208487 
L 344.540672 117.705678 
L 345.190631 105.598383 
L 345.84059 99.673116 
L 346.165569 102.703299 
L 346.490549 103.300818 
L 346.815528 104.911833 
L 347.140508 95.264731 
L 347.465487 94.084393 
L 348.115446 112.090593 
L 349.090385 101.642807 
L 349.740344 111.013928 
L 350.390303 123.703958 
L 350.715283 124.974127 
L 351.040262 122.054007 
L 351.690221 97.395694 
L 352.34018 113.929553 
L 352.66516 109.016986 
L 352.990139 101.412652 
L 353.315119 110.000692 
L 353.640098 122.57539 
L 353.965078 122.782896 
L 354.615037 103.374936 
L 355.264996 120.851448 
L 355.589975 117.324953 
L 355.914955 110.573128 
L 356.239934 110.164922 
L 356.564914 116.166203 
L 356.889894 118.466602 
L 357.214873 126.610629 
L 357.539853 124.1775 
L 357.864832 112.650892 
L 358.189812 113.02471 
L 358.514791 121.194068 
L 358.839771 112.447201 
L 359.16475 112.094317 
L 359.48973 114.20411 
L 359.814709 109.752831 
L 360.139689 112.887726 
L 360.789648 122.616241 
L 361.439607 143.245999 
L 362.089566 125.501045 
L 362.414545 111.761496 
L 362.739525 115.914839 
L 363.389484 131.068883 
L 364.039443 125.592698 
L 364.689402 143.28239 
L 365.014382 138.917307 
L 365.339361 128.090004 
L 365.664341 125.39279 
L 365.98932 127.685536 
L 366.639279 142.38744 
L 366.964259 141.706332 
L 367.289238 135.298378 
L 367.614218 126.358951 
L 367.939197 123.229772 
L 368.589156 125.042651 
L 368.914136 130.350103 
L 369.239115 131.973309 
L 369.564095 129.926651 
L 369.889075 134.462737 
L 370.539034 149.256971 
L 370.864013 147.0226 
L 371.188993 141.041782 
L 371.513972 131.691286 
L 371.838952 132.309538 
L 372.163931 135.061376 
L 372.488911 138.780181 
L 372.81389 138.503507 
L 373.13887 140.87826 
L 373.463849 141.401067 
L 373.788829 135.579018 
L 374.113808 140.144071 
L 375.088747 162.9565 
L 375.738706 158.020333 
L 376.063686 166.852616 
L 377.038624 150.0813 
L 377.363604 144.390943 
L 378.013563 156.841679 
L 378.338542 167.336949 
L 378.663522 172.083167 
L 378.988501 173.294615 
L 379.313481 167.121757 
L 379.63846 167.426812 
L 379.96344 168.720176 
L 380.288419 166.792862 
L 380.938378 142.192856 
L 381.263358 147.986109 
L 381.588337 159.794324 
L 381.913317 185.311872 
L 382.238296 191.598211 
L 382.563276 182.692329 
L 382.888256 167.252349 
L 383.213235 159.037397 
L 383.538215 161.601815 
L 383.863194 169.286369 
L 384.188174 183.903262 
L 384.513153 192.595984 
L 384.838133 193.491108 
L 385.163112 190.41245 
L 385.488092 189.619276 
L 386.46303 207.843947 
L 386.78801 205.72242 
L 387.112989 197.282081 
L 387.437969 200.093361 
L 388.087928 195.593239 
L 388.412907 189.783223 
L 389.062867 208.706824 
L 389.387846 204.726891 
L 389.712826 206.982308 
L 390.362785 209.75566 
L 390.687764 207.160448 
L 391.012744 201.572073 
L 391.662703 208.694712 
L 391.987682 210.115357 
L 392.312662 216.716024 
L 392.637641 218.409508 
L 392.962621 212.871385 
L 393.2876 204.725958 
L 393.61258 193.48514 
L 393.937559 195.991558 
L 394.587518 218.627938 
L 394.912498 218.545131 
L 395.237477 217.307797 
L 395.887437 213.179052 
L 396.537396 225.4156 
L 396.862375 220.514001 
L 397.187355 206.007286 
L 397.512334 212.100569 
L 397.837314 215.940238 
L 398.162293 218.177776 
L 398.487273 206.40562 
L 398.487273 206.40562 
" clip-path="url(#p81d1905dc8)" style="fill: none; stroke-dasharray: 1.5,2.475; stroke-dashoffset: 0; stroke: #ff7f0e; stroke-width: 1.5"/>
   </g>
   <g id="line2d_16">
    <path d="M 270.12036 213.915943 
L 270.44534 217.454511 
L 270.770319 217.78102 
L 271.095299 216.715337 
L 271.420278 217.584265 
L 271.745258 217.339699 
L 274.020115 217.574313 
L 279.544767 217.645937 
L 340.640917 217.64964 
L 398.487273 217.64964 
L 398.487273 217.64964 
" clip-path="url(#p81d1905dc8)" style="fill: none; stroke-dasharray: 9.6,2.4,1.5,2.4; stroke-dashoffset: 0; stroke: #2ca02c; stroke-width: 1.5"/>
   </g>
   <g id="patch_3">
    <path d="M 57.6 307.584 
L 57.6 41.472 
" style="fill: none; stroke: #000000; stroke-width: 0.8; stroke-linejoin: miter; stroke-linecap: square"/>
   </g>
   <g id="patch_4">
    <path d="M 414.72 307.584 
L 414.72 41.472 
" style="fill: none; stroke: #000000; stroke-width: 0.8; stroke-linejoin: miter; stroke-linecap: square"/>
   </g>
   <g id="patch_5">
    <path d="M 57.6 307.584 
L 414.72 307.584 
" style="fill: none; stroke: #000000; stroke-width: 0.8; stroke-linejoin: miter; stroke-linecap: square"/>
   </g>
   <g id="patch_6">
    <path d="M 57.6 41.472 
L 414.72 41.472 
" style="fill: none; stroke: #000000; stroke-width: 0.8; stroke-linejoin: miter; stroke-linecap: square"/>
   </g>
   <g id="legend_1">
    <g id="patch_7">
     <path d="M 64.6 302.584 
L 174.909375 302.584 
Q 176.909375 302.584 176.909375 300.584 
L 176.909375 257.549625 
Q 176.909375 255.549625 174.909375 255.549625 
L 64.6 255.549625 
Q 62.6 255.549625 62.6 257.549625 
L 62.6 300.584 
Q 62.6 302.584 64.6 302.584 
z
" style="fill: #ffffff; opacity: 0.8; stroke: #cccccc; stroke-linejoin: miter"/>
    </g>
    <g id="line2d_17">
     <path d="M 66.6 263.648062 
L 76.6 263.648062 
L 86.6 263.648062 
" style="fill: none; stroke: #1f77b4; stroke-width: 1.5; stroke-linecap: square"/>
    </g>
    <g id="text_14">
     <!-- data -->
     <g transform="translate(94.6 267.148062)scale(0.1 -0.1)">
      <defs>
       <path id="DejaVuSans-64" d="M 2906 2969 
L 2906 4863 
L 3481 4863 
L 3481 0 
L 2906 0 
L 2906 525 
Q 2725 213 2448 61 
Q 2172 -91 1784 -91 
Q 1150 -91 751 415 
Q 353 922 353 1747 
Q 353 2572 751 3078 
Q 1150 3584 1784 3584 
Q 2172 3584 2448 3432 
Q 2725 3281 2906 2969 
z
M 947 1747 
Q 947 1113 1208 752 
Q 1469 391 1925 391 
Q 2381 391 2643 752 
Q 2906 1113 2906 1747 
Q 2906 2381 2643 2742 
Q 2381 3103 1925 3103 
Q 1469 3103 1208 2742 
Q 947 2381 947 1747 
z
" transform="scale(0.015625)"/>
       <path id="DejaVuSans-61" d="M 2194 1759 
Q 1497 1759 1228 1600 
Q 959 1441 959 1056 
Q 959 750 1161 570 
Q 1363 391 1709 391 
Q 2188 391 2477 730 
Q 2766 1069 2766 1631 
L 2766 1759 
L 2194 1759 
z
M 3341 1997 
L 3341 0 
L 2766 0 
L 2766 531 
Q 2569 213 2275 61 
Q 1981 -91 1556 -91 
Q 1019 -91 701 211 
Q 384 513 384 1019 
Q 384 1609 779 1909 
Q 1175 2209 1959 2209 
L 2766 2209 
L 2766 2266 
Q 2766 2663 2505 2880 
Q 2244 3097 1772 3097 
Q 1472 3097 1187 3025 
Q 903 2953 641 2809 
L 641 3341 
Q 956 3463 1253 3523 
Q 1550 3584 1831 3584 
Q 2591 3584 2966 3190 
Q 3341 2797 3341 1997 
z
" transform="scale(0.015625)"/>
       <path id="DejaVuSans-74" d="M 1172 4494 
L 1172 3500 
L 2356 3500 
L 2356 3053 
L 1172 3053 
L 1172 1153 
Q 1172 725 1289 603 
Q 1406 481 1766 481 
L 2356 481 
L 2356 0 
L 1766 0 
Q 1100 0 847 248 
Q 594 497 594 1153 
L 594 3053 
L 172 3053 
L 172 3500 
L 594 3500 
L 594 4494 
L 1172 4494 
z
" transform="scale(0.015625)"/>
      </defs>
      <use xlink:href="#DejaVuSans-64"/>
      <use xlink:href="#DejaVuSans-61" x="63.476562"/>
      <use xlink:href="#DejaVuSans-74" x="124.755859"/>
      <use xlink:href="#DejaVuSans-61" x="163.964844"/>
     </g>
    </g>
    <g id="line2d_18">
     <path d="M 66.6 278.326188 
L 76.6 278.326188 
L 86.6 278.326188 
" style="fill: none; stroke-dasharray: 1.5,2.475; stroke-dashoffset: 0; stroke: #ff7f0e; stroke-width: 1.5"/>
    </g>
    <g id="text_15">
     <!-- onestep preds -->
     <g transform="translate(94.6 281.826188)scale(0.1 -0.1)">
      <defs>
       <path id="DejaVuSans-6f" d="M 1959 3097 
Q 1497 3097 1228 2736 
Q 959 2375 959 1747 
Q 959 1119 1226 758 
Q 1494 397 1959 397 
Q 2419 397 2687 759 
Q 2956 1122 2956 1747 
Q 2956 2369 2687 2733 
Q 2419 3097 1959 3097 
z
M 1959 3584 
Q 2709 3584 3137 3096 
Q 3566 2609 3566 1747 
Q 3566 888 3137 398 
Q 2709 -91 1959 -91 
Q 1206 -91 779 398 
Q 353 888 353 1747 
Q 353 2609 779 3096 
Q 1206 3584 1959 3584 
z
" transform="scale(0.015625)"/>
       <path id="DejaVuSans-6e" d="M 3513 2113 
L 3513 0 
L 2938 0 
L 2938 2094 
Q 2938 2591 2744 2837 
Q 2550 3084 2163 3084 
Q 1697 3084 1428 2787 
Q 1159 2491 1159 1978 
L 1159 0 
L 581 0 
L 581 3500 
L 1159 3500 
L 1159 2956 
Q 1366 3272 1645 3428 
Q 1925 3584 2291 3584 
Q 2894 3584 3203 3211 
Q 3513 2838 3513 2113 
z
" transform="scale(0.015625)"/>
       <path id="DejaVuSans-65" d="M 3597 1894 
L 3597 1613 
L 953 1613 
Q 991 1019 1311 708 
Q 1631 397 2203 397 
Q 2534 397 2845 478 
Q 3156 559 3463 722 
L 3463 178 
Q 3153 47 2828 -22 
Q 2503 -91 2169 -91 
Q 1331 -91 842 396 
Q 353 884 353 1716 
Q 353 2575 817 3079 
Q 1281 3584 2069 3584 
Q 2775 3584 3186 3129 
Q 3597 2675 3597 1894 
z
M 3022 2063 
Q 3016 2534 2758 2815 
Q 2500 3097 2075 3097 
Q 1594 3097 1305 2825 
Q 1016 2553 972 2059 
L 3022 2063 
z
" transform="scale(0.015625)"/>
       <path id="DejaVuSans-73" d="M 2834 3397 
L 2834 2853 
Q 2591 2978 2328 3040 
Q 2066 3103 1784 3103 
Q 1356 3103 1142 2972 
Q 928 2841 928 2578 
Q 928 2378 1081 2264 
Q 1234 2150 1697 2047 
L 1894 2003 
Q 2506 1872 2764 1633 
Q 3022 1394 3022 966 
Q 3022 478 2636 193 
Q 2250 -91 1575 -91 
Q 1294 -91 989 -36 
Q 684 19 347 128 
L 347 722 
Q 666 556 975 473 
Q 1284 391 1588 391 
Q 1994 391 2212 530 
Q 2431 669 2431 922 
Q 2431 1156 2273 1281 
Q 2116 1406 1581 1522 
L 1381 1569 
Q 847 1681 609 1914 
Q 372 2147 372 2553 
Q 372 3047 722 3315 
Q 1072 3584 1716 3584 
Q 2034 3584 2315 3537 
Q 2597 3491 2834 3397 
z
" transform="scale(0.015625)"/>
       <path id="DejaVuSans-70" d="M 1159 525 
L 1159 -1331 
L 581 -1331 
L 581 3500 
L 1159 3500 
L 1159 2969 
Q 1341 3281 1617 3432 
Q 1894 3584 2278 3584 
Q 2916 3584 3314 3078 
Q 3713 2572 3713 1747 
Q 3713 922 3314 415 
Q 2916 -91 2278 -91 
Q 1894 -91 1617 61 
Q 1341 213 1159 525 
z
M 3116 1747 
Q 3116 2381 2855 2742 
Q 2594 3103 2138 3103 
Q 1681 3103 1420 2742 
Q 1159 2381 1159 1747 
Q 1159 1113 1420 752 
Q 1681 391 2138 391 
Q 2594 391 2855 752 
Q 3116 1113 3116 1747 
z
" transform="scale(0.015625)"/>
       <path id="DejaVuSans-20" transform="scale(0.015625)"/>
       <path id="DejaVuSans-72" d="M 2631 2963 
Q 2534 3019 2420 3045 
Q 2306 3072 2169 3072 
Q 1681 3072 1420 2755 
Q 1159 2438 1159 1844 
L 1159 0 
L 581 0 
L 581 3500 
L 1159 3500 
L 1159 2956 
Q 1341 3275 1631 3429 
Q 1922 3584 2338 3584 
Q 2397 3584 2469 3576 
Q 2541 3569 2628 3553 
L 2631 2963 
z
" transform="scale(0.015625)"/>
      </defs>
      <use xlink:href="#DejaVuSans-6f"/>
      <use xlink:href="#DejaVuSans-6e" x="61.181641"/>
      <use xlink:href="#DejaVuSans-65" x="124.560547"/>
      <use xlink:href="#DejaVuSans-73" x="186.083984"/>
      <use xlink:href="#DejaVuSans-74" x="238.183594"/>
      <use xlink:href="#DejaVuSans-65" x="277.392578"/>
      <use xlink:href="#DejaVuSans-70" x="338.916016"/>
      <use xlink:href="#DejaVuSans-20" x="402.392578"/>
      <use xlink:href="#DejaVuSans-70" x="434.179688"/>
      <use xlink:href="#DejaVuSans-72" x="497.65625"/>
      <use xlink:href="#DejaVuSans-65" x="536.519531"/>
      <use xlink:href="#DejaVuSans-64" x="598.042969"/>
      <use xlink:href="#DejaVuSans-73" x="661.519531"/>
     </g>
    </g>
    <g id="line2d_19">
     <path d="M 66.6 293.004312 
L 76.6 293.004312 
L 86.6 293.004312 
" style="fill: none; stroke-dasharray: 9.6,2.4,1.5,2.4; stroke-dashoffset: 0; stroke: #2ca02c; stroke-width: 1.5"/>
    </g>
    <g id="text_16">
     <!-- multistep preds -->
     <g transform="translate(94.6 296.504312)scale(0.1 -0.1)">
      <defs>
       <path id="DejaVuSans-6d" d="M 3328 2828 
Q 3544 3216 3844 3400 
Q 4144 3584 4550 3584 
Q 5097 3584 5394 3201 
Q 5691 2819 5691 2113 
L 5691 0 
L 5113 0 
L 5113 2094 
Q 5113 2597 4934 2840 
Q 4756 3084 4391 3084 
Q 3944 3084 3684 2787 
Q 3425 2491 3425 1978 
L 3425 0 
L 2847 0 
L 2847 2094 
Q 2847 2600 2669 2842 
Q 2491 3084 2119 3084 
Q 1678 3084 1418 2786 
Q 1159 2488 1159 1978 
L 1159 0 
L 581 0 
L 581 3500 
L 1159 3500 
L 1159 2956 
Q 1356 3278 1631 3431 
Q 1906 3584 2284 3584 
Q 2666 3584 2933 3390 
Q 3200 3197 3328 2828 
z
" transform="scale(0.015625)"/>
       <path id="DejaVuSans-75" d="M 544 1381 
L 544 3500 
L 1119 3500 
L 1119 1403 
Q 1119 906 1312 657 
Q 1506 409 1894 409 
Q 2359 409 2629 706 
Q 2900 1003 2900 1516 
L 2900 3500 
L 3475 3500 
L 3475 0 
L 2900 0 
L 2900 538 
Q 2691 219 2414 64 
Q 2138 -91 1772 -91 
Q 1169 -91 856 284 
Q 544 659 544 1381 
z
M 1991 3584 
L 1991 3584 
z
" transform="scale(0.015625)"/>
       <path id="DejaVuSans-6c" d="M 603 4863 
L 1178 4863 
L 1178 0 
L 603 0 
L 603 4863 
z
" transform="scale(0.015625)"/>
       <path id="DejaVuSans-69" d="M 603 3500 
L 1178 3500 
L 1178 0 
L 603 0 
L 603 3500 
z
M 603 4863 
L 1178 4863 
L 1178 4134 
L 603 4134 
L 603 4863 
z
" transform="scale(0.015625)"/>
      </defs>
      <use xlink:href="#DejaVuSans-6d"/>
      <use xlink:href="#DejaVuSans-75" x="97.412109"/>
      <use xlink:href="#DejaVuSans-6c" x="160.791016"/>
      <use xlink:href="#DejaVuSans-74" x="188.574219"/>
      <use xlink:href="#DejaVuSans-69" x="227.783203"/>
      <use xlink:href="#DejaVuSans-73" x="255.566406"/>
      <use xlink:href="#DejaVuSans-74" x="307.666016"/>
      <use xlink:href="#DejaVuSans-65" x="346.875"/>
      <use xlink:href="#DejaVuSans-70" x="408.398438"/>
      <use xlink:href="#DejaVuSans-20" x="471.875"/>
      <use xlink:href="#DejaVuSans-70" x="503.662109"/>
      <use xlink:href="#DejaVuSans-72" x="567.138672"/>
      <use xlink:href="#DejaVuSans-65" x="606.001953"/>
      <use xlink:href="#DejaVuSans-64" x="667.525391"/>
      <use xlink:href="#DejaVuSans-73" x="731.001953"/>
     </g>
    </g>
   </g>
  </g>
 </g>
 <defs>
  <clipPath id="p81d1905dc8">
   <rect x="57.6" y="41.472" width="357.12" height="266.112"/>
  </clipPath>
 </defs>
</svg>
